<svg width="61" height="61" viewBox="0 0 61 61" fill="none" xmlns="http://www.w3.org/2000/svg">
<mask id="mask0_494_1664" style="mask-type:luminance" maskUnits="userSpaceOnUse" x="0" y="0" width="61" height="61">
<path d="M0.25 0.0931396H60.25V60.0931H0.25V0.0931396Z" fill="white"/>
</mask>
<g mask="url(#mask0_494_1664)">
<path d="M19.5859 11.5189C19.5859 12.0043 19.1924 12.3978 18.707 12.3978C18.2216 12.3978 17.8281 12.0043 17.8281 11.5189C17.8281 11.0335 18.2216 10.64 18.707 10.64C19.1924 10.64 19.5859 11.0335 19.5859 11.5189Z" fill="white"/>
<path d="M23.1016 11.5189C23.1016 12.0043 22.708 12.3978 22.2227 12.3978C21.7373 12.3978 21.3438 12.0043 21.3438 11.5189C21.3438 11.0335 21.7373 10.64 22.2227 10.64C22.708 10.64 23.1016 11.0335 23.1016 11.5189Z" fill="white"/>
<path d="M26.6172 11.5189C26.6172 12.0043 26.2237 12.3978 25.7383 12.3978C25.2529 12.3978 24.8594 12.0043 24.8594 11.5189C24.8594 11.0335 25.2529 10.64 25.7383 10.64C26.2237 10.64 26.6172 11.0335 26.6172 11.5189Z" fill="white"/>
<path d="M30.1328 11.5189C30.1328 12.0043 29.7393 12.3978 29.2539 12.3978C28.7685 12.3978 28.375 12.0043 28.375 11.5189C28.375 11.0335 28.7685 10.64 29.2539 10.64C29.7393 10.64 30.1328 11.0335 30.1328 11.5189Z" fill="white"/>
<path d="M16.0703 11.5189C16.0703 12.0043 15.6768 12.3978 15.1914 12.3978C14.706 12.3978 14.3125 12.0043 14.3125 11.5189C14.3125 11.0335 14.706 10.64 15.1914 10.64C15.6768 10.64 16.0703 11.0335 16.0703 11.5189Z" fill="white"/>
<path d="M12.5547 11.5189C12.5547 12.0043 12.1612 12.3978 11.6758 12.3978C11.1904 12.3978 10.7969 12.0043 10.7969 11.5189C10.7969 11.0335 11.1904 10.64 11.6758 10.64C12.1612 10.64 12.5547 11.0335 12.5547 11.5189Z" fill="white"/>
<path d="M19.5859 18.5502C19.5859 19.0356 19.1924 19.4291 18.707 19.4291C18.2216 19.4291 17.8281 19.0356 17.8281 18.5502C17.8281 18.0648 18.2216 17.6713 18.707 17.6713C19.1924 17.6713 19.5859 18.0648 19.5859 18.5502Z" fill="white"/>
<path d="M23.1016 18.5502C23.1016 19.0356 22.708 19.4291 22.2227 19.4291C21.7373 19.4291 21.3438 19.0356 21.3438 18.5502C21.3438 18.0648 21.7373 17.6713 22.2227 17.6713C22.708 17.6713 23.1016 18.0648 23.1016 18.5502Z" fill="white"/>
<path d="M26.6172 18.5502C26.6172 19.0356 26.2237 19.4291 25.7383 19.4291C25.2529 19.4291 24.8594 19.0356 24.8594 18.5502C24.8594 18.0648 25.2529 17.6713 25.7383 17.6713C26.2237 17.6713 26.6172 18.0648 26.6172 18.5502Z" fill="white"/>
<path d="M30.1328 18.5502C30.1328 19.0356 29.7393 19.4291 29.2539 19.4291C28.7685 19.4291 28.375 19.0356 28.375 18.5502C28.375 18.0648 28.7685 17.6713 29.2539 17.6713C29.7393 17.6713 30.1328 18.0648 30.1328 18.5502Z" fill="white"/>
<path d="M16.0703 18.5502C16.0703 19.0356 15.6768 19.4291 15.1914 19.4291C14.706 19.4291 14.3125 19.0356 14.3125 18.5502C14.3125 18.0648 14.706 17.6713 15.1914 17.6713C15.6768 17.6713 16.0703 18.0648 16.0703 18.5502Z" fill="white"/>
<path d="M12.5547 18.5502C12.5547 19.0356 12.1612 19.4291 11.6758 19.4291C11.1904 19.4291 10.7969 19.0356 10.7969 18.5502C10.7969 18.0648 11.1904 17.6713 11.6758 17.6713C12.1612 17.6713 12.5547 18.0648 12.5547 18.5502Z" fill="white"/>
<path d="M19.5859 25.5814C19.5859 26.0668 19.1924 26.4603 18.707 26.4603C18.2216 26.4603 17.8281 26.0668 17.8281 25.5814C17.8281 25.096 18.2216 24.7025 18.707 24.7025C19.1924 24.7025 19.5859 25.096 19.5859 25.5814Z" fill="white"/>
<path d="M23.1016 25.5814C23.1016 26.0668 22.708 26.4603 22.2227 26.4603C21.7373 26.4603 21.3438 26.0668 21.3438 25.5814C21.3438 25.096 21.7373 24.7025 22.2227 24.7025C22.708 24.7025 23.1016 25.096 23.1016 25.5814Z" fill="white"/>
<path d="M26.6172 25.5814C26.6172 26.0668 26.2237 26.4603 25.7383 26.4603C25.2529 26.4603 24.8594 26.0668 24.8594 25.5814C24.8594 25.096 25.2529 24.7025 25.7383 24.7025C26.2237 24.7025 26.6172 25.096 26.6172 25.5814Z" fill="white"/>
<path d="M30.1328 25.5814C30.1328 26.0668 29.7393 26.4603 29.2539 26.4603C28.7685 26.4603 28.375 26.0668 28.375 25.5814C28.375 25.096 28.7685 24.7025 29.2539 24.7025C29.7393 24.7025 30.1328 25.096 30.1328 25.5814Z" fill="white"/>
<path d="M16.0703 25.5814C16.0703 26.0668 15.6768 26.4603 15.1914 26.4603C14.706 26.4603 14.3125 26.0668 14.3125 25.5814C14.3125 25.096 14.706 24.7025 15.1914 24.7025C15.6768 24.7025 16.0703 25.096 16.0703 25.5814Z" fill="white"/>
<path d="M12.5547 25.5814C12.5547 26.0668 12.1612 26.4603 11.6758 26.4603C11.1904 26.4603 10.7969 26.0668 10.7969 25.5814C10.7969 25.096 11.1904 24.7025 11.6758 24.7025C12.1612 24.7025 12.5547 25.096 12.5547 25.5814Z" fill="white"/>
<path d="M21.3438 15.0345C21.3438 15.5199 20.9502 15.9135 20.4648 15.9135C19.9795 15.9135 19.5859 15.5199 19.5859 15.0345C19.5859 14.5492 19.9795 14.1556 20.4648 14.1556C20.9502 14.1556 21.3438 14.5492 21.3438 15.0345Z" fill="white"/>
<path d="M24.8594 15.0345C24.8594 15.5199 24.4659 15.9135 23.9805 15.9135C23.4951 15.9135 23.1016 15.5199 23.1016 15.0345C23.1016 14.5492 23.4951 14.1556 23.9805 14.1556C24.4659 14.1556 24.8594 14.5492 24.8594 15.0345Z" fill="white"/>
<path d="M28.375 15.0345C28.375 15.5199 27.9815 15.9135 27.4961 15.9135C27.0107 15.9135 26.6172 15.5199 26.6172 15.0345C26.6172 14.5492 27.0107 14.1556 27.4961 14.1556C27.9815 14.1556 28.375 14.5492 28.375 15.0345Z" fill="white"/>
<path d="M17.8281 15.0345C17.8281 15.5199 17.4346 15.9135 16.9492 15.9135C16.4638 15.9135 16.0703 15.5199 16.0703 15.0345C16.0703 14.5492 16.4638 14.1556 16.9492 14.1556C17.4346 14.1556 17.8281 14.5492 17.8281 15.0345Z" fill="white"/>
<path d="M14.3125 15.0345C14.3125 15.5199 13.919 15.9135 13.4336 15.9135C12.9482 15.9135 12.5547 15.5199 12.5547 15.0345C12.5547 14.5492 12.9482 14.1556 13.4336 14.1556C13.919 14.1556 14.3125 14.5492 14.3125 15.0345Z" fill="white"/>
<path d="M21.3438 22.0658C21.3438 22.5512 20.9502 22.9447 20.4648 22.9447C19.9795 22.9447 19.5859 22.5512 19.5859 22.0658C19.5859 21.5804 19.9795 21.1869 20.4648 21.1869C20.9502 21.1869 21.3438 21.5804 21.3438 22.0658Z" fill="white"/>
<path d="M24.8594 22.0658C24.8594 22.5512 24.4659 22.9447 23.9805 22.9447C23.4951 22.9447 23.1016 22.5512 23.1016 22.0658C23.1016 21.5804 23.4951 21.1869 23.9805 21.1869C24.4659 21.1869 24.8594 21.5804 24.8594 22.0658Z" fill="white"/>
<path d="M28.375 22.0658C28.375 22.5512 27.9815 22.9447 27.4961 22.9447C27.0107 22.9447 26.6172 22.5512 26.6172 22.0658C26.6172 21.5804 27.0107 21.1869 27.4961 21.1869C27.9815 21.1869 28.375 21.5804 28.375 22.0658Z" fill="white"/>
<path d="M17.8281 22.0658C17.8281 22.5512 17.4346 22.9447 16.9492 22.9447C16.4638 22.9447 16.0703 22.5512 16.0703 22.0658C16.0703 21.5804 16.4638 21.1869 16.9492 21.1869C17.4346 21.1869 17.8281 21.5804 17.8281 22.0658Z" fill="white"/>
<path d="M14.3125 22.0658C14.3125 22.5512 13.919 22.9447 13.4336 22.9447C12.9482 22.9447 12.5547 22.5512 12.5547 22.0658C12.5547 21.5804 12.9482 21.1869 13.4336 21.1869C13.919 21.1869 14.3125 21.5804 14.3125 22.0658Z" fill="white"/>
<path fill-rule="evenodd" clip-rule="evenodd" d="M46.9492 44.5658C46.9492 45.0512 47.3427 45.4447 47.8281 45.4447H59.3711C59.8565 45.4447 60.25 45.0512 60.25 44.5658C60.25 44.0804 59.8565 43.6869 59.3711 43.6869H47.8281C47.3427 43.6869 46.9492 44.0804 46.9492 44.5658Z" fill="white"/>
<path fill-rule="evenodd" clip-rule="evenodd" d="M46.9492 48.7845C46.9492 49.27 47.3427 49.6635 47.8281 49.6635H59.3711C59.8565 49.6635 60.25 49.27 60.25 48.7845C60.25 48.2991 59.8565 47.9056 59.3711 47.9056H47.8281C47.3427 47.9056 46.9492 48.2991 46.9492 48.7845Z" fill="white"/>
<path fill-rule="evenodd" clip-rule="evenodd" d="M46.9492 36.1283C46.9492 36.6137 47.3427 37.0072 47.8281 37.0072H59.3711C59.8565 37.0072 60.25 36.6137 60.25 36.1283C60.25 35.6429 59.8565 35.2494 59.3711 35.2494H47.8281C47.3427 35.2494 46.9492 35.6429 46.9492 36.1283Z" fill="white"/>
<path fill-rule="evenodd" clip-rule="evenodd" d="M46.9492 40.347C46.9492 40.8325 47.3427 41.226 47.8281 41.226H59.3711C59.8565 41.226 60.25 40.8325 60.25 40.347C60.25 39.8616 59.8565 39.4681 59.3711 39.4681H47.8281C47.3427 39.4681 46.9492 39.8616 46.9492 40.347Z" fill="white"/>
<path fill-rule="evenodd" clip-rule="evenodd" d="M46.9492 27.6908C46.9492 28.1762 47.3427 28.5697 47.8281 28.5697H59.3711C59.8565 28.5697 60.25 28.1762 60.25 27.6908C60.25 27.2054 59.8565 26.8119 59.3711 26.8119H47.8281C47.3427 26.8119 46.9492 27.2054 46.9492 27.6908Z" fill="white"/>
<path fill-rule="evenodd" clip-rule="evenodd" d="M46.9492 31.9095C46.9492 32.395 47.3427 32.7885 47.8281 32.7885H59.3711C59.8565 32.7885 60.25 32.395 60.25 31.9095C60.25 31.4241 59.8565 31.0306 59.3711 31.0306H47.8281C47.3427 31.0306 46.9492 31.4241 46.9492 31.9095Z" fill="white"/>
<path fill-rule="evenodd" clip-rule="evenodd" d="M46.9492 19.2533C46.9492 19.7387 47.3427 20.1322 47.8281 20.1322H59.3711C59.8565 20.1322 60.25 19.7387 60.25 19.2533C60.25 18.7679 59.8565 18.3744 59.3711 18.3744H47.8281C47.3427 18.3744 46.9492 18.7679 46.9492 19.2533Z" fill="white"/>
<path fill-rule="evenodd" clip-rule="evenodd" d="M46.9492 23.472C46.9492 23.9575 47.3427 24.351 47.8281 24.351H59.3711C59.8565 24.351 60.25 23.9575 60.25 23.472C60.25 22.9866 59.8565 22.5931 59.3711 22.5931H47.8281C47.3427 22.5931 46.9492 22.9866 46.9492 23.472Z" fill="white"/>
<path fill-rule="evenodd" clip-rule="evenodd" d="M32.7695 29.976C33.2549 29.976 33.6484 29.5825 33.6484 29.097V8.00329C33.6484 7.51789 33.2549 7.12439 32.7695 7.12439C32.2841 7.12439 31.8906 7.51789 31.8906 8.00329V29.097C31.8906 29.5825 32.2841 29.976 32.7695 29.976Z" fill="white"/>
<path fill-rule="evenodd" clip-rule="evenodd" d="M39.918 53.0033C39.918 53.4887 40.3115 53.8822 40.7969 53.8822H59.3711C59.8565 53.8822 60.25 53.4887 60.25 53.0033V15.0345C60.25 14.5491 59.8565 14.1556 59.3711 14.1556H47.8281C47.3427 14.1556 46.9492 14.5491 46.9492 15.0345C46.9492 15.5199 47.3427 15.9134 47.8281 15.9134H58.4922V52.1244H40.7969C40.3115 52.1244 39.918 52.5179 39.918 53.0033Z" fill="white"/>
<path fill-rule="evenodd" clip-rule="evenodd" d="M44.3125 50.3666C44.7979 50.3666 45.1914 49.9731 45.1914 49.4877V11.5189C45.1914 9.09991 43.2159 7.12439 40.7969 7.12439H8.16016C7.67475 7.12439 7.28125 7.51788 7.28125 8.00329C7.28125 8.4887 7.67475 8.8822 8.16016 8.8822H40.7969C42.2451 8.8822 43.4336 10.0707 43.4336 11.5189V49.4877C43.4336 49.9731 43.8271 50.3666 44.3125 50.3666Z" fill="white"/>
<path fill-rule="evenodd" clip-rule="evenodd" d="M40.7969 52.1244C39.3407 52.1244 38.1602 50.9439 38.1602 49.4877V46.851H40.7969C42.253 46.851 43.4336 48.0315 43.4336 49.4877C43.4336 50.9439 42.2531 52.1244 40.7969 52.1244ZM40.7969 45.0931C43.2238 45.0931 45.1914 47.0607 45.1914 49.4877C45.1914 51.9148 43.2238 53.8822 40.7969 53.8822C38.3699 53.8822 36.4023 51.9148 36.4023 49.4877V46.851H8.16016C7.67475 46.851 7.28125 46.4575 7.28125 45.972C7.28125 45.4866 7.67475 45.0931 8.16016 45.0931H40.7969Z" fill="white"/>
<path fill-rule="evenodd" clip-rule="evenodd" d="M44.3125 46.1478C44.7979 46.1478 45.1914 45.7543 45.1914 45.2689C45.1914 42.842 43.2238 40.8744 40.7969 40.8744H8.16016C7.67475 40.8744 7.28125 41.2679 7.28125 41.7533C7.28125 42.2387 7.67475 42.6322 8.16016 42.6322H40.7969C42.253 42.6322 43.4336 43.8128 43.4336 45.2689C43.4336 45.7543 43.8271 46.1478 44.3125 46.1478Z" fill="white"/>
<path fill-rule="evenodd" clip-rule="evenodd" d="M44.3125 41.9291C44.7979 41.9291 45.1914 41.5356 45.1914 41.0502C45.1914 38.6232 43.2238 36.6556 40.7969 36.6556H8.16016C7.67475 36.6556 7.28125 37.0491 7.28125 37.5345C7.28125 38.02 7.67475 38.4135 8.16016 38.4135H40.7969C42.253 38.4135 43.4336 39.594 43.4336 41.0502C43.4336 41.5356 43.8271 41.9291 44.3125 41.9291Z" fill="white"/>
<path fill-rule="evenodd" clip-rule="evenodd" d="M44.3125 37.7103C44.7979 37.7103 45.1914 37.3168 45.1914 36.8314C45.1914 34.4045 43.2238 32.4369 40.7969 32.4369H8.16016C7.67475 32.4369 7.28125 32.8304 7.28125 33.3158C7.28125 33.8012 7.67475 34.1947 8.16016 34.1947H40.7969C42.253 34.1947 43.4336 35.3753 43.4336 36.8314C43.4336 37.3168 43.8271 37.7103 44.3125 37.7103Z" fill="white"/>
<path fill-rule="evenodd" clip-rule="evenodd" d="M3.76562 49.4877C3.76562 49.9731 4.15912 50.3666 4.64453 50.3666C7.0715 50.3666 9.03906 48.399 9.03906 45.972V8.00329C9.03906 5.57632 7.0715 3.60876 4.64453 3.60876C4.15912 3.60876 3.76562 4.00226 3.76562 4.48767C3.76562 4.97307 4.15912 5.36657 4.64453 5.36657C6.10069 5.36657 7.28125 6.54713 7.28125 8.00329V45.972C7.28125 47.4282 6.10069 48.6088 4.64453 48.6088C4.15912 48.6088 3.76562 49.0023 3.76562 49.4877Z" fill="white"/>
<path fill-rule="evenodd" clip-rule="evenodd" d="M44.3125 33.4916C44.7979 33.4916 45.1914 33.0981 45.1914 32.6127C45.1914 30.1857 43.2238 28.2181 40.7969 28.2181H8.16016C7.67475 28.2181 7.28125 28.6116 7.28125 29.097C7.28125 29.5825 7.67475 29.976 8.16016 29.976H40.7969C42.253 29.976 43.4336 31.1565 43.4336 32.6127C43.4336 33.0981 43.8271 33.4916 44.3125 33.4916Z" fill="white"/>
<path fill-rule="evenodd" clip-rule="evenodd" d="M44.3125 29.2728C44.7979 29.2728 45.1914 28.8793 45.1914 28.3939C45.1914 25.967 43.2238 23.9994 40.7969 23.9994H32.7695C32.2841 23.9994 31.8906 24.3929 31.8906 24.8783C31.8906 25.3637 32.2841 25.7572 32.7695 25.7572H40.7969C42.253 25.7572 43.4336 26.9378 43.4336 28.3939C43.4336 28.8793 43.8271 29.2728 44.3125 29.2728Z" fill="white"/>
<path fill-rule="evenodd" clip-rule="evenodd" d="M44.3125 25.0541C44.7979 25.0541 45.1914 24.6606 45.1914 24.1752C45.1914 21.7482 43.2238 19.7806 40.7969 19.7806H32.7695C32.2841 19.7806 31.8906 20.1741 31.8906 20.6595C31.8906 21.145 32.2841 21.5385 32.7695 21.5385H40.7969C42.253 21.5385 43.4336 22.719 43.4336 24.1752C43.4336 24.6606 43.8271 25.0541 44.3125 25.0541Z" fill="white"/>
<path fill-rule="evenodd" clip-rule="evenodd" d="M44.3125 20.8353C44.7979 20.8353 45.1914 20.4418 45.1914 19.9564C45.1914 17.5295 43.2238 15.5619 40.7969 15.5619H32.7695C32.2841 15.5619 31.8906 15.9554 31.8906 16.4408C31.8906 16.9262 32.2841 17.3197 32.7695 17.3197H40.7969C42.253 17.3197 43.4336 18.5003 43.4336 19.9564C43.4336 20.4418 43.8271 20.8353 44.3125 20.8353Z" fill="white"/>
<path fill-rule="evenodd" clip-rule="evenodd" d="M44.3125 16.6166C44.7979 16.6166 45.1914 16.2231 45.1914 15.7377C45.1914 13.3107 43.2238 11.3431 40.7969 11.3431H32.7695C32.2841 11.3431 31.8906 11.7366 31.8906 12.222C31.8906 12.7075 32.2841 13.101 32.7695 13.101H40.7969C42.253 13.101 43.4336 14.2815 43.4336 15.7377C43.4336 16.2231 43.8271 16.6166 44.3125 16.6166Z" fill="white"/>
<path fill-rule="evenodd" clip-rule="evenodd" d="M0.25 59.2142C0.25 59.6996 0.6435 60.0931 1.12891 60.0931H4.64453C5.12994 60.0931 5.52344 59.6996 5.52344 59.2142V2.72986C5.52344 1.27367 4.34291 0.0931396 2.88672 0.0931396C1.43053 0.0931396 0.25 1.27367 0.25 2.72986V59.2142ZM2.00781 58.3353V2.72986C2.00781 2.24448 2.40134 1.85095 2.88672 1.85095C3.37209 1.85095 3.76563 2.24448 3.76563 2.72986V58.3353H2.00781Z" fill="white"/>
</g>
</svg>
