<svg width="60" height="61" viewBox="0 0 60 61" fill="none" xmlns="http://www.w3.org/2000/svg">
<path d="M50.2456 41.662C48.0233 41.662 45.9822 42.4534 44.3893 43.7693L41.9833 41.338C44.4264 38.6222 45.9808 35.0917 46.1859 31.2088H48.5645C48.9853 33.7606 51.2049 35.7136 53.8732 35.7136C56.8406 35.7136 59.2548 33.2985 59.2548 30.3299C59.2548 27.3631 56.8406 24.9494 53.8732 24.9494C51.2052 24.9494 48.9855 26.901 48.5646 29.451H46.186C46.1316 28.4137 45.9823 27.3885 45.7377 26.3927C45.6219 25.9214 45.1452 25.6332 44.6744 25.749C44.2031 25.8649 43.9149 26.3409 44.0307 26.8122C44.3108 27.9513 44.4527 29.1348 44.4527 30.3299C44.4527 34.5357 42.6796 38.3346 39.8429 41.0185C39.4691 37.5706 36.5012 36.7741 34.2954 36.1827C34.1485 36.1433 34.0026 36.1042 33.8548 36.0637C33.6829 36.0173 33.5423 35.7848 33.4334 35.5432C35.6252 34.0408 37.254 31.481 37.254 29.2453V27.2199C37.254 24.702 36.4497 22.5641 34.9278 21.0371C33.5661 19.6706 31.7323 18.8999 29.7648 18.8669C29.7548 18.8668 29.7448 18.8668 29.7346 18.8669C28.661 18.8857 27.5899 19.134 26.6375 19.5852C26.1989 19.7929 26.0117 20.317 26.2195 20.7558C26.4273 21.1945 26.9516 21.3815 27.3901 21.1738C28.1138 20.831 28.9297 20.6413 29.7502 20.6249C32.2786 20.6737 34.9776 22.4142 35.4301 26.106C35.08 25.9391 34.8497 25.7039 34.5995 25.4485C34.1026 24.9416 33.4221 24.2474 32.0217 24.6082C31.6783 24.6968 31.3865 24.7749 31.1339 24.8427C30.4056 25.0378 30.04 25.1356 29.75 25.1356C29.46 25.1356 29.0945 25.0378 28.3661 24.8427C28.1135 24.7749 27.8217 24.6968 27.478 24.6082C26.0773 24.2471 25.3972 24.9417 24.9005 25.4485C24.65 25.7042 24.4194 25.9397 24.0684 26.1067C24.196 25.0442 24.5124 24.1027 25.0139 23.2973C25.2703 22.8853 25.1443 22.3432 24.7323 22.0867C24.3202 21.8301 23.7782 21.9561 23.5216 22.3683C22.6752 23.7277 22.246 25.3601 22.246 27.2199V29.2453C22.246 31.4812 23.8754 34.0415 26.0663 35.5434C25.9572 35.7851 25.8159 36.0177 25.6419 36.0647C25.4975 36.1042 25.3515 36.1433 25.2048 36.1827C22.9989 36.7741 20.0311 37.5706 19.6572 41.0185C16.8204 38.3346 15.0474 34.5357 15.0474 30.3299C15.0474 22.2188 21.6429 15.62 29.7499 15.62C34.942 15.62 39.8038 18.4066 42.4379 22.8923C42.4401 22.8958 42.4421 22.8994 42.4442 22.9029C42.4904 22.9789 42.5345 23.0587 42.5784 23.1377L42.618 23.209C42.8547 23.6328 43.3903 23.7847 43.8139 23.5477C44.2377 23.311 44.3893 22.7757 44.1527 22.3519L44.1153 22.2846C44.0616 22.1878 44.0073 22.0903 43.9509 21.997C43.3877 21.0388 42.7279 20.1427 41.9878 19.3203L44.4378 16.8446C45.9364 17.9011 47.7611 18.524 49.7296 18.524C51.9607 18.524 54.0086 17.726 55.6044 16.4008C55.6553 16.3654 55.7021 16.3245 55.7444 16.2794C57.7 14.5883 58.9412 12.0914 58.9412 9.30853C58.9413 4.22716 54.8089 0.0931396 49.7296 0.0931396C44.6504 0.0931396 40.5181 4.22716 40.5181 9.30865C40.5181 11.7875 41.5033 14.0393 43.1004 15.6972L40.7444 18.0779C39.917 17.3342 39.0154 16.6718 38.051 16.1073C35.7942 14.7862 33.2449 14.0276 30.629 13.8879V11.5063C33.1797 11.0852 35.1317 8.86462 35.1317 6.19556C35.1317 3.22884 32.7175 0.815132 29.7501 0.815132C26.7827 0.815132 24.3685 3.22884 24.3685 6.19556C24.3685 8.86462 26.3205 11.0852 28.8712 11.5063V13.8859C24.9937 14.091 21.4685 15.6456 18.7552 18.0866L16.3839 15.7141C17.9905 14.0545 18.9822 11.7958 18.9822 9.30865C18.9821 4.22716 14.8498 0.0931396 9.77059 0.0931396C4.69133 0.0931396 0.558945 4.22716 0.558945 9.30865C0.558945 12.0916 1.80008 14.5884 3.7557 16.2795C3.79801 16.3247 3.84477 16.3656 3.89574 16.401C5.49148 17.7261 7.53945 18.5242 9.77047 18.5242C11.7303 18.5242 13.5478 17.9067 15.0426 16.8588L17.5122 19.3296C15.0719 22.044 13.5188 25.5716 13.3137 29.4511H10.9357C10.5146 26.9011 8.29508 24.9495 5.62707 24.9495C2.65965 24.9495 0.245469 27.3633 0.245469 30.33C0.245469 33.2986 2.65965 35.7137 5.62707 35.7137C8.29531 35.7137 10.515 33.7608 10.9358 31.2089H13.3133C13.5181 35.0894 15.0726 38.6171 17.513 41.3322L15.1126 43.7317C13.5193 42.4149 11.4777 41.6229 9.25449 41.6229C4.17523 41.6229 0.0429688 45.7569 0.0429688 50.8384C0.0429688 55.9199 4.17535 60.054 9.25449 60.054C14.3336 60.054 18.466 55.9199 18.466 50.8384C18.466 48.6127 17.6731 46.569 16.3554 44.9747L18.7555 42.5755C18.9665 42.7654 19.1823 42.9504 19.4026 43.1295C19.6126 43.3004 19.8293 43.5064 20.065 43.6395C22.5628 45.4644 25.5909 46.6032 28.8709 46.7769V49.157C26.3202 49.5778 24.3682 51.797 24.3682 54.4645C24.3682 57.4331 26.7823 59.8482 29.7498 59.8482C32.7172 59.8482 35.1314 57.4331 35.1314 54.4645C35.1314 51.7971 33.1794 49.5778 30.6287 49.157V46.7769C33.9084 46.6032 36.9363 45.4645 39.4339 43.6399C39.4937 43.6061 39.5489 43.5654 39.5989 43.5191C39.9934 43.2234 40.3735 42.9098 40.7396 42.5808L43.1457 45.0122C41.8271 46.6068 41.0336 48.6512 41.0336 50.8776C41.0336 53.654 42.269 56.1456 44.2166 57.8366C44.2671 57.8929 44.3243 57.9431 44.3878 57.9849C45.9809 59.3014 48.0223 60.0931 50.2453 60.0931C52.4682 60.0931 54.5096 59.3013 56.1028 57.9849C56.1662 57.9431 56.2235 57.8929 56.274 57.8366C58.2216 56.1456 59.4569 53.654 59.4569 50.8776C59.4571 45.7961 55.3248 41.662 50.2456 41.662ZM53.8732 26.7074C55.8713 26.7074 57.497 28.3325 57.497 30.33C57.497 32.3293 55.8713 33.9559 53.8732 33.9559C51.875 33.9559 50.2494 32.3293 50.2494 30.33C50.2494 28.3325 51.875 26.7074 53.8732 26.7074ZM49.7296 16.7665C48.052 16.7665 46.5023 16.2086 45.2552 15.2692C45.3883 13.8323 46.2138 12.5394 47.4623 11.8035C48.1248 12.2041 48.9007 12.4351 49.7296 12.4351C50.5586 12.4351 51.3345 12.2041 51.997 11.8035C53.2455 12.5394 54.071 13.8323 54.2041 15.2692C52.957 16.2086 51.4073 16.7665 49.7296 16.7665ZM47.0919 8.03787C47.0919 6.58263 48.2752 5.39857 49.7296 5.39857C51.1841 5.39857 52.3673 6.58263 52.3673 8.03787C52.3673 9.49322 51.1841 10.6772 49.7296 10.6772C48.2752 10.6772 47.0919 9.49322 47.0919 8.03787ZM42.2759 9.30865C42.2759 5.19642 45.6197 1.85095 49.7296 1.85095C53.8396 1.85095 57.1834 5.19642 57.1834 9.30865C57.1834 10.9877 56.6255 12.5386 55.6861 13.7864C55.2723 12.4942 54.4427 11.3594 53.3213 10.5677C53.8269 9.8517 54.1251 8.97923 54.1251 8.03787C54.1251 5.61337 52.1533 3.64076 49.7296 3.64076C47.3059 3.64076 45.3341 5.61337 45.3341 8.03787C45.3341 8.97923 45.6323 9.8517 46.1379 10.5678C45.0165 11.3595 44.187 12.4942 43.7731 13.7864C42.8338 12.5386 42.2759 10.9877 42.2759 9.30865ZM26.1263 6.19556C26.1263 4.1981 27.752 2.57294 29.7501 2.57294C31.7483 2.57294 33.3739 4.1981 33.3739 6.19556C33.3739 8.1949 31.7483 9.82146 29.7501 9.82146C27.752 9.82146 26.1263 8.1949 26.1263 6.19556ZM9.77059 16.7665C8.09293 16.7665 6.54324 16.2086 5.29613 15.2692C5.42926 13.8323 6.25473 12.5394 7.50324 11.8035C8.1657 12.2041 8.9416 12.4351 9.77059 12.4351C10.5996 12.4351 11.3755 12.2041 12.0379 11.8035C13.2863 12.5394 14.1119 13.8323 14.245 15.2692C12.9979 16.2086 11.4482 16.7665 9.77059 16.7665ZM7.13293 8.03787C7.13293 6.58263 8.31617 5.39857 9.77059 5.39857C11.225 5.39857 12.4084 6.58263 12.4084 8.03787C12.4084 9.49322 11.225 10.6772 9.77059 10.6772C8.31617 10.6772 7.13293 9.49322 7.13293 8.03787ZM13.3624 10.5678C13.8679 9.8517 14.1662 8.97923 14.1662 8.03787C14.1662 5.61337 12.1944 3.64076 9.77059 3.64076C7.34691 3.64076 5.37512 5.61337 5.37512 8.03787C5.37512 8.97923 5.67336 9.8517 6.17879 10.5678C5.05742 11.3595 4.22785 12.4942 3.81406 13.7865C2.87457 12.5387 2.31676 10.9877 2.31676 9.30876C2.31676 5.19642 5.66059 1.85095 9.77059 1.85095C13.8806 1.85095 17.2243 5.19642 17.2243 9.30865C17.2243 10.9877 16.6665 12.5386 15.727 13.7864C15.3132 12.4942 14.4837 11.3595 13.3624 10.5678ZM5.62707 33.9559C3.62891 33.9559 2.00328 32.3293 2.00328 30.33C2.00328 28.3325 3.62891 26.7074 5.62707 26.7074C7.62523 26.7074 9.25086 28.3325 9.25086 30.33C9.25086 32.3293 7.62523 33.9559 5.62707 33.9559ZM9.25461 58.2962C7.57695 58.2962 6.02715 57.7384 4.78016 56.7989C4.91316 55.3609 5.73816 54.0677 6.98621 53.3326C7.64891 53.7336 8.42516 53.9648 9.25461 53.9648C10.0834 53.9648 10.8591 53.734 11.5215 53.3334C12.7704 54.0692 13.5959 55.3619 13.7291 56.7988C12.4821 57.7383 10.9324 58.2962 9.25461 58.2962ZM6.61707 49.5676C6.61707 48.1124 7.80031 46.9283 9.25473 46.9283C10.7091 46.9283 11.8925 48.1124 11.8925 49.5676C11.8925 51.0229 10.7091 52.2069 9.25473 52.2069C7.80031 52.2069 6.61707 51.0229 6.61707 49.5676ZM15.2111 55.3161C14.7973 54.0238 13.9691 52.8877 12.8473 52.0963C13.3523 51.3804 13.6502 50.5084 13.6502 49.5676C13.6502 47.1431 11.6784 45.1705 9.25461 45.1705C6.83094 45.1705 4.85914 47.1431 4.85914 49.5676C4.85914 50.5078 5.15656 51.3793 5.66094 52.0949C4.53945 52.8862 3.71141 54.0226 3.29773 55.3158C2.35859 54.0679 1.8009 52.5172 1.8009 50.8384C1.8009 46.7261 5.14461 43.3807 9.25461 43.3807C13.3646 43.3807 16.7083 46.7261 16.7083 50.8384C16.7084 52.5174 16.1506 54.0683 15.2111 55.3161ZM24.0041 29.2454V27.975C25.1463 27.7073 25.7396 27.104 26.1563 26.6788C26.5693 26.2572 26.6223 26.2029 27.0392 26.3102C27.3765 26.3973 27.6632 26.474 27.9114 26.5406C28.7608 26.7681 29.2288 26.8935 29.75 26.8935C30.2712 26.8935 30.7392 26.7682 31.5886 26.5406C31.8368 26.474 32.1235 26.3973 32.4604 26.3103C32.8771 26.2031 32.9306 26.257 33.3437 26.6788C33.7604 27.104 34.3537 27.7073 35.4959 27.975V29.2454C35.4959 31.2995 33.4023 33.946 31.1011 34.7987C30.1032 35.1713 29.3961 35.1711 28.3965 34.7979C26.0977 33.946 24.0041 31.2995 24.0041 29.2454ZM32.6956 37.4175L30.2035 38.8786C30.1918 38.8854 30.1804 38.8924 30.1691 38.8998C29.7618 39.1644 29.7383 39.1644 29.3312 38.8998C29.3198 38.8924 29.3084 38.8854 29.2967 38.8786L26.8041 37.4171C27.1878 37.1283 27.4413 36.7356 27.6153 36.3787C27.6714 36.4012 27.7273 36.4244 27.7838 36.4453C28.4825 36.7063 29.1165 36.8366 29.7505 36.8366C30.3839 36.8366 31.0173 36.7064 31.7141 36.4461C31.7713 36.4249 31.8279 36.4015 31.8847 36.3787C32.0588 36.7359 32.3123 37.1288 32.6956 37.4175ZM33.3739 54.4644C33.3739 56.4637 31.7483 58.0903 29.7501 58.0903C27.752 58.0903 26.1263 56.4637 26.1263 54.4644C26.1263 52.4669 27.752 50.8418 29.7501 50.8418C31.7483 50.8418 33.3739 52.4669 33.3739 54.4644ZM38.1247 42.4159C35.7467 44.0711 32.8599 45.0431 29.7501 45.0431C26.6403 45.0431 23.7535 44.071 21.3755 42.4159V41.7701C21.3755 39.5655 22.5805 38.8024 24.6221 38.1754L28.3911 40.3852C28.8792 40.6995 29.3146 40.8567 29.7501 40.8567C30.1856 40.8567 30.6211 40.6995 31.1091 40.3852L34.8781 38.1754C36.9198 38.8024 38.1247 39.5655 38.1247 41.7701V42.4159ZM50.2456 58.3353C48.5681 58.3353 47.0185 57.7776 45.7715 56.8383C45.9054 55.4008 46.7306 54.1081 47.9788 53.3727C48.6411 53.7731 49.4169 54.004 50.2456 54.004C51.075 54.004 51.8513 53.7728 52.514 53.3717C53.7614 54.1066 54.5861 55.3997 54.7198 56.8383C53.4727 57.7776 51.9232 58.3353 50.2456 58.3353ZM47.6078 49.6068C47.6078 48.1515 48.7912 46.9676 50.2456 46.9676C51.7 46.9676 52.8833 48.1516 52.8833 49.6068C52.8833 51.0621 51.7 52.2461 50.2456 52.2461C48.7912 52.2461 47.6078 51.0622 47.6078 49.6068ZM56.2019 55.3555C55.7881 54.062 54.9603 52.9254 53.8392 52.1341C54.3436 51.4186 54.6411 50.547 54.6411 49.6068C54.6411 47.1822 52.6693 45.2097 50.2456 45.2097C47.8218 45.2097 45.85 47.1824 45.85 49.6068C45.85 50.5476 46.1479 51.4196 46.6529 52.1355C45.5315 52.9271 44.7035 54.0633 44.2896 55.3559C43.3498 54.108 42.7919 52.5569 42.7919 50.8776C42.7919 46.7654 46.1356 43.4198 50.2456 43.4198C54.3556 43.4198 57.6993 46.7654 57.6993 50.8776C57.6993 52.5567 57.1414 54.1077 56.2019 55.3555Z" fill="white"/>
</svg>
