<svg width="60" height="60" viewBox="0 0 60 60" fill="none" xmlns="http://www.w3.org/2000/svg">
<path d="M12.8708 58.1494L11.1065 55.6643C10.732 55.1365 10.0004 55.0124 9.4726 55.3871C8.94491 55.7617 8.82069 56.4932 9.19546 57.021L10.9597 59.5062C11.1882 59.8281 11.5494 59.9998 11.9163 59.9998C12.1509 59.9998 12.3877 59.9295 12.5936 59.7833C13.1213 59.4087 13.2456 58.6772 12.8708 58.1494Z" fill="white"/>
<path d="M26.3911 58.5871L24.4711 49.4362C23.5375 44.9864 20.9453 41.1387 17.1723 38.6017L13.073 35.8452C11.4292 34.7402 9.21981 34.9778 7.84591 36.3788V22.2582C7.84591 20.4048 6.58228 18.83 4.77291 18.4284C3.60514 18.169 2.40069 18.45 1.46777 19.1985C0.534959 19.9469 0 21.0622 0 22.2582V40.4283C0 42.8087 0.728435 45.093 2.10644 47.0342L4.19623 49.9781C4.42475 50.3 4.78592 50.4717 5.15283 50.4717C5.38744 50.4717 5.62427 50.4014 5.83017 50.2552C6.35786 49.8806 6.48208 49.1491 6.10732 48.6213L4.01752 45.6775C2.92253 44.1349 2.34374 42.3198 2.34374 40.4282V22.2582C2.34374 21.7768 2.55913 21.3279 2.9346 21.0265C3.30995 20.7252 3.79475 20.6121 4.26514 20.7165C4.99346 20.8781 5.50216 21.5121 5.50216 22.2582V36.6741C5.50216 38.7148 6.25193 40.659 7.61399 42.1717C7.67235 42.2417 7.73235 42.3109 7.79575 42.3781C8.57399 43.2027 9.48899 44.1744 10.3508 45.0904L11.5572 46.3744C11.5611 46.3785 11.5653 46.382 11.5693 46.386C12.6014 47.4837 13.3625 48.2942 13.3784 48.3111C13.8213 48.7828 14.5631 48.8062 15.0349 48.3631C15.5067 47.9201 15.53 47.1785 15.0868 46.7067C15.0654 46.684 13.6937 45.2232 12.1271 43.5581L9.44012 40.6984C9.43332 40.6912 9.42711 40.6835 9.42031 40.6763C8.79032 39.9228 8.79817 38.8302 9.45852 38.0847C10.0427 37.4254 11.0346 37.2988 11.7655 37.7902L15.8645 40.5467C19.128 42.741 21.3699 46.0689 22.1773 49.9175L24.0974 59.0685C24.2133 59.6208 24.7004 59.9999 25.2431 59.9999C25.3228 59.9999 25.4038 59.9917 25.4849 59.9747C26.1183 59.8419 26.524 59.2205 26.3911 58.5871Z" fill="white"/>
<path d="M8.68221 52.2488L8.67471 52.2383C8.29854 51.7114 7.56683 51.5891 7.04007 51.965C6.51331 52.3409 6.39097 53.0728 6.76679 53.5995L6.77429 53.6101C7.00304 53.9306 7.36339 54.1014 7.72925 54.1014C7.96479 54.1014 8.20257 54.0306 8.40893 53.8833C8.93557 53.5074 9.05803 52.7756 8.68221 52.2488Z" fill="white"/>
<path d="M58.532 19.1986C57.5992 18.4502 56.3942 18.1696 55.227 18.4286C53.4176 18.8301 52.1539 20.405 52.1539 22.2584V36.379C50.7801 34.978 48.5704 34.7403 46.9268 35.8454L42.8275 38.6018C39.0544 41.1386 36.4623 44.9865 35.5287 49.4363L33.6087 58.5873C33.4758 59.2207 33.8815 59.8419 34.5149 59.9748C34.596 59.9918 34.6771 60 34.7567 60C35.2995 60 35.7865 59.6208 35.9024 59.0685L37.8224 49.9175C38.6299 46.0689 40.8717 42.7409 44.1351 40.5467L48.2345 37.7904C48.9651 37.2989 49.957 37.4254 50.5414 38.0847C51.2009 38.8293 51.2097 39.9201 50.5821 40.6736C50.5746 40.6818 50.5674 40.6903 50.5599 40.6985C50.5599 40.6985 44.9344 46.6843 44.9131 46.7068C44.4701 47.1786 44.4934 47.9201 44.9651 48.3632C45.4369 48.8063 46.1784 48.783 46.6215 48.3112C46.6374 48.2943 51.4259 43.2029 52.2042 42.3782C52.2676 42.3111 52.3276 42.2418 52.3859 42.1719C53.7479 40.6592 54.4978 38.715 54.4978 36.6743V22.2583C54.4978 21.5121 55.0065 20.8782 55.7349 20.7166C56.2052 20.6123 56.6899 20.7254 57.0654 21.0265C57.4409 21.3278 57.6563 21.7768 57.6563 22.2583V40.4284C57.6563 42.32 57.0775 44.1351 55.9825 45.6776L47.1289 58.1495C46.7543 58.6772 46.8784 59.4088 47.4061 59.7834C47.6121 59.9296 47.8488 59.9999 48.0834 59.9999C48.4502 59.9999 48.8115 59.8281 49.04 59.5063L57.8936 47.0344C59.2716 45.0932 60 42.8089 60 40.4285V22.2583C59.9997 21.0623 59.4648 19.9471 58.532 19.1986Z" fill="white"/>
<path d="M44.8423 22.4601L42.7574 21.962V21.5882C44.1125 20.639 45.001 19.0672 45.001 17.2909V14.5804C45.001 11.6884 42.6482 9.33561 39.7562 9.33561C38.4583 9.33561 37.27 9.81045 36.3533 10.5942C35.3326 8.0946 32.8766 6.32812 30.0144 6.32812C27.1487 6.32812 24.6901 8.09917 23.6718 10.6036C22.7536 9.8142 21.561 9.33538 20.2579 9.33538C17.3658 9.33538 15.013 11.6881 15.013 14.5802V14.7603V17.2906C15.013 19.0669 15.9016 20.6388 17.2566 21.588V21.9618L15.1717 22.4599C12.6824 23.0546 10.9438 25.2573 10.9438 27.8167V30.0053C10.9438 30.6525 11.4686 31.1772 12.1157 31.1772H17.5007C17.4924 31.3193 17.4866 31.4622 17.4866 31.6062V35.82C17.4866 36.4672 18.0114 36.9919 18.6585 36.9919H25.7026C26.3497 36.9919 26.8745 36.4672 26.8745 35.82C26.8745 35.1728 26.3497 34.6481 25.7026 34.6481H24.4918V32.2265C24.4918 31.5792 23.9671 31.0546 23.32 31.0546C22.6729 31.0546 22.1481 31.5792 22.1481 32.2265V34.6484H19.8305V31.6064C19.8305 29.3462 21.3656 27.3999 23.5634 26.8732L26.7792 26.1026L28.9314 30.9989C29.1184 31.4244 29.5393 31.6992 30.004 31.6992C30.4687 31.6992 30.8898 31.4245 31.0768 30.999L33.2267 26.11L36.4324 26.8758C38.6322 27.4014 40.1686 29.348 40.1686 31.6098V34.6484H37.851V32.2265C37.851 31.5792 37.3263 31.0546 36.6792 31.0546C36.0321 31.0546 35.5073 31.5792 35.5073 32.2265V34.6484H34.1792C33.5321 34.6484 33.0073 35.173 33.0073 35.8202C33.0073 36.4675 33.5321 36.9921 34.1792 36.9921H41.3406C41.9877 36.9921 42.5125 36.4675 42.5125 35.8202V31.6098C42.5125 31.4646 42.5066 31.3207 42.4982 31.1774H47.8984C48.5455 31.1774 49.0703 30.6528 49.0703 30.0055V27.8169C49.0703 25.2576 47.3317 23.0547 44.8423 22.4601ZM39.7562 11.6791C41.2915 11.6791 42.552 12.8781 42.6509 14.3888H41.0217C39.652 14.3888 38.3041 14.0591 37.0925 13.4312C37.5382 12.4013 38.5645 11.6791 39.7562 11.6791ZM36.8551 17.1195C36.8565 17.0625 36.8594 17.0056 36.8594 16.9482V15.9045C38.1744 16.4487 39.5885 16.7326 41.0217 16.7326H42.6572V17.2907C42.6572 18.8903 41.3559 20.1918 39.7562 20.1918C38.1564 20.1918 36.8551 18.8903 36.8551 17.2906V17.1195ZM25.5132 13.173C25.5132 10.6911 27.5324 8.67187 30.0144 8.67187C32.253 8.67187 34.115 10.3146 34.4588 12.4577L32.486 11.2986C31.9925 11.0087 31.3618 11.1176 30.9942 11.5564C30.0301 12.707 28.6162 13.3668 27.1151 13.3668H25.5132V13.173ZM20.258 11.6791C21.4497 11.6791 22.4759 12.4015 22.9216 13.4311C21.7099 14.059 20.3622 14.3887 18.9925 14.3887H17.3632C17.4621 12.8781 18.7227 11.6791 20.258 11.6791ZM17.3569 16.7325H18.9925C20.4272 16.7325 21.8428 16.448 23.1591 15.9027V17.2905C23.1591 18.8901 21.8577 20.1916 20.258 20.1916C18.6583 20.1916 17.3569 18.8903 17.3569 17.2906V16.7325ZM23.0173 24.5939C20.7117 25.1464 18.8998 26.7538 18.0374 28.8335H13.2876V27.8168C13.2876 26.3466 14.2863 25.0811 15.7163 24.7395L18.7008 24.0265C19.2283 23.9006 19.6005 23.4291 19.6005 22.8868V22.4928C19.8161 22.5199 20.0352 22.5354 20.258 22.5354C20.4791 22.5354 20.6967 22.5201 20.9107 22.4934V22.8277C20.9099 22.8452 20.9095 22.8626 20.9094 22.8801C20.9092 23.2646 21.0982 23.6412 21.4453 23.8657C21.5761 23.9505 21.7174 24.0056 21.8617 24.0331L23.6098 24.4519L23.0173 24.5939ZM26.2861 22.7747C25.985 22.642 25.6712 22.5358 25.3478 22.4583L23.2543 21.9567V21.5915C23.6322 21.3275 23.9738 21.0154 24.27 20.6636C24.7934 21.4699 25.481 22.1593 26.2861 22.6844V22.7747ZM31.3758 24.4966L30.0044 27.6155L28.6299 24.4886V23.6523C29.0772 23.7446 29.5403 23.7932 30.0144 23.7932C30.4804 23.7932 30.9356 23.746 31.3758 23.6568V24.4966ZM30.0144 21.4494C27.5324 21.4495 25.5132 19.4302 25.5132 16.9482V15.7105H27.1151C28.9734 15.7105 30.7404 15.0194 32.0946 13.7868L34.5112 15.2067V17.1196C34.4207 19.5223 32.439 21.4494 30.0144 21.4494ZM33.7195 22.7785V22.6992C34.5311 22.1744 35.2249 21.4832 35.7523 20.6735C36.0466 21.0213 36.3853 21.3299 36.7594 21.5915V21.9567L34.6659 22.4583C34.3396 22.5366 34.0231 22.6441 33.7195 22.7785ZM46.7264 28.8335H41.9604C41.0972 26.7538 39.284 25.1473 36.9771 24.5962L36.3887 24.4557L38.1461 24.0345C38.2924 24.0073 38.436 23.9515 38.5686 23.8657C38.9151 23.6416 39.1035 23.2649 39.1035 22.8804C39.1035 22.8713 39.1034 22.862 39.1032 22.8529V22.4934C39.3173 22.5201 39.5348 22.5354 39.7559 22.5354C39.9787 22.5354 40.1978 22.5199 40.4135 22.4928V22.8868C40.4135 23.4291 40.7856 23.9006 41.3131 24.0265L44.2976 24.7395C45.7276 25.0812 46.7264 26.3466 46.7264 27.8168V28.8335Z" fill="white"/>
<path d="M30.8284 34.9909C30.6094 34.7729 30.3082 34.6487 30 34.6487C29.6905 34.6487 29.3894 34.7729 29.1715 34.9909C28.9523 35.21 28.8281 35.5112 28.8281 35.8206C28.8281 36.1288 28.9523 36.4299 29.1715 36.6491C29.3894 36.867 29.6906 36.9924 30 36.9924C30.3082 36.9924 30.6094 36.867 30.8284 36.6491C31.0464 36.4299 31.1719 36.1288 31.1719 35.8206C31.1719 35.5112 31.0465 35.21 30.8284 34.9909Z" fill="white"/>
<path d="M29.999 0C29.3519 0 28.8271 0.524646 28.8271 1.17187V2.92534C28.8271 3.57256 29.3519 4.09721 29.999 4.09721C30.6461 4.09721 31.1709 3.57256 31.1709 2.92534V1.17187C31.1709 0.524646 30.6462 0 29.999 0Z" fill="white"/>
<path d="M25.682 3.82249L24.4527 2.59437C23.9949 2.13687 23.253 2.13722 22.7955 2.59507C22.338 3.05292 22.3385 3.79495 22.7963 4.25233L24.0257 5.48045C24.2545 5.70908 24.5542 5.82334 24.8539 5.82334C25.154 5.82334 25.454 5.70873 25.6829 5.47975C26.1401 5.0219 26.1399 4.27987 25.682 3.82249Z" fill="white"/>
<path d="M37.174 2.62446C36.7161 2.16708 35.974 2.16732 35.5167 2.62528L34.2969 3.84625C33.8395 4.3041 33.8399 5.04613 34.2977 5.50351C34.5266 5.73214 34.8262 5.8464 35.126 5.8464C35.4261 5.8464 35.7262 5.73179 35.955 5.50269L37.1748 4.28172C37.6322 3.82387 37.6318 3.08184 37.174 2.62446Z" fill="white"/>
</svg>
