<svg width="62" height="59" viewBox="0 0 62 59" fill="none" xmlns="http://www.w3.org/2000/svg">
<path d="M46.2755 7.59524C46.2755 8.26876 45.7295 8.81476 45.056 8.81476C44.3825 8.81476 43.8365 8.26876 43.8365 7.59524C43.8365 6.92173 44.3825 6.37573 45.056 6.37573C45.7295 6.37573 46.2755 6.92173 46.2755 7.59524Z" fill="black"/>
<path d="M40.1221 5.29268L31 1L1 15.1176L31 29.2351M31 29.2351L61 15.1176L49.7907 9.84256M31 29.2351L16.0004 36.294M31.0005 43.353L60.9998 29.235L46.0007 22.1772L31.0005 29.235L16.0004 22.1772L1.00012 29.235L31.0005 43.353ZM31.0005 43.353L16.0004 36.294M31.0005 43.353L46.0007 36.294L60.9998 43.353L31.0005 57.47L1.00012 43.353L16.0004 36.294M23.2261 39.6917L53.5195 25.7223M8.40037 32.7176L23.4588 25.7737M14.268 42.6477L16.7677 43.9257M22.007 46.3891L24.5067 47.6672M29.8677 50.1305L32.3673 51.4087M37.1231 46.5107L39.6227 47.7889M44.3784 42.891L46.8781 44.1691M46.2755 7.59524C46.2755 8.26876 45.7295 8.81476 45.056 8.81476C44.3825 8.81476 43.8365 8.26876 43.8365 7.59524C43.8365 6.92173 44.3825 6.37573 45.056 6.37573C45.7295 6.37573 46.2755 6.92173 46.2755 7.59524Z" stroke="white" stroke-width="2" stroke-miterlimit="10" stroke-linecap="round" stroke-linejoin="round"/>
</svg>
