<svg width="164" height="32" viewBox="0 0 164 32" fill="none" xmlns="http://www.w3.org/2000/svg">
<g clip-path="url(#clip0_494_1263)">
<path d="M0.932617 1.12255C0.932617 1.12255 80.1179 66.4346 161.708 2.40547" stroke="#009DC0" stroke-width="4" stroke-miterlimit="10"/>
<path d="M157.278 16.051C156.826 15.8907 156.607 15.395 156.768 14.9431L161.358 2.60957L148.243 3.67381C147.777 3.71754 147.354 3.35308 147.31 2.88656C147.266 2.42005 147.631 1.99727 148.097 1.95353L162.553 0.787247C162.844 0.75809 163.136 0.889297 163.31 1.12255C163.485 1.35581 163.529 1.66196 163.427 1.93896L158.371 15.5408C158.312 15.7011 158.21 15.8323 158.079 15.9198C157.846 16.0948 157.54 16.1531 157.263 16.0364L157.278 16.051Z" fill="#009DC0"/>
</g>
<defs>
<clipPath id="clip0_494_1263">
<rect width="163.5" height="32" fill="white"/>
</clipPath>
</defs>
</svg>
