<svg width="81" height="80" viewBox="0 0 81 80" fill="none" xmlns="http://www.w3.org/2000/svg">
<g clip-path="url(#clip0_494_1278)">
<path d="M63.5336 50.8988C63.5336 54.9135 60.2674 58.1797 56.2527 58.1797C52.2379 58.1797 48.9717 54.9135 48.9717 50.8988C48.9717 46.884 52.2379 43.6178 56.2527 43.6178C60.2674 43.6178 63.5336 46.884 63.5336 50.8988Z" fill="white"/>
<path d="M56.2527 60.6068C50.8997 60.6068 46.5674 64.9617 46.5674 70.292V78.7752C46.5674 79.4329 47.1118 80 47.7922 80H64.7585C65.4163 80 65.9833 79.4556 65.9833 78.7752V70.292C65.9833 64.939 61.6283 60.6068 56.298 60.6068H56.2527Z" fill="white"/>
<path d="M16.2641 60.6068C10.9112 60.6068 6.57886 64.9617 6.57886 70.292V78.7752C6.57886 79.4329 7.12323 80 7.80369 80H24.77C25.4277 80 25.9948 79.4556 25.9948 78.7752V70.292C25.9948 64.939 21.6398 60.6068 16.3095 60.6068H16.2641Z" fill="white"/>
<path d="M10.3441 33.9325C11.9091 33.9325 13.2927 34.9305 13.7917 36.4276L15.1073 40.3969C15.2888 40.8733 15.7424 41.2135 16.2641 41.2135C16.7858 41.2135 17.2394 40.8733 17.4209 40.3969L18.7365 36.4276C19.2355 34.9305 20.6191 33.9325 22.1842 33.9325H59.9046C63.2389 33.9325 65.9607 31.2107 65.9607 27.8764V6.05614C65.9607 2.72186 63.2389 0 59.8819 0H6.55614C3.22186 0 0.5 2.72186 0.5 6.05614V27.8764C0.5 31.2107 3.22186 33.9325 6.55614 33.9325H10.3441Z" fill="white"/>
<path d="M23.5224 50.8988C23.5224 54.9135 20.2562 58.1797 16.2414 58.1797C12.2267 58.1797 8.96045 54.9135 8.96045 50.8988C8.96045 46.884 12.2267 43.6178 16.2414 43.6178C20.2562 43.6178 23.5224 46.884 23.5224 50.8988Z" fill="white"/>
<path d="M74.4438 20.5954H69.5898C68.932 20.5954 68.365 21.1398 68.365 21.8202C68.365 22.5007 68.9094 23.0451 69.5898 23.0451H74.4438C76.4398 23.0451 78.073 24.6782 78.073 26.6742V48.4945C78.073 50.4905 76.4398 52.1236 74.4438 52.1236H65.9607C65.3029 52.1236 64.7358 52.668 64.7358 53.3484C64.7358 54.0289 65.2802 54.5733 65.9607 54.5733H74.4438C77.7781 54.5733 80.4999 51.8514 80.4999 48.5171V26.6969C80.4999 23.3626 77.7781 20.6408 74.4438 20.6408V20.5954Z" fill="white"/>
<path d="M47.7697 53.3258C47.7697 52.6453 47.2253 52.1009 46.5449 52.1009H38.0617C36.0657 52.1009 34.4326 50.4678 34.4326 48.4718V36.3595C34.4326 35.679 33.8882 35.1347 33.2077 35.1347C32.5273 35.1347 31.9829 35.679 31.9829 36.3595V48.4718C31.9829 51.8061 34.7048 54.5279 38.039 54.5279H46.5222C47.18 54.5279 47.747 53.9836 47.747 53.3031L47.7697 53.3258Z" fill="white"/>
<path d="M7.12329 7.46243H60.9934M7.12329 13.9495H57.4097M7.12329 20.913H52.7598M7.12329 27.4227H45.0479" stroke="url(#paint0_linear_494_1278)" stroke-width="1.09" stroke-linecap="round" stroke-linejoin="round"/>
</g>
<defs>
<linearGradient id="paint0_linear_494_1278" x1="22.3884" y1="-2.78991" x2="41.7363" y2="30.757" gradientUnits="userSpaceOnUse">
<stop stop-color="#2D496A"/>
<stop offset="0.3" stop-color="#315172"/>
<stop offset="0.77" stop-color="#3D6889"/>
<stop offset="0.93" stop-color="#427293"/>
</linearGradient>
<clipPath id="clip0_494_1278">
<rect width="80" height="80" fill="white" transform="translate(0.5)"/>
</clipPath>
</defs>
</svg>
