<svg width="241" height="164" viewBox="0 0 241 164" fill="none" xmlns="http://www.w3.org/2000/svg">
<g clip-path="url(#clip0_494_1288)">
<path d="M158.38 53.6233H143.55V50.3398H145.202C146.116 50.3398 146.855 49.6004 146.855 48.6871V42.0984C146.855 41.1851 146.116 40.4458 145.202 40.4458H140.266V37.1623C140.266 26.8116 132.286 18.3093 122.153 17.483V14.9171C122.522 14.9823 122.892 15.0258 123.262 15.0258C124.849 15.0258 126.328 14.4822 127.654 14.0255C129.937 13.1992 131.286 12.7861 132.721 13.8081C133.221 14.1778 133.895 14.2213 134.439 13.9386C134.982 13.6341 135.33 13.0688 135.33 12.4599V2.56591C135.33 2.04403 135.091 1.5439 134.634 1.23946C131.742 -0.848059 128.85 0.195703 126.523 1.02201C124.24 1.84833 122.892 2.26148 121.457 1.23946C120.957 0.869799 120.283 0.826309 119.739 1.10899C119.195 1.39168 118.847 1.95705 118.847 2.56591V17.4613C108.714 18.3093 100.734 26.8116 100.734 37.1405V40.424H95.7976C94.8844 40.424 94.145 41.1634 94.145 42.0767V48.6654C94.145 49.5787 94.8844 50.318 95.7976 50.318H97.4503V53.6015H82.6202C81.7069 53.6015 80.9675 54.3409 80.9675 55.2541C80.9675 56.1674 81.7069 56.9068 82.6202 56.9068H84.2728V78.3256C84.2728 79.2389 85.0121 79.9783 85.9254 79.9783H97.4503C97.7547 79.9783 98.0156 79.8695 98.2766 79.7391C98.5158 79.8913 98.7767 79.9783 99.1029 79.9783H141.919C142.223 79.9783 142.484 79.8695 142.745 79.7391C142.984 79.8913 143.245 79.9783 143.572 79.9783H155.096C156.01 79.9783 156.749 79.2389 156.749 78.3256V56.9068H158.402C159.315 56.9068 160.054 56.1674 160.054 55.2541C160.054 54.3409 159.315 53.6015 158.402 53.6015L158.38 53.6233ZM122.153 5.0231C124.131 5.37102 126.023 4.69693 127.654 4.10981C129.568 3.43571 130.829 3.02256 132.047 3.52269V10.0027C130.068 9.6548 128.154 10.3289 126.545 10.916C124.632 11.5901 123.37 12.0033 122.153 11.5031V5.0231ZM97.4503 76.6948H87.5563V56.9285H97.4503V76.6948ZM104.039 37.1623C104.039 28.0946 111.432 20.6795 120.522 20.6795C129.611 20.6795 137.005 28.0728 137.005 37.1623V40.4458H104.061V37.1623H104.039ZM105.692 76.6948H100.756V50.3398H105.692V76.6948ZM114.477 76.6948H108.997V50.3398H114.477V76.6948ZM123.283 76.6948H117.804V50.3398H123.283V76.6948ZM132.068 76.6948H126.589V50.3398H132.068V76.6948ZM140.31 76.6948H135.374V50.3398H140.31V76.6948ZM141.962 47.0345H97.4285V43.751H143.55V47.0345H141.897H141.962ZM153.487 76.6948H143.593V56.9285H153.487V76.6948Z" fill="white"/>
</g>
<path d="M60.754 122.508V130.318C59.72 130.67 57.762 131.154 55.804 131.154C53.098 131.154 51.14 130.472 49.776 129.152C48.412 127.876 47.664 125.94 47.686 123.762C47.708 118.834 51.294 116.018 56.156 116.018C58.07 116.018 59.544 116.392 60.27 116.744L59.566 119.428C58.752 119.076 57.74 118.79 56.112 118.79C53.318 118.79 51.206 120.374 51.206 123.586C51.206 126.644 53.12 128.448 55.87 128.448C56.64 128.448 57.256 128.36 57.52 128.228V125.126H55.232V122.508H60.754ZM72.887 126.688H65.957C66.067 128.074 67.431 128.734 68.993 128.734C70.137 128.734 71.061 128.58 71.963 128.294L72.403 130.56C71.303 131 69.961 131.242 68.509 131.242C64.857 131.242 62.767 129.108 62.767 125.742C62.767 123.014 64.461 120 68.201 120C71.677 120 72.997 122.706 72.997 125.368C72.997 125.94 72.931 126.446 72.887 126.688ZM65.935 124.4H69.895C69.895 123.586 69.543 122.222 68.003 122.222C66.595 122.222 66.023 123.498 65.935 124.4ZM75.4681 118.218L78.7461 117.316V120.242H81.1441V122.706H78.7461V126.6C78.7461 127.898 79.0541 128.492 80.0661 128.492C80.5281 128.492 80.7261 128.47 81.0561 128.404L81.0781 130.934C80.6381 131.11 79.8461 131.242 78.9001 131.242C77.8221 131.242 76.9201 130.846 76.3921 130.296C75.7761 129.658 75.4681 128.624 75.4681 127.106V122.706H74.0381V120.242H75.4681V118.218ZM87.6415 131V116.37C88.6755 116.194 90.1275 116.062 92.1735 116.062C94.2415 116.062 95.7155 116.458 96.7055 117.25C97.6515 117.998 98.2895 119.23 98.2895 120.682C98.2895 122.134 97.8055 123.366 96.9255 124.202C95.7815 125.28 94.0875 125.764 92.1075 125.764C91.6675 125.764 91.2715 125.742 90.9635 125.698V131H87.6415ZM90.9635 118.724V123.102C91.2495 123.168 91.6015 123.19 92.0855 123.19C93.8675 123.19 94.9675 122.288 94.9675 120.77C94.9675 119.406 94.0215 118.592 92.3495 118.592C91.6675 118.592 91.2055 118.658 90.9635 118.724ZM109.282 126.688H102.352C102.462 128.074 103.826 128.734 105.388 128.734C106.532 128.734 107.456 128.58 108.358 128.294L108.798 130.56C107.698 131 106.356 131.242 104.904 131.242C101.252 131.242 99.1615 129.108 99.1615 125.742C99.1615 123.014 100.856 120 104.596 120C108.072 120 109.392 122.706 109.392 125.368C109.392 125.94 109.326 126.446 109.282 126.688ZM102.33 124.4H106.29C106.29 123.586 105.938 122.222 104.398 122.222C102.99 122.222 102.418 123.498 102.33 124.4ZM111.401 131V123.784C111.401 122.2 111.357 121.166 111.313 120.242H114.195L114.305 122.222H114.393C114.943 120.66 116.263 120 117.297 120C117.605 120 117.759 120 118.001 120.044V123.212C117.759 123.146 117.473 123.102 117.099 123.102C115.867 123.102 115.031 123.762 114.811 124.796C114.767 125.016 114.745 125.28 114.745 125.544V131H111.401ZM119.758 131V123.674C119.758 122.332 119.714 121.188 119.67 120.242H122.486L122.64 121.694H122.706C123.168 121.012 124.114 120 125.962 120C127.348 120 128.448 120.704 128.91 121.826H128.954C129.35 121.254 129.834 120.836 130.34 120.528C130.934 120.176 131.594 120 132.386 120C134.454 120 136.016 121.452 136.016 124.664V131H132.76V125.148C132.76 123.586 132.254 122.684 131.176 122.684C130.406 122.684 129.856 123.212 129.636 123.85C129.548 124.092 129.504 124.444 129.504 124.708V131H126.248V124.972C126.248 123.608 125.764 122.684 124.708 122.684C123.85 122.684 123.344 123.344 123.146 123.894C123.036 124.158 123.014 124.466 123.014 124.73V131H119.758ZM142.03 131H138.686V120.242H142.03V131ZM140.358 115.556C141.436 115.556 142.118 116.282 142.14 117.25C142.14 118.174 141.436 118.922 140.336 118.922C139.28 118.922 138.576 118.174 138.598 117.25C138.576 116.282 139.28 115.556 140.358 115.556ZM144.107 130.472L144.701 128.074C145.317 128.448 146.593 128.888 147.583 128.888C148.595 128.888 149.013 128.536 149.013 127.986C149.013 127.436 148.683 127.172 147.429 126.754C145.207 126.006 144.349 124.796 144.371 123.542C144.371 121.518 146.087 120 148.749 120C150.003 120 151.125 120.286 151.785 120.616L151.191 122.926C150.707 122.662 149.783 122.31 148.859 122.31C148.045 122.31 147.583 122.64 147.583 123.19C147.583 123.696 148.001 123.96 149.321 124.422C151.367 125.126 152.225 126.16 152.247 127.744C152.247 129.746 150.663 131.242 147.583 131.242C146.175 131.242 144.921 130.912 144.107 130.472ZM153.646 130.472L154.24 128.074C154.856 128.448 156.132 128.888 157.122 128.888C158.134 128.888 158.552 128.536 158.552 127.986C158.552 127.436 158.222 127.172 156.968 126.754C154.746 126.006 153.888 124.796 153.91 123.542C153.91 121.518 155.626 120 158.288 120C159.542 120 160.664 120.286 161.324 120.616L160.73 122.926C160.246 122.662 159.322 122.31 158.398 122.31C157.584 122.31 157.122 122.64 157.122 123.19C157.122 123.696 157.54 123.96 158.86 124.422C160.906 125.126 161.764 126.16 161.786 127.744C161.786 129.746 160.202 131.242 157.122 131.242C155.714 131.242 154.46 130.912 153.646 130.472ZM167.145 131H163.801V120.242H167.145V131ZM165.473 115.556C166.551 115.556 167.233 116.282 167.255 117.25C167.255 118.174 166.551 118.922 165.451 118.922C164.395 118.922 163.691 118.174 163.713 117.25C163.691 116.282 164.395 115.556 165.473 115.556ZM174.964 120C178.264 120 180.464 122.266 180.464 125.5C180.464 129.438 177.67 131.242 174.788 131.242C171.642 131.242 169.222 129.174 169.222 125.698C169.222 122.222 171.51 120 174.964 120ZM174.876 122.376C173.27 122.376 172.676 124.026 172.676 125.61C172.676 127.458 173.446 128.844 174.876 128.844C176.174 128.844 177.01 127.546 177.01 125.61C177.01 124.004 176.394 122.376 174.876 122.376ZM182.535 131V123.674C182.535 122.332 182.491 121.188 182.447 120.242H185.351L185.505 121.716H185.571C186.011 121.034 187.111 120 188.893 120C191.093 120 192.743 121.452 192.743 124.62V131H189.399V125.038C189.399 123.652 188.915 122.706 187.705 122.706C186.781 122.706 186.231 123.344 186.011 123.96C185.923 124.18 185.879 124.488 185.879 124.796V131H182.535ZM49.2274 157V142.172H58.2914V144.922H52.5934V148.31H57.9174V151.038H52.5934V157H49.2274ZM60.2893 157V149.784C60.2893 148.2 60.2453 147.166 60.2013 146.242H63.0833L63.1933 148.222H63.2813C63.8313 146.66 65.1513 146 66.1853 146C66.4933 146 66.6473 146 66.8893 146.044V149.212C66.6473 149.146 66.3613 149.102 65.9873 149.102C64.7553 149.102 63.9193 149.762 63.6993 150.796C63.6553 151.016 63.6333 151.28 63.6333 151.544V157H60.2893ZM73.6008 146C76.9008 146 79.1008 148.266 79.1008 151.5C79.1008 155.438 76.3068 157.242 73.4248 157.242C70.2788 157.242 67.8588 155.174 67.8588 151.698C67.8588 148.222 70.1468 146 73.6008 146ZM73.5128 148.376C71.9068 148.376 71.3128 150.026 71.3128 151.61C71.3128 153.458 72.0828 154.844 73.5128 154.844C74.8108 154.844 75.6468 153.546 75.6468 151.61C75.6468 150.004 75.0308 148.376 73.5128 148.376ZM81.1721 157V149.674C81.1721 148.332 81.1281 147.188 81.0841 146.242H83.9001L84.0541 147.694H84.1201C84.5821 147.012 85.5281 146 87.3761 146C88.7621 146 89.8621 146.704 90.3241 147.826H90.3681C90.7641 147.254 91.2481 146.836 91.7541 146.528C92.3481 146.176 93.0081 146 93.8001 146C95.8681 146 97.4301 147.452 97.4301 150.664V157H94.1741V151.148C94.1741 149.586 93.6681 148.684 92.5901 148.684C91.8201 148.684 91.2701 149.212 91.0501 149.85C90.9621 150.092 90.9181 150.444 90.9181 150.708V157H87.6621V150.972C87.6621 149.608 87.1781 148.684 86.1221 148.684C85.2641 148.684 84.7581 149.344 84.5601 149.894C84.4501 150.158 84.4281 150.466 84.4281 150.73V157H81.1721ZM115.041 153.964L115.547 156.582C114.931 156.89 113.545 157.242 111.741 157.242C106.615 157.242 103.975 154.03 103.975 149.806C103.975 144.746 107.583 141.93 112.071 141.93C113.809 141.93 115.129 142.282 115.723 142.59L115.041 145.252C114.359 144.966 113.413 144.702 112.225 144.702C109.563 144.702 107.495 146.308 107.495 149.608C107.495 152.578 109.255 154.448 112.247 154.448C113.259 154.448 114.381 154.228 115.041 153.964ZM122.349 146C125.649 146 127.849 148.266 127.849 151.5C127.849 155.438 125.055 157.242 122.173 157.242C119.027 157.242 116.607 155.174 116.607 151.698C116.607 148.222 118.895 146 122.349 146ZM122.261 148.376C120.655 148.376 120.061 150.026 120.061 151.61C120.061 153.458 120.831 154.844 122.261 154.844C123.559 154.844 124.395 153.546 124.395 151.61C124.395 150.004 123.779 148.376 122.261 148.376ZM129.92 157V149.674C129.92 148.332 129.876 147.188 129.832 146.242H132.736L132.89 147.716H132.956C133.396 147.034 134.496 146 136.278 146C138.478 146 140.128 147.452 140.128 150.62V157H136.784V151.038C136.784 149.652 136.3 148.706 135.09 148.706C134.166 148.706 133.616 149.344 133.396 149.96C133.308 150.18 133.264 150.488 133.264 150.796V157H129.92ZM152.997 149.432V155.438C152.997 157.506 152.579 159.2 151.369 160.278C150.181 161.29 148.575 161.598 146.991 161.598C145.583 161.598 144.087 161.312 143.119 160.762L143.779 158.232C144.461 158.628 145.649 159.046 146.903 159.046C148.487 159.046 149.697 158.188 149.697 156.208V155.504H149.653C149.015 156.406 147.981 156.912 146.749 156.912C144.087 156.912 142.195 154.756 142.195 151.654C142.195 148.2 144.439 146 147.079 146C148.553 146 149.477 146.638 150.027 147.518H150.071L150.181 146.242H153.085C153.041 146.924 152.997 147.826 152.997 149.432ZM149.653 152.204V150.62C149.653 150.4 149.631 150.18 149.587 150.004C149.345 149.124 148.707 148.53 147.783 148.53C146.573 148.53 145.583 149.63 145.583 151.588C145.583 153.194 146.375 154.448 147.783 154.448C148.641 154.448 149.323 153.876 149.543 153.084C149.631 152.842 149.653 152.49 149.653 152.204ZM155.68 157V149.784C155.68 148.2 155.636 147.166 155.592 146.242H158.474L158.584 148.222H158.672C159.222 146.66 160.542 146 161.576 146C161.884 146 162.038 146 162.28 146.044V149.212C162.038 149.146 161.752 149.102 161.378 149.102C160.146 149.102 159.31 149.762 159.09 150.796C159.046 151.016 159.024 151.28 159.024 151.544V157H155.68ZM173.369 152.688H166.439C166.549 154.074 167.913 154.734 169.475 154.734C170.619 154.734 171.543 154.58 172.445 154.294L172.885 156.56C171.785 157 170.443 157.242 168.991 157.242C165.339 157.242 163.249 155.108 163.249 151.742C163.249 149.014 164.943 146 168.683 146C172.159 146 173.479 148.706 173.479 151.368C173.479 151.94 173.413 152.446 173.369 152.688ZM166.417 150.4H170.377C170.377 149.586 170.025 148.222 168.485 148.222C167.077 148.222 166.505 149.498 166.417 150.4ZM174.872 156.472L175.466 154.074C176.082 154.448 177.358 154.888 178.348 154.888C179.36 154.888 179.778 154.536 179.778 153.986C179.778 153.436 179.448 153.172 178.194 152.754C175.972 152.006 175.114 150.796 175.136 149.542C175.136 147.518 176.852 146 179.514 146C180.768 146 181.89 146.286 182.55 146.616L181.956 148.926C181.472 148.662 180.548 148.31 179.624 148.31C178.81 148.31 178.348 148.64 178.348 149.19C178.348 149.696 178.766 149.96 180.086 150.422C182.132 151.126 182.99 152.16 183.012 153.744C183.012 155.746 181.428 157.242 178.348 157.242C176.94 157.242 175.686 156.912 174.872 156.472ZM184.412 156.472L185.006 154.074C185.622 154.448 186.898 154.888 187.888 154.888C188.9 154.888 189.318 154.536 189.318 153.986C189.318 153.436 188.988 153.172 187.734 152.754C185.512 152.006 184.654 150.796 184.676 149.542C184.676 147.518 186.392 146 189.054 146C190.308 146 191.43 146.286 192.09 146.616L191.496 148.926C191.012 148.662 190.088 148.31 189.164 148.31C188.35 148.31 187.888 148.64 187.888 149.19C187.888 149.696 188.306 149.96 189.626 150.422C191.672 151.126 192.53 152.16 192.552 153.744C192.552 155.746 190.968 157.242 187.888 157.242C186.48 157.242 185.226 156.912 184.412 156.472Z" fill="white"/>
<defs>
<clipPath id="clip0_494_1288">
<rect width="79.065" height="80" fill="white" transform="translate(80.9675)"/>
</clipPath>
</defs>
</svg>
