<svg width="61" height="80" viewBox="0 0 61 80" fill="none" xmlns="http://www.w3.org/2000/svg">
<path d="M39.4349 26.6521C39.4349 27.2623 38.9337 27.7636 38.3235 27.7636H10.6689C10.0587 27.7636 9.55747 27.2623 9.55747 26.6521C9.55747 26.042 10.0587 25.5407 10.6689 25.5407H38.3017C38.6068 25.5407 38.8683 25.6497 39.0862 25.8676C39.3041 26.0855 39.4131 26.347 39.4131 26.6521H39.4349ZM10.6907 33.277H38.3235C38.9337 33.277 39.4349 32.7758 39.4349 32.1656C39.4349 31.5554 38.9337 31.0542 38.3235 31.0542H10.6907C10.0805 31.0542 9.57926 31.5554 9.57926 32.1656C9.57926 32.7758 10.0805 33.277 10.6907 33.277ZM10.6907 42.0812H38.3235C38.9337 42.0812 39.4349 41.58 39.4349 40.9698C39.4349 40.3596 38.9337 39.8584 38.3235 39.8584H10.6907C10.0805 39.8584 9.57926 40.3596 9.57926 40.9698C9.57926 41.58 10.0805 42.0812 10.6907 42.0812ZM10.6907 47.5947H38.3235C38.9337 47.5947 39.4349 47.0934 39.4349 46.4832C39.4349 45.8731 38.9337 45.3718 38.3235 45.3718H10.6907C10.0805 45.3718 9.57926 45.8731 9.57926 46.4832C9.57926 47.0934 10.0805 47.5947 10.6907 47.5947ZM38.3235 56.3988C38.9337 56.3988 39.3913 55.8976 39.3913 55.2874C39.3913 54.6772 38.9119 54.1978 38.3235 54.176H10.6907C10.1023 54.176 9.62285 54.6772 9.62285 55.2874C9.62285 55.8976 10.1023 56.377 10.6907 56.3988H38.3235ZM11.3227 59.6895C10.7125 59.6895 10.2112 60.1907 10.2112 60.8009C10.2112 61.4111 10.7125 61.9123 11.3227 61.9123H38.9555C39.5656 61.9123 40.0669 61.4111 40.0669 60.8009C40.0669 60.1907 39.5656 59.6895 38.9555 59.6895H11.3227ZM60.9658 10.9834V75.9248C60.9658 78.1694 59.1352 80 56.8906 80H4.10936C1.86474 80 0.0341797 78.1694 0.0341797 75.9248V10.9834C0.0341797 8.73876 1.86474 6.9082 4.10936 6.9082H22.306C22.524 5.77499 23.5046 4.96867 24.6596 4.96867H27.2311V3.29066C27.2311 1.48189 28.6912 0 30.5218 0C32.3524 0 33.8124 1.48189 33.8124 3.29066V4.96867H36.3622C37.5172 4.96867 38.4978 5.79679 38.7157 6.9082H56.9124C59.157 6.9082 60.9876 8.73876 60.9876 10.9834H60.9658ZM54.7768 13.119H38.6722C38.3671 14.1651 37.43 14.8624 36.3622 14.8624H24.6596C23.5918 14.8624 22.6329 14.1433 22.3496 13.119H6.22323V73.811H45.6021V65.7478C45.6021 65.4645 45.7111 65.1812 45.929 64.9632C46.147 64.7453 46.4303 64.6363 46.7136 64.6363H54.7768V13.119ZM47.825 66.8592V72.2419L53.2077 66.8592H47.825ZM24.4635 12.4653C24.4635 12.4653 24.5507 12.6614 24.6596 12.6614H36.3622C36.3622 12.6614 36.5583 12.5742 36.5583 12.4653V7.38763C36.5583 7.38763 36.4711 7.1915 36.3622 7.1915H32.701C32.0908 7.1915 31.5896 6.69028 31.5896 6.08009V3.29066C31.5896 2.70226 31.1102 2.22283 30.5218 2.22283C29.9334 2.22283 29.454 2.70226 29.454 3.29066V6.08009C29.454 6.69028 28.9527 7.1915 28.3425 7.1915H24.6814C24.6814 7.1915 24.4853 7.27867 24.4853 7.38763V12.4653H24.4635ZM58.7648 10.9834C58.7648 9.95914 57.9367 9.13103 56.9124 9.13103H38.7811V10.8962H55.91C56.1933 10.8962 56.4766 11.0052 56.6945 11.2231C56.9124 11.441 57.0214 11.7243 57.0214 12.0076V65.7478C57.0214 66.0311 56.9124 66.3144 56.6945 66.5323L47.5199 75.7069C47.302 75.9248 47.0404 76.0338 46.7354 76.0338H5.11182C4.50163 76.0338 4.0004 75.5326 4.0004 74.9224V12.0076C4.0004 11.7243 4.10936 11.441 4.32729 11.2231C4.54521 11.0052 4.80672 10.8962 5.11182 10.8962H22.2407V9.13103H4.10936C3.08512 9.13103 2.25701 9.95914 2.25701 10.9834V75.9248C2.25701 76.9491 3.08512 77.7772 4.10936 77.7772H56.9124C57.9367 77.7772 58.7648 76.9491 58.7648 75.9248V10.9834ZM44.6869 31.3811C45.1227 31.8169 45.8201 31.8169 46.2559 31.3811L51.8566 25.7804C52.2706 25.3446 52.2706 24.6472 51.8566 24.2332C51.4207 23.7973 50.7452 23.7973 50.3093 24.2332L45.4932 29.0493L43.7498 27.3059C43.3139 26.8701 42.6166 26.8701 42.1807 27.3059C41.7449 27.7418 41.7449 28.4391 42.1807 28.875L44.7087 31.4029L44.6869 31.3811ZM44.6869 45.8731C45.1227 46.3089 45.8201 46.3089 46.2559 45.8731L51.8566 40.2724C52.2706 39.8366 52.2706 39.1392 51.8566 38.7251C51.4207 38.2893 50.7452 38.2893 50.3093 38.7251L45.4932 43.5413L43.7498 41.7979C43.3139 41.362 42.6166 41.362 42.1807 41.7979C41.7449 42.2337 41.7449 42.9311 42.1807 43.3669L44.7087 45.8949L44.6869 45.8731ZM44.6869 60.365C45.1227 60.8009 45.8201 60.8009 46.2559 60.365L51.8566 54.7644C52.2706 54.3285 52.2706 53.6312 51.8566 53.2171C51.4207 52.7813 50.7452 52.7813 50.3093 53.2171L45.4932 58.0332L43.7498 56.2898C43.3139 55.854 42.6166 55.854 42.1807 56.2898C41.7449 56.7257 41.7449 57.423 42.1807 57.8589L44.7087 60.3868L44.6869 60.365Z" fill="white"/>
</svg>
