<svg width="1335" height="763" viewBox="0 0 1335 763" fill="none" xmlns="http://www.w3.org/2000/svg">
<g clip-path="url(#clip0_296_227)">
<mask id="mask0_296_227" style="mask-type:luminance" maskUnits="userSpaceOnUse" x="0" y="0" width="2669" height="763">
<path d="M2669 0H0V763H2669V0Z" fill="white"/>
</mask>
<g mask="url(#mask0_296_227)">
<path d="M591.596 539.244L615.63 528.174C616.346 527.848 617.124 527.678 617.911 527.678L623.918 527.816M360.279 626.177L462.695 586.556C463.169 586.372 463.665 586.255 464.171 586.208L516.095 581.382C516.582 581.337 517.061 581.226 517.52 581.054L578.365 558.191C578.753 558.045 579.122 557.856 579.467 557.628L598.924 544.743C599.354 544.459 599.821 544.237 600.313 544.083M600.313 544.083L615.037 539.457C616.282 539.066 617.346 538.246 618.041 537.143L624.541 526.826C625.11 525.924 625.928 525.207 626.898 524.761L647.776 515.415M600.313 544.083L575.883 551.629C575.608 551.719 575.34 551.83 575.083 551.962L546.497 566.6C545.777 566.968 544.985 567.174 544.177 567.201L509.999 568.364C509.261 568.388 508.535 568.561 507.865 568.874L472.6 585.287M1437.43 99.2289L1447.29 73.8446C1447.61 72.9262 1448.17 72.11 1448.91 71.4795L1449.12 71.2957C1451.09 69.6226 1453.96 69.5457 1456.02 71.111L1458.31 72.8526C1460.61 74.6115 1463.89 74.2716 1465.79 72.0763L1473.9 62.7117C1475.9 60.4019 1479.4 60.1641 1481.7 62.1822L1493.11 72.6844M1437.43 99.2289L1431.95 82.0066C1430.65 78.6189 1426.47 77.4017 1423.55 79.5566L1420.32 81.9412C1419.74 82.3692 1419.24 82.9072 1418.87 83.5246L1417.28 86.1773C1414.75 90.3585 1408.43 89.4195 1407.23 84.6849L1394.75 35.3263C1394.52 34.441 1394.08 33.6273 1393.46 32.9619C1390.62 29.9483 1385.59 31.1254 1384.38 35.0824L1383.07 39.4038L1373.64 61.72M1437.43 99.2289L1445.19 115.313M1493.11 72.6844L1491.99 75.9067C1491.22 78.114 1489.13 79.5927 1486.8 79.5927H1485.38C1483.36 79.5927 1481.5 80.6997 1480.54 82.4762L1468.85 104.098C1467.3 106.979 1463.58 107.868 1460.89 106.004L1457.8 103.865C1455.02 101.947 1451.19 102.952 1449.72 105.984L1443.25 119.305C1442.05 121.763 1439.24 122.972 1436.63 122.142L1429.76 119.948C1427.06 119.088 1424.15 120.414 1423.04 123.012L1416.2 138.886C1414.31 143.285 1408.08 143.328 1406.14 138.956L1402.59 131.051C1402.41 130.616 1402.15 130.207 1401.86 129.836L1391.96 117.615C1391.3 116.802 1390.89 115.819 1390.77 114.78L1388.04 90.8357C1387.92 89.7788 1387.49 88.7795 1386.82 87.959L1377.38 76.5156C1376.81 75.8275 1376.41 75.0115 1376.23 74.1381L1373.2 59.5944C1373.11 59.179 1372.98 58.7751 1372.8 58.3907L1369.27 50.8411C1367.17 46.3389 1360.65 46.714 1359.08 51.4276L1356.94 57.8084C1356.69 58.5729 1356.27 59.2721 1355.71 59.8563L1339.56 76.8505C1337.99 78.502 1335.57 79.0142 1333.46 78.1382L1325.97 75.0191C1323 73.7812 1319.6 75.3512 1318.62 78.4176L1313.22 95.2659C1312.59 97.2468 1310.89 98.7001 1308.83 99.0212L1303.74 99.8164C1302.12 100.07 1300.69 101.033 1299.86 102.444L1298.87 104.117C1297.18 106.969 1293.36 107.686 1290.75 105.643L1289.62 104.759C1288.43 103.833 1287.69 102.464 1287.54 100.969L1285.2 77.3646C1285.08 76.1361 1284.55 74.9841 1283.69 74.0944L1282.15 72.4907C1279.43 69.6591 1274.7 70.5161 1273.14 74.1234L1268.85 84.061L1258.08 119.718C1257.93 120.233 1257.84 120.768 1257.84 121.307V149.037C1257.84 149.932 1257.63 150.813 1257.21 151.604L1241.95 180.49C1241.77 180.823 1241.63 181.173 1241.52 181.535L1230.8 218.702C1230.72 218.996 1230.61 219.283 1230.48 219.559L1209.91 262.328C1209.77 262.64 1209.65 262.966 1209.56 263.3L1202.34 290.514C1202.19 291.053 1201.97 291.566 1201.68 292.038L1182.7 322.116L1168.71 352.062C1167.44 354.77 1164.25 355.971 1161.52 354.769L1161.26 354.66C1158 353.219 1154.24 355.238 1153.63 358.762L1152.3 366.531C1152.12 367.539 1151.67 368.479 1151 369.245L1142.46 378.895C1141.74 379.709 1141.27 380.718 1141.13 381.796L1139.71 392.194C1139.17 396.133 1134.76 398.217 1131.37 396.128L1125.85 392.72C1123.98 391.567 1121.61 391.636 1119.8 392.893L1112.45 398.045C1110.33 399.521 1107.49 399.336 1105.58 397.601L1099.94 392.455C1098.8 391.413 1098.15 389.94 1098.15 388.394V374.128C1098.15 372.911 1097.75 371.729 1097 370.766L1083.33 353.082C1082.69 352.262 1082.31 351.279 1082.21 350.247L1078.73 314.186C1078.67 313.596 1078.52 313.02 1078.28 312.479L1058.45 267.884C1058.28 267.522 1058.16 267.143 1058.08 266.755L1050.97 232.122C1050.84 231.466 1050.59 230.84 1050.23 230.275L1035.2 206.685C1034.75 205.97 1034.47 205.159 1034.38 204.317L1030.88 171.542C1030.82 171.037 1030.7 170.544 1030.51 170.073L1022.73 150.751C1020.6 145.445 1012.78 146.523 1012.17 152.21L1007.64 193.811C1007.59 194.241 1007.5 194.663 1007.35 195.07L981.332 267.694C980.879 268.961 979.976 270.017 978.796 270.663L965.03 278.197C962.75 279.445 959.907 278.926 958.216 276.954L952.001 269.708C950.741 268.24 948.801 267.54 946.893 267.869L940.295 269.007C938.015 269.399 935.735 268.324 934.588 266.318L927.862 254.555C926.442 252.073 923.356 251.093 920.764 252.302L912.52 256.147C911.792 256.486 910.999 256.661 910.195 256.661H892.795C891.065 256.661 889.436 257.476 888.397 258.86L872.335 280.261C870.556 282.633 867.215 283.165 864.786 281.466L856.627 275.76C855.703 275.113 854.602 274.767 853.475 274.767H848.176C846.459 274.767 844.842 275.567 843.802 276.932L838.546 283.825C838.198 284.281 837.923 284.79 837.733 285.332L815.622 348.153C814.848 350.354 812.768 351.827 810.436 351.827H809.494C807.345 351.827 805.393 353.078 804.497 355.029L793.991 377.904C793.336 379.329 792.105 380.406 790.604 380.866L760.227 390.175C758.877 390.589 757.736 391.507 757.045 392.739L744.624 414.847C743.766 416.376 742.228 417.404 740.486 417.613L722.741 419.741C721.035 419.946 719.521 420.937 718.653 422.419L701.754 451.25C701.252 452.107 700.526 452.813 699.654 453.291L688.363 459.479C687.216 460.107 686.331 461.124 685.866 462.346L678.155 482.625C677.894 483.311 677.499 483.937 676.993 484.466L648.959 513.838L627.306 542.691C626.882 543.257 626.352 543.735 625.746 544.1L592.753 563.972L562.643 580.59C561.974 580.958 561.238 581.184 560.478 581.252L515.866 585.264C515.409 585.306 514.959 585.403 514.526 585.556L469.859 601.337C469.416 601.495 468.954 601.594 468.486 601.632L411.285 606.415M1493.11 72.6844C1494.41 68.9579 1499.1 67.7754 1502.01 70.4391L1510.71 78.3843C1511.56 79.1696 1512.15 80.2071 1512.38 81.3473L1516.49 101.574C1516.71 102.703 1517.29 103.731 1518.14 104.513L1528.25 113.871C1529.87 115.383 1532.26 115.762 1534.28 114.829L1538.79 112.751C1539.51 112.418 1540.3 112.246 1541.09 112.246H1546.1C1547.81 112.246 1549.44 111.439 1550.47 110.064L1569.51 84.9157C1569.94 84.3512 1570.25 83.7096 1570.43 83.0262M1570.43 83.0262L1574.54 67.7075C1575.47 64.2925 1579.33 62.6198 1582.44 64.2835L1584.83 65.5544C1586.01 66.1837 1586.92 67.2218 1587.39 68.4742L1589.45 73.9633C1590.26 76.1085 1592.31 77.5295 1594.6 77.5295H1595.26C1596.99 77.5295 1598.63 76.7153 1599.66 75.3317L1605.81 67.1341C1606.12 66.7338 1606.47 66.3764 1606.87 66.0718L1615.96 59.0966C1618.63 57.0428 1622.51 57.8632 1624.13 60.825L1626.84 65.7672C1627.11 66.2732 1627.3 66.8194 1627.41 67.3858L1648.23 178.241L1669.71 253.041C1670.05 254.238 1670.79 255.284 1671.81 256.006L1696.22 273.325L1723.03 296.435C1723.62 296.945 1724.31 297.323 1725.06 297.544L1733.06 299.905C1734.38 300.295 1735.51 301.167 1736.21 302.348L1744.69 316.461C1745.77 318.261 1747.98 319.033 1749.95 318.296C1751.59 317.682 1753.44 318.11 1754.64 319.386M1570.43 83.0262L1555.55 64.3655C1555.18 63.9316 1554.87 63.4407 1554.64 62.9106L1532.09 10.4025C1531.23 8.38309 1529.24 7.07412 1527.04 7.07412C1527.04 7.07412 1522.55 10.4616 1519.8 6.61354C1517.05 2.76545 1515.18 0.896758 1514.85 1.11676C1514.3 1.66688 1512.33 8.85539 1512.21 10.6388L1510.64 33.423C1510.61 33.9469 1510.5 34.463 1510.31 34.9554L1498.15 68.9987M692.321 530.473L726.649 514.816C727.891 514.25 728.879 513.242 729.419 511.987L774.598 407.071C774.906 406.356 775.364 405.714 775.939 405.188L789.275 393.003C790.112 392.239 790.691 391.234 790.936 390.128L793.442 378.751M1754.64 319.386L1759.42 324.498M1754.64 319.386L1745.88 278.669C1745.7 277.662 1745.26 276.722 1744.59 275.954L1729.07 258.283C1728.49 257.626 1728.08 256.84 1727.87 255.99L1719.96 224.386C1719.19 221.296 1715.81 219.647 1712.9 220.932C1711.67 221.477 1710.27 221.513 1709.01 221.036L1700.97 217.994C1698.37 217.009 1695.45 218.121 1694.15 220.584L1682.77 242.329M1682.77 242.329L1663.96 233.019M1682.77 242.329C1682.04 243.707 1680.77 244.714 1679.26 245.102L1677.25 245.623C1675.69 246.025 1674.39 247.09 1673.67 248.536L1670.56 254.768M288.188 653.078L349.231 626.627C349.919 626.331 350.662 626.177 351.412 626.177H438.414C438.801 626.177 439.187 626.136 439.567 626.056L465.011 620.607L484.429 615.755C485.104 615.587 485.739 615.292 486.302 614.888L502.479 603.282C503.193 602.77 504.02 602.437 504.888 602.309L521.853 599.828C522.356 599.754 522.846 599.611 523.31 599.404L552.999 586.074C554.08 585.588 555.287 585.465 556.444 585.722L578.555 590.631C579.34 590.806 580.154 590.806 580.939 590.631L604.242 585.457C604.633 585.37 605.034 585.326 605.434 585.326H618.302M206.574 684.955L279.442 653.528C280.129 653.231 280.87 653.078 281.618 653.078H397.918C398.455 653.078 398.988 653 399.502 652.845L465.599 632.976C466.113 632.822 466.646 632.744 467.182 632.744H529.353C530.25 632.744 531.134 632.524 531.927 632.104L630.435 579.924C631.048 579.598 631.595 579.16 632.046 578.631L675.916 527.144C677.533 525.244 680.23 524.673 682.48 525.752L717.695 542.645C719.103 543.321 720.734 543.365 722.178 542.767L739.668 535.519C741.406 534.799 743.391 535.018 744.93 536.098L769.209 553.123C771.731 554.893 775.217 554.244 776.933 551.684L844.968 450.223C845.19 449.891 845.376 449.537 845.521 449.165L887.018 343.185C888.401 339.655 892.859 338.55 895.73 341.026L915.596 358.154C917.028 359.388 918.996 359.801 920.804 359.244L934.745 354.958C937.38 354.147 940.206 355.413 941.357 357.916L947.224 370.677C948.122 372.628 950.073 373.879 952.22 373.879H963.912C965.102 373.879 966.259 374.264 967.212 374.977L990.677 392.566C991.63 393.279 992.786 393.664 993.976 393.664H1015.88C1017.86 393.664 1019.7 394.735 1020.67 396.465L1036.19 424.045C1037.68 426.693 1041.04 427.63 1043.68 426.139L1065.16 414.042C1067.47 412.742 1070.37 413.27 1072.07 415.297L1080.61 425.475C1082.27 427.442 1085.06 428.004 1087.34 426.828L1097.18 421.762C1099.69 420.475 1102.76 421.284 1104.3 423.638L1142.33 481.692M104.473 722.334L199.224 685.332C199.861 685.084 200.54 684.955 201.224 684.955H384.978L449.874 678.361H488.979C490.02 678.361 491.039 678.065 491.918 677.509L542.588 645.474C543.794 644.711 545.25 644.448 546.648 644.738L569.358 649.467C570.346 649.672 571.37 649.602 572.321 649.265L593.93 641.586C595.025 641.197 596.217 641.165 597.332 641.495L624.07 649.412C624.888 649.655 625.752 649.703 626.594 649.554L673.623 641.198C674.407 641.06 675.211 641.091 675.979 641.294L708.36 649.781L740.518 657.037C741.772 657.32 743.085 657.155 744.229 656.571L768.307 644.285L826.442 622.23C827.27 621.915 828.011 621.405 828.6 620.743L893.136 548.188C893.509 547.768 893.817 547.293 894.046 546.78L930.257 465.863C931.768 462.487 936.115 461.536 938.898 463.972L984.376 503.797C985.789 505.034 987.737 505.465 989.54 504.939L1033.45 492.118C1034.83 491.718 1036.3 491.867 1037.56 492.533L1072.8 511.118C1074.31 511.914 1076.1 511.964 1077.65 511.255L1144.92 480.509C1145.72 480.144 1146.42 479.592 1146.97 478.899L1213.63 393.822C1215.73 391.15 1219.72 390.995 1222.01 393.498L1287.51 464.948C1288.85 466.408 1290.87 467.036 1292.8 466.591L1321.64 459.939C1323.91 459.416 1326.26 460.376 1327.52 462.334L1356.31 507.358C1358.04 510.063 1361.72 510.716 1364.27 508.774L1384.46 493.439C1386.04 492.237 1388.15 491.983 1389.97 492.773L1415.69 503.909C1418.18 504.987 1421.09 504.088 1422.53 501.79L1444.66 466.593C1446.01 464.437 1448.67 463.494 1451.08 464.314L1468.46 470.226C1470.99 471.083 1473.76 470.01 1475.04 467.678L1524.71 377.751C1526.51 374.482 1530.99 373.926 1533.54 376.651L1591.3 438.332C1592.22 439.299 1593.44 439.907 1594.76 440.043L1633.69 444.086C1634.59 444.179 1635.45 444.493 1636.19 444.998L1673.4 470.118C1674.88 471.115 1676.75 471.335 1678.41 470.706L1706.31 460.194C1708.16 459.497 1710.24 459.847 1711.77 461.11L1745.84 489.404C1747.39 490.693 1749.52 491.028 1751.39 490.28L1784.56 477.021C1786.02 476.438 1787.66 476.507 1789.05 477.208L1805.72 485.531C1808.15 486.748 1811.1 486.001 1812.67 483.775L1819.65 473.85C1821.87 470.696 1826.55 470.745 1828.71 473.943L1864.41 526.989C1865.43 528.507 1867.15 529.417 1868.97 529.417H1913.87C1915.62 529.417 1917.26 530.241 1918.29 531.639L1951.3 576.11C1952.33 577.507 1953.97 578.332 1955.7 578.332H2005.4C2006.35 578.332 2007.27 578.574 2008.1 579.036L2045.73 600.162C2046.55 600.624 2047.48 600.866 2048.42 600.866L2114.44 601.318C2115.51 601.318 2119.65 601.377 2120.55 601.964L2170.21 634.796C2170.92 635.254 2171.71 635.546 2172.54 635.653L2234.73 643.621C2235.33 643.697 2235.9 643.866 2236.43 644.125L2302.83 676.231C2303.48 676.549 2304.19 676.733 2304.92 676.772L2453.7 684.911C2454.24 684.941 2454.76 685.05 2455.28 685.233M2455.28 685.233L2552.03 721.498M2455.28 685.233L2366.06 655.488C2365.63 655.348 2365.19 655.26 2364.74 655.228L2261.52 647.626C2261.13 647.597 2260.73 647.524 2260.35 647.41L2216.93 634.392L2107.92 597.714C2107.63 597.617 2107.34 597.496 2107.08 597.352L2053.79 568.879C2052.59 568.241 2051.68 567.187 2051.21 565.916L2026.5 498.246C2025.39 495.21 2021.92 493.781 2018.99 495.158M2552.03 721.498L2667.9 764.099M2552.03 721.498C2551.55 721.321 2551.04 721.212 2550.53 721.175L2422.06 711.887L2288.42 709.139L2204.82 701.994L2090.98 687.155H1997.12C1996.64 687.155 1996.15 687.09 1995.68 686.963L1932.39 669.811C1931.8 669.649 1931.18 669.59 1930.57 669.632L1869.52 673.914C1869.04 673.947 1868.55 673.918 1868.08 673.826L1793.56 659.361C1792.76 659.206 1791.94 659.23 1791.14 659.433L1736.1 673.579C1735.12 673.831 1734.09 673.807 1733.12 673.511L1654.29 649.394C1653.93 649.287 1653.57 649.214 1653.21 649.179L1620.19 646.038C1619.48 645.97 1618.78 645.76 1618.14 645.422L1593.59 632.404C1592.66 631.908 1591.6 631.692 1590.55 631.783L1555.27 634.805C1554.22 634.894 1553.17 634.684 1552.24 634.197L1499.15 606.384C1497.8 605.669 1496.19 605.559 1494.74 606.078L1434.76 627.597C1433.42 628.078 1431.95 628.02 1430.65 627.437L1401.52 614.339C1400.33 613.803 1398.98 613.709 1397.72 614.076L1365.14 623.593C1364.34 623.828 1363.5 623.877 1362.67 623.735L1257.31 605.655C1255.85 605.404 1254.35 605.753 1253.15 606.619L1224.17 627.597C1223.48 628.091 1222.7 628.421 1221.87 628.562L1144.32 641.834C1143.35 642 1142.35 641.903 1141.43 641.554L1078.54 617.662C1077.11 617.115 1075.51 617.195 1074.13 617.883L1010.29 649.781L936.789 674.811C936.296 674.978 935.784 675.075 935.264 675.099L863.769 678.321C863.194 678.348 862.627 678.464 862.087 678.666L837.704 687.804C836.913 688.1 836.067 688.211 835.226 688.126L788.19 683.426C787.409 683.348 786.621 683.438 785.879 683.689L754.159 694.426C753.336 694.704 752.46 694.784 751.6 694.658L708.68 688.381C708.104 688.296 707.517 688.305 706.943 688.404L670.329 694.768C670.019 694.822 669.703 694.849 669.388 694.849H629.816C629.384 694.849 628.951 694.901 628.531 695.002L586.618 705.075C586.022 705.219 585.405 705.261 584.795 705.201L552.958 702.072C552.435 702.02 551.907 702.045 551.39 702.142L504.011 711.186C503.487 711.286 502.952 711.309 502.422 711.256L444.4 705.351C444.017 705.311 443.632 705.312 443.251 705.354L332.181 717.383L108.251 721.213C107.585 721.224 106.927 721.357 106.308 721.603L1.09961 763.55M2018.99 495.158L1988.14 509.695C1986.74 510.355 1985.12 510.394 1983.69 509.804L1962.72 501.146C1961.39 500.596 1959.89 500.591 1958.55 501.132L1920.9 516.374C1918.69 517.269 1916.16 516.637 1914.62 514.809L1880.74 474.379C1880.47 474.065 1880.18 473.782 1879.86 473.534L1819.12 427.343C1818.52 426.88 1818.01 426.295 1817.64 425.625L1763.5 327.591C1762.95 326.597 1762.1 325.797 1761.08 325.301L1727.03 308.802C1726.58 308.585 1726.16 308.309 1725.79 307.98L1691.97 278.222C1690.45 276.883 1688.32 276.49 1686.42 277.198L1662.52 286.105C1659.55 287.209 1656.28 285.593 1655.34 282.571L1621.59 172.935C1620.58 169.67 1616.87 168.103 1613.83 169.659L1597.36 178.076C1596.47 178.529 1595.74 179.214 1595.21 180.056L1583.24 199.184C1582.61 200.202 1581.65 200.982 1580.53 201.409L1541.97 216.043C1540.04 216.778 1537.85 216.364 1536.32 214.972L1516.18 196.685C1515.17 195.766 1513.85 195.256 1512.49 195.256H1503.35C1501.17 195.256 1499.19 193.973 1498.31 191.983L1491.81 177.284C1489.93 173.044 1483.97 172.889 1481.87 177.027L1467.3 205.83C1465.5 209.383 1460.64 209.905 1458.12 206.814L1422.38 162.812C1420.27 160.212 1416.34 160.089 1414.06 162.552L1393.33 185.029C1392.8 185.611 1392.4 186.303 1392.15 187.056L1357.56 293.47C1357.41 293.945 1357.19 294.396 1356.91 294.813L1313.5 360.152C1313.02 360.866 1312.38 361.459 1311.65 361.884L1291.2 373.559C1290.21 374.124 1289.42 374.984 1288.94 376.017L1261.08 435.984M2018.99 495.158L1963.45 469.097C1962.7 468.723 1961.86 468.528 1961.02 468.528H1947.75C1945.95 468.528 1944.26 467.642 1943.22 466.158L1934.99 454.238C1934.66 453.772 1934.27 453.358 1933.82 453.012L1923.25 444.862C1922.38 444.19 1921.73 443.274 1921.39 442.231L1902.28 384.295L1888.14 355.647C1886.9 353.128 1883.95 351.952 1881.32 352.918L1880.77 353.121C1879.82 353.464 1879 354.056 1878.37 354.832L1865.65 370.623L1846.79 394.347C1845.74 395.658 1844.16 396.424 1842.48 396.424H1835.42C1834.55 396.424 1833.7 396.627 1832.93 397.017L1820.83 403.152C1819.57 403.786 1818.13 403.918 1816.78 403.521L1803.97 400.871M1087.26 358.166L1109.49 320.188C1110.48 318.523 1112.27 317.503 1114.21 317.503H1121.85C1123.44 317.503 1124.97 316.805 1126.01 315.595L1146.14 292.262C1146.38 291.983 1146.65 291.728 1146.94 291.502L1154.6 285.588C1155.65 284.772 1156.38 283.596 1156.63 282.285L1175.47 185.201C1175.64 184.34 1176.01 183.531 1176.55 182.843L1193.3 161.615C1193.68 161.131 1193.98 160.588 1194.18 160.007L1202.88 134.853C1204.78 129.335 1212.84 130.201 1213.53 135.998L1217.17 166.59C1217.28 167.492 1217.61 168.352 1218.13 169.096L1237.2 196.518M1163.6 246.329L1144.6 254.685C1142.77 255.499 1140.64 255.254 1139.05 254.047L1127.35 245.203C1126.03 244.201 1124.31 243.852 1122.7 244.254L1103.15 249.139C1102.55 249.291 1101.91 249.338 1101.3 249.278L1082.34 247.457C1080.4 247.27 1078.51 248.122 1077.36 249.697L1060.59 272.706M1783.47 363.765L1787.97 363.125C1789.4 363.125 1790.77 363.68 1791.79 364.672L1795.43 368.195C1796.46 369.186 1797.83 369.742 1799.26 369.742H1808.54C1809.39 369.742 1810.22 369.936 1810.98 370.31L1826.2 377.83C1827.95 378.693 1830.03 378.568 1831.66 377.499L1868.23 353.528C1869 353.026 1869.88 352.723 1870.8 352.648L1883.16 352.582M516.991 568.125L549.118 551.793C550.098 551.288 551.207 551.09 552.3 551.225L571.927 553.578M556.655 551.747L585.169 539.373C585.98 539.031 586.863 538.889 587.741 538.959L611.128 540.686" stroke="#07648D"/>
</g>
</g>
<defs>
<clipPath id="clip0_296_227">
<rect width="2669" height="763" fill="white"/>
</clipPath>
</defs>
</svg>
