<svg width="58" height="54" viewBox="0 0 58 54" fill="none" xmlns="http://www.w3.org/2000/svg">
<path d="M43.9926 39.1988C43.7976 39.1988 43.5988 39.1369 43.4301 39.0094C43.0157 38.6981 42.9332 38.1113 43.2444 37.6969C45.5788 34.5938 46.8126 30.8944 46.8126 27C46.8126 25.7775 46.6869 24.5531 46.4394 23.3625C46.3344 22.8544 46.6607 22.3594 47.1669 22.2544C47.6713 22.1494 48.1701 22.4756 48.2751 22.9819C48.5488 24.2981 48.6876 25.65 48.6876 27C48.6876 31.3031 47.3226 35.3944 44.7426 38.8256C44.5569 39.0713 44.2757 39.1988 43.9926 39.1988Z" fill="white"/>
<path d="M10.655 31.845C10.2219 31.845 9.83188 31.5413 9.73813 31.1007C9.45688 29.7563 9.3125 28.3763 9.3125 27C9.3125 22.7157 10.6644 18.6413 13.2237 15.2213C13.5331 14.805 14.1219 14.7188 14.5363 15.0319C14.9506 15.3432 15.0369 15.93 14.7256 16.3444C12.41 19.4382 11.1875 23.1225 11.1875 27C11.1875 28.2469 11.3169 29.4975 11.5737 30.7144C11.6806 31.2207 11.3563 31.7175 10.85 31.8244C10.7844 31.8394 10.7188 31.845 10.655 31.845Z" fill="white"/>
<path d="M31.8125 36.375H26.1875C25.67 36.375 25.25 35.955 25.25 35.4375V30.75H20.5625C20.045 30.75 19.625 30.33 19.625 29.8125V24.1875C19.625 23.67 20.045 23.25 20.5625 23.25H25.25V18.5625C25.25 18.045 25.67 17.625 26.1875 17.625H31.8125C32.33 17.625 32.75 18.045 32.75 18.5625V23.25H37.4375C37.955 23.25 38.375 23.67 38.375 24.1875V29.8125C38.375 30.33 37.955 30.75 37.4375 30.75H32.75V35.4375C32.75 35.955 32.33 36.375 31.8125 36.375ZM27.125 34.5H30.875V29.8125C30.875 29.295 31.295 28.875 31.8125 28.875H36.5V25.125H31.8125C31.295 25.125 30.875 24.705 30.875 24.1875V19.5H27.125V24.1875C27.125 24.705 26.705 25.125 26.1875 25.125H21.5V28.875H26.1875C26.705 28.875 27.125 29.295 27.125 29.8125V34.5Z" fill="white"/>
<path d="M33.0144 53.2499H23.1875C21.3556 53.2499 19.5669 52.8412 17.87 52.0349L11.3019 48.8437C9.61812 48.0356 7.82375 47.6249 5.97687 47.6249H1.8125C1.295 47.6249 0.875 47.2049 0.875 46.6874C0.875 46.1699 1.295 45.7499 1.8125 45.7499H5.97687C8.10687 45.7499 10.1731 46.2224 12.1175 47.1562L18.6837 50.3456C20.12 51.0262 21.6369 51.3749 23.1875 51.3749H32.8269L41.015 47.9962C41.015 47.9174 41.1256 47.1918 40.7656 46.575C40.2162 45.63 38.9469 45.6 37.985 45.7406C36.5881 45.9562 35.4331 46.3443 34.415 46.6874L34.0287 46.8168C33.5356 46.9762 33.0069 46.7156 32.8437 46.2225C32.6806 45.7312 32.9469 45.2006 33.4381 45.0375L33.8169 44.9118C34.9081 44.5443 36.1437 44.1281 37.7075 43.8881C41.5737 43.3256 42.5394 45.7406 42.7475 46.4924C43.0906 47.7318 42.8056 49.2824 41.735 49.7306L33.3706 53.1825C33.2581 53.2256 33.1362 53.2499 33.0144 53.2499Z" fill="white"/>
<path d="M20.8156 39.8944C20.4631 39.8944 20.1238 39.6938 19.9644 39.3525C18.1269 35.3981 13.3531 34.8319 9.80375 36.3038C9.68938 36.3506 9.5675 36.375 9.44375 36.375H1.8125C1.295 36.375 0.875 35.955 0.875 35.4375C0.875 34.92 1.295 34.5 1.8125 34.5H9.26188C14.3375 32.4844 19.6419 34.215 21.6669 38.5631C21.8844 39.0319 21.6819 39.5906 21.2113 39.81C21.0819 39.8663 20.9488 39.8944 20.8156 39.8944Z" fill="white"/>
<path d="M29.7012 48.7932C29.5793 48.7932 29.4574 48.7688 29.3431 48.7219L18.6068 44.265C18.1287 44.0663 17.9018 43.5188 18.1006 43.0388C18.2993 42.5607 18.8487 42.3357 19.3268 42.5325L29.1199 46.5975C29.5306 44.6644 28.4731 43.1607 25.9606 42.12L20.4424 39.8288C19.9643 39.63 19.7374 39.0807 19.9362 38.6025C20.1349 38.1244 20.6843 37.8975 21.1624 38.0963L26.6787 40.3875C30.5431 41.9888 31.9606 44.8407 30.5674 48.21C30.4718 48.4407 30.2899 48.6244 30.0593 48.7182C29.9449 48.7688 29.8231 48.7932 29.7012 48.7932Z" fill="white"/>
<path d="M19.1956 10.1981C16.2463 10.1981 15.44 8.18438 15.2525 7.50938C14.9094 6.27 15.1944 4.71938 16.265 4.27125L24.6294 0.819375C24.7419 0.774375 24.8638 0.75 24.9856 0.75H34.8106C36.6425 0.75 38.4313 1.15875 40.1281 1.965L46.6963 5.15625C48.3819 5.96438 50.1763 6.375 52.0231 6.375H56.1875C56.705 6.375 57.125 6.795 57.125 7.3125C57.125 7.83 56.705 8.25 56.1875 8.25H52.0231C49.8931 8.25 47.8269 7.7775 45.8825 6.84375L39.3163 3.65625C37.88 2.97375 36.3631 2.625 34.8125 2.625H25.1731L16.9831 6.00375C16.9831 6.0825 16.8725 6.80813 17.2325 7.425C17.7838 8.37 19.0494 8.4 20.0131 8.25938C21.41 8.04375 22.565 7.65563 23.5831 7.3125L23.9694 7.18313C24.4625 7.02188 24.9913 7.28438 25.1544 7.7775C25.3175 8.26875 25.0513 8.79938 24.56 8.9625L24.1813 9.08813C23.09 9.45563 21.8544 9.87188 20.2906 10.1119C19.8969 10.1719 19.5313 10.1981 19.1956 10.1981Z" fill="white"/>
<path d="M44.4857 20.3344C40.9419 20.3344 37.7882 18.5644 36.3332 15.4369C36.1157 14.9682 36.3182 14.4094 36.7888 14.19C37.2594 13.9725 37.8163 14.1769 38.0357 14.6457C39.8713 18.5982 44.6432 19.1625 48.1963 17.6944C48.3107 17.6494 48.4325 17.625 48.5563 17.625H56.1875C56.705 17.625 57.125 18.045 57.125 18.5625C57.125 19.08 56.705 19.5 56.1875 19.5H48.7382C47.3132 20.0644 45.8694 20.3344 44.4857 20.3344Z" fill="white"/>
<path d="M37.1975 15.975C37.0775 15.975 36.9556 15.9525 36.8375 15.9037L31.3213 13.6125C27.4569 12.0112 26.0394 9.15933 27.4325 5.78996C27.5281 5.55933 27.71 5.37558 27.9406 5.28183C28.1713 5.18808 28.4281 5.18621 28.6588 5.28183L39.395 9.73871C39.8731 9.93746 40.1 10.485 39.9012 10.965C39.7025 11.445 39.1569 11.6681 38.675 11.4712L28.8819 7.40621C28.4713 9.33933 29.5288 10.8431 32.0413 11.8837L37.5594 14.175C38.0375 14.3737 38.2644 14.9231 38.0656 15.4012C37.9137 15.7575 37.565 15.975 37.1975 15.975Z" fill="white"/>
<path d="M41.2156 42.0656C40.9756 42.0656 40.7356 41.9737 40.5518 41.7918C40.1862 41.4262 40.1862 40.8318 40.5518 40.4662C40.9193 40.1006 41.5774 40.035 41.9431 40.4006C42.3087 40.7662 42.3743 41.295 42.0087 41.6606L41.8774 41.7918C41.6956 41.9737 41.4556 42.0656 41.2156 42.0656Z" fill="white"/>
<path d="M16.8406 13.9406C16.5987 13.9406 16.3568 13.8468 16.1731 13.6612C15.8093 13.2918 15.8131 12.6993 16.1825 12.3356L16.3156 12.2043C16.6831 11.8406 17.2775 11.8443 17.6412 12.2137C18.005 12.5831 18.0012 13.1756 17.6318 13.5393L17.4987 13.6706C17.3168 13.8506 17.0787 13.9406 16.8406 13.9406Z" fill="white"/>
</svg>
