<svg width="60" height="60" viewBox="0 0 60 60" fill="none" xmlns="http://www.w3.org/2000/svg">
<path d="M11.7536 53.3541C10.6908 53.0317 9.78575 52.3549 9.17838 51.45C9.21275 51.4222 9.2475 51.3952 9.28125 51.3665C9.70175 51.0085 9.75238 50.3772 9.39425 49.9569C9.03625 49.5364 8.40513 49.4856 7.98463 49.8439C7.67375 50.1085 7.32025 50.3102 6.93388 50.4435L3.54738 51.6111C1.42562 52.3426 0 54.3421 0 56.5865V58.1875C0 58.7397 0.44775 59.1875 1 59.1875C1.55225 59.1875 2 58.7397 2 58.1875V56.5864C2 55.1949 2.88388 53.9551 4.19938 53.5016L7.40888 52.3949C8.27 53.7647 9.59963 54.7904 11.1731 55.2676C11.7004 55.4279 12.2598 55.1304 12.4204 54.601C12.5806 54.0727 12.2821 53.5144 11.7536 53.3541Z" fill="white"/>
<path d="M56.4527 51.6108L53.0662 50.4432C51.9446 50.0565 51.1389 49.0977 50.9252 47.9615C53.5764 46.5795 55.4387 43.8872 55.6477 40.7483C56.8078 40.3447 57.6434 39.2417 57.6442 37.9465V30.5147C57.6454 28.7201 56.5218 27.0692 54.5818 26.5045L54.6557 26.3095C55.2154 24.8331 54.1238 23.2471 52.5436 23.2461H47.6228C47.0706 23.2461 46.6228 23.6938 46.6228 24.2461C46.6228 24.7983 47.0706 25.2461 47.6228 25.2461H52.5428C52.7276 25.2463 52.8493 25.4321 52.7854 25.6005L52.3277 26.8078C52.1209 27.3532 52.4233 27.9596 52.9836 28.1226L54.0749 28.4398C55.0141 28.713 55.6447 29.5461 55.6439 30.514V35.5178C55.5277 35.008 55.0439 34.6811 54.5378 34.7486C51.3912 35.1665 48.1743 34.5956 45.3902 33.1433C45.7002 31.8121 45.3959 30.4628 44.6291 29.3953C45.6759 27.0826 44.7379 24.4242 42.4139 23.4018C42.3251 20.0407 39.0586 18.1476 35.9943 19.3196C34.3679 17.7466 31.9566 17.5023 29.9997 18.6597C28.0441 17.5035 25.6328 17.7453 24.0051 19.3196C20.9453 18.1492 17.6744 20.0365 17.5854 23.4018C15.2617 24.4241 14.3234 27.0825 15.3703 29.3953C14.2426 30.9652 14.2314 32.9532 15.1454 34.4605C13.0717 33.9625 11.1189 33.0336 9.40268 31.7181C8.87018 31.3098 8.09568 31.5324 7.85893 32.1581C7.36781 33.4569 6.34643 34.4117 5.05681 34.7781C4.71281 34.8757 4.45718 35.1476 4.36731 35.4808V30.3013C4.36768 29.6807 4.87393 29.1762 5.49581 29.1762C5.90893 29.1762 6.27431 28.9251 6.42543 28.5483C7.22956 26.542 9.14643 25.2462 11.3107 25.2462H12.2214C12.7737 25.2462 13.2214 24.7985 13.2214 24.2462C13.2214 23.694 12.7737 23.2462 12.2214 23.2462H11.3099C8.52881 23.2462 6.04243 24.7988 4.81793 27.2502C3.41868 27.5603 2.36843 28.81 2.36743 30.3006V37.9733C2.36656 39.2673 3.20381 40.3533 4.35193 40.7471C4.71181 46.1637 9.91956 50.045 15.2861 48.6805C15.6047 49.9077 16.3581 50.9813 17.4022 51.6982C15.8592 52.7965 14.8973 54.5916 14.8973 56.5526V58.1876C14.8973 58.7398 15.3451 59.1876 15.8973 59.1876C16.4496 59.1876 16.8973 58.7398 16.8973 58.1876V56.5526C16.8973 54.8647 17.9693 53.3611 19.5649 52.8107L23.4203 51.4813C25.3558 54.6791 29.3303 56.0405 32.8288 54.6507C33.3421 54.4468 33.5928 53.8655 33.3889 53.3522C33.1851 52.839 32.6041 52.5885 32.0903 52.7921C29.5579 53.7981 26.6557 52.8573 25.1907 50.544C25.3084 50.4533 25.4241 50.3597 25.5356 50.26C25.9471 49.8915 25.9818 49.2592 25.6134 48.8478C25.2451 48.4365 24.6129 48.4017 24.2014 48.77C23.8081 49.1222 23.3541 49.3887 22.8518 49.5618L19.8054 50.6121L19.3158 50.4432C18.1943 50.0566 17.3888 49.0981 17.1749 47.962C18.1031 47.4804 18.9484 46.8342 19.6618 46.042C20.0314 45.6316 19.9983 44.9992 19.5878 44.6296C19.1774 44.2601 18.5451 44.2933 18.1756 44.7036C16.8881 46.1333 15.0471 46.9535 13.1246 46.9535C9.37793 46.9535 6.32993 43.9053 6.32993 40.1588V36.4461C7.50668 35.9478 8.48893 35.1006 9.16806 34.006C11.6348 35.64 14.4667 36.6131 17.4279 36.8354C18.1752 36.8885 18.7101 36.1403 18.4268 35.4558C18.3632 35.3021 18.3094 35.138 18.2671 34.9681C18.2021 34.7078 18.0353 34.4846 17.8043 34.3485C16.2267 33.4195 16.0884 31.4318 17.2863 30.2167C17.6172 29.881 17.6688 29.3598 17.4099 28.9657C16.4289 27.4721 17.0316 25.521 18.8576 25.075C19.3521 24.9541 19.6769 24.4811 19.6121 23.9761C19.2869 21.4448 21.7367 20.2681 23.7669 21.4117C24.2042 21.6583 24.7562 21.5422 25.0574 21.141C26.1367 19.7035 28.0328 19.5691 29.3707 20.6513C29.7376 20.948 30.2617 20.948 30.6286 20.6513C31.9674 19.5682 33.8634 19.7046 34.9418 21.141C35.2432 21.5422 35.7952 21.6583 36.2323 21.4117C38.2574 20.2708 40.7132 21.4381 40.3871 23.9761C40.3222 24.4811 40.6471 24.9541 41.1416 25.075C42.9687 25.5213 43.5693 27.4735 42.5892 28.9657C42.3304 29.3597 42.3819 29.881 42.7128 30.2167C43.9342 31.4557 43.7427 33.4371 42.1948 34.3485C41.9637 34.4846 41.7969 34.708 41.7321 34.9682C41.4561 36.0751 40.7879 36.6937 40.0652 36.974V32.3462C40.0652 31.8698 39.7293 31.4597 39.2624 31.3658C37.8949 31.0908 37.0068 29.9983 37.3999 28.5793C37.6294 27.7512 36.7717 27.037 35.9988 27.4132C34.8394 27.9773 33.5168 27.8857 32.4607 27.1686C32.0152 26.8661 31.4107 26.9705 31.0924 27.4046C30.5567 28.1356 29.4446 28.1385 28.9067 27.4046C28.5886 26.9706 27.9839 26.8661 27.5384 27.1686C26.4822 27.8857 25.1596 27.9772 24.0003 27.4132C23.2286 27.0371 22.3694 27.7505 22.5992 28.5793C22.9856 29.974 22.1311 31.0853 20.7367 31.3658C20.2698 31.4597 19.9339 31.8698 19.9339 32.3462V37.5592C19.9899 42.6293 23.8023 46.8695 28.8448 47.4462C29.3934 47.5093 29.8892 47.1151 29.9519 46.5663C30.0147 46.0176 29.6208 45.522 29.0719 45.4592C25.0026 44.9938 21.9339 41.549 21.9339 37.4462V33.0962C23.4139 32.5348 24.4867 31.2855 24.6657 29.7068C25.7724 29.8931 26.9043 29.7357 27.9286 29.2451C29.1306 30.1902 30.8682 30.1902 32.0706 29.2451C33.0948 29.7358 34.2263 29.893 35.3334 29.7068C35.5114 31.2795 36.5782 32.5322 38.0654 33.0962V37.446C38.0654 40.7165 36.1147 43.6413 33.0954 44.8972C32.7226 45.0523 32.4796 45.4166 32.4796 45.8206C32.4796 48.361 34.0934 50.6243 36.4953 51.4525L40.4341 52.8106C42.0299 53.3607 43.1021 54.8646 43.1021 56.5526V58.1876C43.1021 58.7398 43.5498 59.1876 44.1021 59.1876C44.6543 59.1876 45.1021 58.7398 45.1021 58.1876V56.5526C45.1021 54.0117 43.4881 51.7481 41.0861 50.9197L41.0852 50.9223C41.0892 50.9098 41.1947 50.9573 37.1474 49.5617C35.7498 49.0798 34.7539 47.8667 34.5281 46.4392C37.4256 44.9827 39.4167 42.2435 39.9321 39.0807C41.6157 38.7693 42.9896 37.559 43.5586 35.8463C43.9242 35.5871 44.2446 35.2818 44.5157 34.9423C47.3176 36.3918 50.5009 37.055 53.6693 36.8438V40.159C53.6693 43.9056 50.6213 46.9536 46.8747 46.9536C44.7132 46.9536 42.6603 45.9098 41.3834 44.1615C41.0577 43.7156 40.4321 43.618 39.9861 43.9437C39.5401 44.2695 39.4426 44.8951 39.7683 45.3412C40.5794 46.4518 41.6329 47.342 42.8262 47.9611C42.7769 48.225 42.6961 48.4817 42.5817 48.7285C42.2724 49.3963 42.7663 50.149 43.4884 50.149C43.8659 50.149 44.2274 49.934 44.3964 49.569C44.5299 49.2806 44.6346 48.9837 44.7133 48.6808C46.1568 49.049 47.6366 49.0392 49.0368 48.684C49.3209 49.7751 49.9484 50.7447 50.8188 51.4497C50.0654 52.5657 48.8547 53.3347 47.5013 53.5156C46.9539 53.5888 46.5694 54.0918 46.6427 54.6393C46.7156 55.1847 47.2164 55.5711 47.7664 55.498C49.7561 55.2318 51.5292 54.071 52.5888 52.3946L55.8001 53.5017C57.1162 53.9553 58.0001 55.195 58.0001 56.5865V58.1875C58.0001 58.7397 58.4478 59.1875 59.0001 59.1875C59.5523 59.1875 60.0001 58.7397 60.0001 58.1875V56.5863C60.0001 54.3421 58.5744 52.3426 56.4527 51.6108Z" fill="white"/>
<path d="M32.6993 40.06C32.3089 39.6692 31.6758 39.6688 31.2851 40.0592C30.5754 40.7675 29.4216 40.767 28.7129 40.0574C28.3227 39.6665 27.6896 39.6659 27.2987 40.0565C26.9079 40.4468 26.9076 41.08 27.2978 41.4707C28.7844 42.9593 31.2072 42.9634 32.6984 41.474C33.0891 41.0839 33.0896 40.4509 32.6993 40.06Z" fill="white"/>
<path d="M29.0601 15.2453C29.6606 15.3958 30.3101 15.4031 30.94 15.2453C34.682 14.3076 36.5486 11.21 37.0102 8.84242C37.4663 6.50292 36.7396 5.1118 36.0496 4.35667C35.6771 3.9488 35.0446 3.92055 34.6368 4.29292C34.2291 4.66542 34.2006 5.29805 34.5732 5.7058C36.0596 7.3323 34.6708 12.2484 30.4538 13.3053C30.157 13.3796 29.8431 13.3796 29.5463 13.3053C26.7148 12.5957 25.3022 10.2514 24.953 8.45955C24.2133 4.6658 27.6595 4.35167 29.3421 5.8223C29.758 6.18542 30.3897 6.14305 30.7531 5.7273C31.1165 5.31142 31.074 4.67967 30.6581 4.31617C27.4942 1.55167 21.8902 3.20142 22.99 8.8423C23.4513 11.21 25.3181 14.3076 29.0601 15.2453Z" fill="white"/>
<path d="M11.375 9.56262H17.875C18.4273 9.56262 18.875 9.11487 18.875 8.56262C18.875 8.01037 18.4273 7.56262 17.875 7.56262H11.375C10.8228 7.56262 10.375 8.01037 10.375 8.56262C10.375 9.11487 10.8228 9.56262 11.375 9.56262Z" fill="white"/>
<path d="M16.8203 2.64458L19.4453 4.39458C19.6158 4.50821 19.8085 4.56271 19.9991 4.56271C20.9828 4.56271 21.378 3.27921 20.5547 2.73058L17.9297 0.980583C17.4702 0.674208 16.8493 0.798333 16.543 1.25796C16.2366 1.71733 16.3607 2.33833 16.8203 2.64458Z" fill="white"/>
<path d="M19.4454 12.7305L16.8204 14.4805C16.3609 14.7867 16.2367 15.4077 16.5431 15.8672C16.8502 16.328 17.4713 16.4502 17.9298 16.1446L20.5548 14.3946C21.0143 14.0883 21.1386 13.4673 20.8322 13.0078C20.5258 12.5482 19.9048 12.4241 19.4454 12.7305Z" fill="white"/>
<path d="M41.125 8.56262C41.125 9.11487 41.5728 9.56262 42.125 9.56262H48.625C49.1773 9.56262 49.625 9.11487 49.625 8.56262C49.625 8.01037 49.1773 7.56262 48.625 7.56262H42.125C41.5728 7.56262 41.125 8.01037 41.125 8.56262Z" fill="white"/>
<path d="M40.0009 4.56259C40.1915 4.56259 40.3842 4.50809 40.5547 4.39446L43.1797 2.64446C43.6392 2.33821 43.7634 1.71721 43.457 1.25771C43.1507 0.798089 42.5299 0.673964 42.0703 0.980339L39.4453 2.73034C38.6213 3.27971 39.0183 4.56259 40.0009 4.56259Z" fill="white"/>
<path d="M39.4453 14.3946L42.0703 16.1446C42.2408 16.2583 42.4335 16.3128 42.6241 16.3128C43.6078 16.3128 44.003 15.0293 43.1797 14.4807L40.5547 12.7307C40.0952 12.4244 39.4743 12.5484 39.168 13.008C38.8616 13.4674 38.9857 14.0884 39.4453 14.3946Z" fill="white"/>
</svg>
