<svg width="252" height="164" viewBox="0 0 252 164" fill="none" xmlns="http://www.w3.org/2000/svg">
<g clip-path="url(#clip0_494_1273)">
<path fill-rule="evenodd" clip-rule="evenodd" d="M142.686 24.6589C151.291 25.7232 157.428 33.5579 156.363 42.1851C155.299 50.7897 147.464 56.9261 138.837 55.8619C130.232 54.7976 124.096 46.9629 125.16 38.3357C126.225 29.7311 134.059 23.6173 142.686 24.6589ZM158.922 19.8585C158.379 20.2661 157.586 20.1302 157.201 19.5868C156.839 19.066 156.907 18.364 157.382 17.9338L162.726 13.6541C163.247 13.2013 164.017 13.2465 164.47 13.7673C164.923 14.2881 164.877 15.058 164.356 15.5109C164.334 15.5335 164.311 15.5562 164.266 15.5788L158.922 19.8585ZM152.378 13.6768C152.129 14.3108 151.427 14.6278 150.793 14.4014C150.159 14.1523 149.842 13.4503 150.068 12.8163C150.068 12.8163 150.068 12.8163 150.068 12.7937L152.559 6.40816C152.808 5.77414 153.533 5.45713 154.167 5.72885C154.801 5.97793 155.095 6.67988 154.869 7.31391L152.378 13.6994V13.6768ZM143.796 12.6352C143.909 13.3145 143.456 13.9485 142.777 14.0617C142.098 14.1749 141.464 13.7221 141.351 13.0427C141.351 13.0427 141.351 12.9975 141.351 12.9748L140.309 6.20437C140.218 5.52506 140.671 4.89104 141.351 4.80046C142.03 4.70989 142.664 5.16276 142.754 5.84207L143.796 12.6125V12.6352ZM109.446 19.2698C109.468 17.6168 110.827 16.3034 112.48 16.3487C114.088 16.3714 115.378 17.6621 115.401 19.2698L113.657 39.8755C113.657 40.5548 113.069 41.0982 112.389 41.0756C111.733 41.0756 111.212 40.5321 111.189 39.8755L109.446 19.2698ZM112.435 43.1814C113.861 43.1814 115.016 44.3363 115.016 45.7628C115.016 47.1894 113.861 48.3442 112.435 48.3442C111.008 48.3442 109.853 47.1894 109.853 45.7628C109.853 44.3363 111.008 43.1814 112.435 43.1814ZM126.428 53.5069C126.428 53.5069 126.519 53.5975 126.564 53.6428C132.089 59.4849 140.649 61.3416 148.121 58.33C148.687 58.1036 149.344 58.33 149.661 58.8508L151.631 62.2474L154.416 60.6397L152.491 57.3111C152.152 56.8129 152.219 56.1562 152.65 55.7487C152.65 55.7487 152.718 55.6807 152.763 55.6581C161.277 49.0461 162.794 36.7733 156.182 28.2593C149.57 19.7453 137.297 18.2281 128.783 24.8401C120.269 31.452 118.752 43.7249 125.364 52.2389C125.704 52.6691 126.066 53.0994 126.428 53.5069ZM125.07 55.6581C131.048 61.7266 139.992 63.8324 148.03 61.002L149.457 63.4928L148.574 64.0136C147.985 64.3532 147.781 65.1005 148.121 65.6892L154.529 76.8072C156.273 79.8415 160.167 80.8831 163.202 79.1395C166.168 77.4186 167.255 73.6598 165.625 70.6482C165.602 70.5803 165.557 70.5123 165.511 70.4444L159.148 59.4396C158.854 58.8282 158.107 58.5791 157.495 58.8735C157.473 58.8735 157.45 58.8961 157.428 58.9188L156.544 59.4396L155.095 56.9488C164.311 49.0235 165.375 35.1429 157.45 25.927C149.661 16.8695 136.052 15.6694 126.813 23.255L116.465 2.49081C115.356 0.271733 112.661 -0.656657 110.419 0.452882C109.536 0.883111 108.834 1.60771 108.381 2.49081L85.0811 49.1367C83.9715 51.3558 84.8546 54.073 87.0964 55.1826C87.7304 55.4996 88.4097 55.6581 89.1343 55.6581H125.092H125.07ZM124.934 24.9533L114.269 3.60035C113.771 2.58138 112.548 2.1738 111.529 2.6946C111.121 2.8984 110.804 3.21541 110.623 3.60035L87.3001 50.2463C86.802 51.2426 87.1869 52.4653 88.1832 52.9635C88.4776 53.122 88.7946 53.1899 89.1116 53.1899H122.964C116.692 44.5627 117.507 32.6521 124.934 24.976V24.9533ZM157.609 61.6587L163.451 71.7577C164.515 73.6145 163.881 75.9921 162.024 77.0563C160.167 78.1206 157.79 77.4866 156.726 75.6298L150.883 65.5307L157.609 61.6587ZM151.653 38.7886C150.997 33.8296 147.079 29.9349 142.098 29.3235C141.418 29.233 140.807 29.7311 140.717 30.4104C140.626 31.0897 141.124 31.7011 141.803 31.7917C145.653 32.2672 148.687 35.2788 149.208 39.1282C149.298 39.8075 149.91 40.2831 150.589 40.1925C151.268 40.1019 151.744 39.4905 151.653 38.8112V38.7886ZM151.201 32.0861C146.694 26.3119 138.384 25.293 132.633 29.799C126.881 34.3051 125.84 42.6154 130.346 48.3668C134.852 54.141 143.162 55.1599 148.913 50.6538C154.665 46.1478 155.707 37.8375 151.201 32.0861Z" fill="white"/>
</g>
<path d="M0.0867656 116.172H3.45277V131H0.0867656V116.172ZM13.2698 115.38H16.6138V127.788C16.6138 128.998 16.6578 130.274 16.7018 131H13.7318L13.5778 129.416H13.5338C12.8518 130.626 11.5538 131.242 10.1678 131.242C7.61575 131.242 5.56975 129.064 5.56975 125.72C5.54775 122.09 7.81375 120 10.3878 120C11.7078 120 12.7418 120.462 13.2258 121.21H13.2698V115.38ZM13.2698 126.204V124.796C13.2698 124.62 13.2478 124.378 13.2258 124.202C13.0278 123.3 12.3018 122.552 11.2678 122.552C9.74975 122.552 8.95775 123.916 8.95775 125.61C8.95775 127.436 9.85975 128.58 11.2458 128.58C12.2138 128.58 12.9838 127.92 13.1818 126.974C13.2478 126.732 13.2698 126.49 13.2698 126.204ZM28.7952 126.688H21.8652C21.9752 128.074 23.3392 128.734 24.9012 128.734C26.0452 128.734 26.9692 128.58 27.8712 128.294L28.3112 130.56C27.2112 131 25.8692 131.242 24.4172 131.242C20.7652 131.242 18.6752 129.108 18.6752 125.742C18.6752 123.014 20.3692 120 24.1092 120C27.5852 120 28.9052 122.706 28.9052 125.368C28.9052 125.94 28.8392 126.446 28.7952 126.688ZM21.8432 124.4H25.8032C25.8032 123.586 25.4512 122.222 23.9112 122.222C22.5032 122.222 21.9312 123.498 21.8432 124.4ZM30.9143 131V123.674C30.9143 122.332 30.8703 121.188 30.8263 120.242H33.7303L33.8843 121.716H33.9503C34.3903 121.034 35.4903 120 37.2723 120C39.4723 120 41.1223 121.452 41.1223 124.62V131H37.7783V125.038C37.7783 123.652 37.2943 122.706 36.0843 122.706C35.1603 122.706 34.6103 123.344 34.3903 123.96C34.3023 124.18 34.2583 124.488 34.2583 124.796V131H30.9143ZM44.138 118.218L47.416 117.316V120.242H49.814V122.706H47.416V126.6C47.416 127.898 47.724 128.492 48.736 128.492C49.198 128.492 49.396 128.47 49.726 128.404L49.748 130.934C49.308 131.11 48.516 131.242 47.57 131.242C46.492 131.242 45.59 130.846 45.062 130.296C44.446 129.658 44.138 128.624 44.138 127.106V122.706H42.708V120.242H44.138V118.218ZM55.0981 131H51.7541V120.242H55.0981V131ZM53.4261 115.556C54.5041 115.556 55.1861 116.282 55.2081 117.25C55.2081 118.174 54.5041 118.922 53.4041 118.922C52.3481 118.922 51.6441 118.174 51.6661 117.25C51.6441 116.282 52.3481 115.556 53.4261 115.556ZM61.5312 131H58.1652V122.706H56.7572V120.242H58.1652V119.824C58.1652 118.526 58.5612 117.096 59.5292 116.216C60.3652 115.424 61.5312 115.138 62.4992 115.138C63.2472 115.138 63.8192 115.226 64.2812 115.358L64.1492 117.932C63.8632 117.844 63.5112 117.778 63.0712 117.778C61.9712 117.778 61.5092 118.636 61.5092 119.692V120.242H63.6652V122.706H61.5312V131ZM64.0793 120.242H67.7973L69.4033 125.522C69.5793 126.16 69.7993 126.952 69.9313 127.524H69.9973C70.1513 126.952 70.3273 126.138 70.4813 125.522L71.8013 120.242H75.3873L72.8793 127.326C71.3393 131.594 70.3053 133.31 69.0953 134.388C67.9293 135.4 66.6973 135.752 65.8613 135.862L65.1573 133.024C65.5753 132.958 66.1033 132.76 66.6093 132.452C67.1153 132.188 67.6653 131.66 67.9953 131.11C68.1053 130.956 68.1713 130.78 68.1713 130.626C68.1713 130.516 68.1493 130.34 68.0173 130.076L64.0793 120.242ZM90.2282 124.642V128.382C90.2282 129.416 90.2722 130.406 90.3822 131H87.3682L87.1702 129.922H87.1042C86.4002 130.78 85.3002 131.242 84.0242 131.242C81.8462 131.242 80.5482 129.658 80.5482 127.942C80.5482 125.148 83.0562 123.806 86.8622 123.828V123.674C86.8622 123.102 86.5542 122.288 84.9042 122.288C83.8042 122.288 82.6382 122.662 81.9342 123.102L81.3182 120.946C82.0662 120.528 83.5402 120 85.4982 120C89.0842 120 90.2282 122.112 90.2282 124.642ZM86.9722 127.084V125.918C85.2122 125.896 83.8482 126.314 83.8482 127.612C83.8482 128.47 84.4202 128.888 85.1682 128.888C86.0042 128.888 86.6862 128.338 86.9062 127.656C86.9502 127.48 86.9722 127.282 86.9722 127.084ZM97.4325 131V116.37C98.4665 116.194 99.9185 116.062 101.964 116.062C104.032 116.062 105.506 116.458 106.496 117.25C107.442 117.998 108.08 119.23 108.08 120.682C108.08 122.134 107.596 123.366 106.716 124.202C105.572 125.28 103.878 125.764 101.898 125.764C101.458 125.764 101.062 125.742 100.754 125.698V131H97.4325ZM100.754 118.724V123.102C101.04 123.168 101.392 123.19 101.876 123.19C103.658 123.19 104.758 122.288 104.758 120.77C104.758 119.406 103.812 118.592 102.14 118.592C101.458 118.592 100.996 118.658 100.754 118.724ZM109.912 131V123.784C109.912 122.2 109.868 121.166 109.824 120.242H112.706L112.816 122.222H112.904C113.454 120.66 114.774 120 115.808 120C116.116 120 116.27 120 116.512 120.044V123.212C116.27 123.146 115.984 123.102 115.61 123.102C114.378 123.102 113.542 123.762 113.322 124.796C113.278 125.016 113.256 125.28 113.256 125.544V131H109.912ZM123.224 120C126.524 120 128.724 122.266 128.724 125.5C128.724 129.438 125.93 131.242 123.048 131.242C119.902 131.242 117.482 129.174 117.482 125.698C117.482 122.222 119.77 120 123.224 120ZM123.136 122.376C121.53 122.376 120.936 124.026 120.936 125.61C120.936 127.458 121.706 128.844 123.136 128.844C124.434 128.844 125.27 127.546 125.27 125.61C125.27 124.004 124.654 122.376 123.136 122.376ZM130.795 127.788V115.38H134.139V121.518H134.183C134.821 120.594 135.943 120 137.439 120C140.013 120 141.905 122.134 141.883 125.434C141.883 129.306 139.419 131.242 136.955 131.242C135.701 131.242 134.491 130.78 133.721 129.504H133.677L133.545 131H130.707C130.751 130.296 130.795 128.998 130.795 127.788ZM134.139 124.84V126.424C134.139 126.644 134.161 126.842 134.205 127.018C134.425 127.92 135.195 128.602 136.163 128.602C137.593 128.602 138.473 127.502 138.473 125.566C138.473 123.894 137.725 122.574 136.163 122.574C135.261 122.574 134.425 123.256 134.205 124.224C134.161 124.422 134.139 124.62 134.139 124.84ZM143.944 131V115.38H147.288V131H143.944ZM159.506 126.688H152.576C152.686 128.074 154.05 128.734 155.612 128.734C156.756 128.734 157.68 128.58 158.582 128.294L159.022 130.56C157.922 131 156.58 131.242 155.128 131.242C151.476 131.242 149.386 129.108 149.386 125.742C149.386 123.014 151.08 120 154.82 120C158.296 120 159.616 122.706 159.616 125.368C159.616 125.94 159.55 126.446 159.506 126.688ZM152.554 124.4H156.514C156.514 123.586 156.162 122.222 154.622 122.222C153.214 122.222 152.642 123.498 152.554 124.4ZM161.625 131V123.674C161.625 122.332 161.581 121.188 161.537 120.242H164.353L164.507 121.694H164.573C165.035 121.012 165.981 120 167.829 120C169.215 120 170.315 120.704 170.777 121.826H170.821C171.217 121.254 171.701 120.836 172.207 120.528C172.801 120.176 173.461 120 174.253 120C176.321 120 177.883 121.452 177.883 124.664V131H174.627V125.148C174.627 123.586 174.121 122.684 173.043 122.684C172.273 122.684 171.723 123.212 171.503 123.85C171.415 124.092 171.371 124.444 171.371 124.708V131H168.115V124.972C168.115 123.608 167.631 122.684 166.575 122.684C165.717 122.684 165.211 123.344 165.013 123.894C164.903 124.158 164.881 124.466 164.881 124.73V131H161.625ZM190.126 120C193.426 120 195.626 122.266 195.626 125.5C195.626 129.438 192.832 131.242 189.95 131.242C186.804 131.242 184.384 129.174 184.384 125.698C184.384 122.222 186.672 120 190.126 120ZM190.038 122.376C188.432 122.376 187.838 124.026 187.838 125.61C187.838 127.458 188.608 128.844 190.038 128.844C191.336 128.844 192.172 127.546 192.172 125.61C192.172 124.004 191.556 122.376 190.038 122.376ZM197.697 131V123.784C197.697 122.2 197.653 121.166 197.609 120.242H200.491L200.601 122.222H200.689C201.239 120.66 202.559 120 203.593 120C203.901 120 204.055 120 204.297 120.044V123.212C204.055 123.146 203.769 123.102 203.395 123.102C202.163 123.102 201.327 123.762 201.107 124.796C201.063 125.016 201.041 125.28 201.041 125.544V131H197.697ZM210.612 131V116.172H219.676V118.922H213.978V122.31H219.302V125.038H213.978V131H210.612ZM225.018 131H221.674V120.242H225.018V131ZM223.346 115.556C224.424 115.556 225.106 116.282 225.128 117.25C225.128 118.174 224.424 118.922 223.324 118.922C222.268 118.922 221.564 118.174 221.586 117.25C221.564 116.282 222.268 115.556 223.346 115.556ZM227.711 131V123.674C227.711 122.332 227.667 121.188 227.623 120.242H230.527L230.681 121.716H230.747C231.187 121.034 232.287 120 234.069 120C236.269 120 237.919 121.452 237.919 124.62V131H234.575V125.038C234.575 123.652 234.091 122.706 232.881 122.706C231.957 122.706 231.407 123.344 231.187 123.96C231.099 124.18 231.055 124.488 231.055 124.796V131H227.711ZM247.686 115.38H251.03V127.788C251.03 128.998 251.074 130.274 251.118 131H248.148L247.994 129.416H247.95C247.268 130.626 245.97 131.242 244.584 131.242C242.032 131.242 239.986 129.064 239.986 125.72C239.964 122.09 242.23 120 244.804 120C246.124 120 247.158 120.462 247.642 121.21H247.686V115.38ZM247.686 126.204V124.796C247.686 124.62 247.664 124.378 247.642 124.202C247.444 123.3 246.718 122.552 245.684 122.552C244.166 122.552 243.374 123.916 243.374 125.61C243.374 127.436 244.276 128.58 245.662 128.58C246.63 128.58 247.4 127.92 247.598 126.974C247.664 126.732 247.686 126.49 247.686 126.204ZM38.859 150.642V154.382C38.859 155.416 38.903 156.406 39.013 157H35.999L35.801 155.922H35.735C35.031 156.78 33.931 157.242 32.655 157.242C30.477 157.242 29.179 155.658 29.179 153.942C29.179 151.148 31.687 149.806 35.493 149.828V149.674C35.493 149.102 35.185 148.288 33.535 148.288C32.435 148.288 31.269 148.662 30.565 149.102L29.949 146.946C30.697 146.528 32.171 146 34.129 146C37.715 146 38.859 148.112 38.859 150.642ZM35.603 153.084V151.918C33.843 151.896 32.479 152.314 32.479 153.612C32.479 154.47 33.051 154.888 33.799 154.888C34.635 154.888 35.317 154.338 35.537 153.656C35.581 153.48 35.603 153.282 35.603 153.084ZM46.0633 157V142.172H49.4293V154.184H55.3253V157H46.0633ZM66.5003 152.688H59.5703C59.6803 154.074 61.0443 154.734 62.6063 154.734C63.7503 154.734 64.6743 154.58 65.5763 154.294L66.0163 156.56C64.9163 157 63.5743 157.242 62.1223 157.242C58.4703 157.242 56.3803 155.108 56.3803 151.742C56.3803 149.014 58.0743 146 61.8143 146C65.2903 146 66.6103 148.706 66.6103 151.368C66.6103 151.94 66.5443 152.446 66.5003 152.688ZM59.5483 150.4H63.5083C63.5083 149.586 63.1563 148.222 61.6163 148.222C60.2083 148.222 59.6363 149.498 59.5483 150.4ZM78.8053 149.432V155.438C78.8053 157.506 78.3873 159.2 77.1773 160.278C75.9893 161.29 74.3833 161.598 72.7993 161.598C71.3913 161.598 69.8953 161.312 68.9273 160.762L69.5873 158.232C70.2693 158.628 71.4573 159.046 72.7113 159.046C74.2953 159.046 75.5053 158.188 75.5053 156.208V155.504H75.4613C74.8233 156.406 73.7893 156.912 72.5573 156.912C69.8953 156.912 68.0033 154.756 68.0033 151.654C68.0033 148.2 70.2473 146 72.8873 146C74.3613 146 75.2853 146.638 75.8353 147.518H75.8793L75.9893 146.242H78.8933C78.8493 146.924 78.8053 147.826 78.8053 149.432ZM75.4613 152.204V150.62C75.4613 150.4 75.4393 150.18 75.3953 150.004C75.1533 149.124 74.5153 148.53 73.5913 148.53C72.3813 148.53 71.3913 149.63 71.3913 151.588C71.3913 153.194 72.1833 154.448 73.5913 154.448C74.4493 154.448 75.1313 153.876 75.3513 153.084C75.4393 152.842 75.4613 152.49 75.4613 152.204ZM84.8325 157H81.4885V146.242H84.8325V157ZM83.1605 141.556C84.2385 141.556 84.9205 142.282 84.9425 143.25C84.9425 144.174 84.2385 144.922 83.1385 144.922C82.0825 144.922 81.3785 144.174 81.4005 143.25C81.3785 142.282 82.0825 141.556 83.1605 141.556ZM86.9096 156.472L87.5036 154.074C88.1196 154.448 89.3956 154.888 90.3856 154.888C91.3976 154.888 91.8156 154.536 91.8156 153.986C91.8156 153.436 91.4856 153.172 90.2316 152.754C88.0096 152.006 87.1516 150.796 87.1736 149.542C87.1736 147.518 88.8896 146 91.5516 146C92.8056 146 93.9276 146.286 94.5876 146.616L93.9936 148.926C93.5096 148.662 92.5856 148.31 91.6616 148.31C90.8476 148.31 90.3856 148.64 90.3856 149.19C90.3856 149.696 90.8036 149.96 92.1236 150.422C94.1696 151.126 95.0276 152.16 95.0496 153.744C95.0496 155.746 93.4656 157.242 90.3856 157.242C88.9776 157.242 87.7236 156.912 86.9096 156.472ZM97.0647 157V141.38H100.409V157H97.0647ZM112.099 150.642V154.382C112.099 155.416 112.143 156.406 112.253 157H109.239L109.041 155.922H108.975C108.271 156.78 107.171 157.242 105.895 157.242C103.717 157.242 102.419 155.658 102.419 153.942C102.419 151.148 104.927 149.806 108.733 149.828V149.674C108.733 149.102 108.425 148.288 106.775 148.288C105.675 148.288 104.509 148.662 103.805 149.102L103.189 146.946C103.937 146.528 105.411 146 107.369 146C110.955 146 112.099 148.112 112.099 150.642ZM108.843 153.084V151.918C107.083 151.896 105.719 152.314 105.719 153.612C105.719 154.47 106.291 154.888 107.039 154.888C107.875 154.888 108.557 154.338 108.777 153.656C108.821 153.48 108.843 153.282 108.843 153.084ZM115.036 144.218L118.314 143.316V146.242H120.712V148.706H118.314V152.6C118.314 153.898 118.622 154.492 119.634 154.492C120.096 154.492 120.294 154.47 120.624 154.404L120.646 156.934C120.206 157.11 119.414 157.242 118.468 157.242C117.39 157.242 116.488 156.846 115.96 156.296C115.344 155.658 115.036 154.624 115.036 153.106V148.706H113.606V146.242H115.036V144.218ZM125.997 157H122.653V146.242H125.997V157ZM124.325 141.556C125.403 141.556 126.085 142.282 126.107 143.25C126.107 144.174 125.403 144.922 124.303 144.922C123.247 144.922 122.543 144.174 122.565 143.25C122.543 142.282 123.247 141.556 124.325 141.556ZM127.546 146.242H131.176L132.628 151.236C132.892 152.138 133.09 152.996 133.244 153.854H133.31C133.486 152.974 133.662 152.16 133.904 151.236L135.29 146.242H138.81L134.806 157H131.462L127.546 146.242ZM149.537 152.688H142.607C142.717 154.074 144.081 154.734 145.643 154.734C146.787 154.734 147.711 154.58 148.613 154.294L149.053 156.56C147.953 157 146.611 157.242 145.159 157.242C141.507 157.242 139.417 155.108 139.417 151.742C139.417 149.014 141.111 146 144.851 146C148.327 146 149.647 148.706 149.647 151.368C149.647 151.94 149.581 152.446 149.537 152.688ZM142.585 150.4H146.545C146.545 149.586 146.193 148.222 144.653 148.222C143.245 148.222 142.673 149.498 142.585 150.4ZM156.214 156.934V142.37C157.094 142.194 158.876 142.062 160.548 142.062C162.594 142.062 163.848 142.26 164.926 142.898C165.96 143.448 166.708 144.46 166.708 145.802C166.708 147.122 165.938 148.354 164.266 148.97V149.014C165.96 149.476 167.214 150.752 167.214 152.666C167.214 154.008 166.598 155.064 165.674 155.812C164.596 156.67 162.792 157.154 159.844 157.154C158.194 157.154 156.962 157.044 156.214 156.934ZM159.536 144.592V148.046H160.636C162.396 148.046 163.342 147.32 163.342 146.22C163.342 145.098 162.484 144.504 160.966 144.504C160.24 144.504 159.822 144.548 159.536 144.592ZM159.536 150.444V154.624C159.866 154.668 160.262 154.668 160.834 154.668C162.352 154.668 163.694 154.074 163.694 152.534C163.694 151.038 162.352 150.444 160.68 150.444H159.536ZM178.422 150.642V154.382C178.422 155.416 178.466 156.406 178.576 157H175.562L175.364 155.922H175.298C174.594 156.78 173.494 157.242 172.218 157.242C170.04 157.242 168.742 155.658 168.742 153.942C168.742 151.148 171.25 149.806 175.056 149.828V149.674C175.056 149.102 174.748 148.288 173.098 148.288C171.998 148.288 170.832 148.662 170.128 149.102L169.512 146.946C170.26 146.528 171.734 146 173.692 146C177.278 146 178.422 148.112 178.422 150.642ZM175.166 153.084V151.918C173.406 151.896 172.042 152.314 172.042 153.612C172.042 154.47 172.614 154.888 173.362 154.888C174.198 154.888 174.88 154.338 175.1 153.656C175.144 153.48 175.166 153.282 175.166 153.084ZM181.069 157V149.784C181.069 148.2 181.025 147.166 180.981 146.242H183.863L183.973 148.222H184.061C184.611 146.66 185.931 146 186.965 146C187.273 146 187.427 146 187.669 146.044V149.212C187.427 149.146 187.141 149.102 186.767 149.102C185.535 149.102 184.699 149.762 184.479 150.796C184.435 151.016 184.413 151.28 184.413 151.544V157H181.069ZM189.426 157V149.784C189.426 148.2 189.382 147.166 189.338 146.242H192.22L192.33 148.222H192.418C192.968 146.66 194.288 146 195.322 146C195.63 146 195.784 146 196.026 146.044V149.212C195.784 149.146 195.498 149.102 195.124 149.102C193.892 149.102 193.056 149.762 192.836 150.796C192.792 151.016 192.77 151.28 192.77 151.544V157H189.426ZM201.127 157H197.783V146.242H201.127V157ZM199.455 141.556C200.533 141.556 201.215 142.282 201.237 143.25C201.237 144.174 200.533 144.922 199.433 144.922C198.377 144.922 197.673 144.174 197.695 143.25C197.673 142.282 198.377 141.556 199.455 141.556ZM213.325 152.688H206.395C206.505 154.074 207.869 154.734 209.431 154.734C210.575 154.734 211.499 154.58 212.401 154.294L212.841 156.56C211.741 157 210.399 157.242 208.947 157.242C205.295 157.242 203.205 155.108 203.205 151.742C203.205 149.014 204.899 146 208.639 146C212.115 146 213.435 148.706 213.435 151.368C213.435 151.94 213.369 152.446 213.325 152.688ZM206.373 150.4H210.333C210.333 149.586 209.981 148.222 208.441 148.222C207.033 148.222 206.461 149.498 206.373 150.4ZM215.444 157V149.784C215.444 148.2 215.4 147.166 215.356 146.242H218.238L218.348 148.222H218.436C218.986 146.66 220.306 146 221.34 146C221.648 146 221.802 146 222.044 146.044V149.212C221.802 149.146 221.516 149.102 221.142 149.102C219.91 149.102 219.074 149.762 218.854 150.796C218.81 151.016 218.788 151.28 218.788 151.544V157H215.444Z" fill="white"/>
<defs>
<clipPath id="clip0_494_1273">
<rect width="81.7888" height="80" fill="white" transform="translate(84.6055)"/>
</clipPath>
</defs>
</svg>
