<svg width="83" height="80" viewBox="0 0 83 80" fill="none" xmlns="http://www.w3.org/2000/svg">
<path fill-rule="evenodd" clip-rule="evenodd" d="M58.6865 24.6589C67.2911 25.7232 73.4275 33.5579 72.3633 42.1851C71.299 50.7897 63.4643 56.9261 54.8371 55.8619C46.2325 54.7976 40.0961 46.9629 41.1603 38.3357C42.2246 29.7311 50.0593 23.6173 58.6865 24.6589ZM74.922 19.8585C74.3785 20.2661 73.586 20.1302 73.2011 19.5868C72.8388 19.066 72.9067 18.364 73.3822 17.9338L78.7261 13.6541C79.2469 13.2013 80.0168 13.2465 80.4697 13.7673C80.9226 14.2881 80.8773 15.058 80.3565 15.5109C80.3338 15.5335 80.3112 15.5562 80.2659 15.5788L74.922 19.8585ZM68.378 13.6768C68.1289 14.3108 67.4269 14.6278 66.7929 14.4014C66.1589 14.1523 65.8419 13.4503 66.0683 12.8163C66.0683 12.8163 66.0683 12.8163 66.0683 12.7937L68.5591 6.40816C68.8082 5.77414 69.5328 5.45713 70.1668 5.72885C70.8008 5.97793 71.0952 6.67988 70.8688 7.31391L68.378 13.6994V13.6768ZM59.796 12.6352C59.9093 13.3145 59.4564 13.9485 58.7771 14.0617C58.0978 14.1749 57.4637 13.7221 57.3505 13.0427C57.3505 13.0427 57.3505 12.9975 57.3505 12.9748L56.3089 6.20437C56.2183 5.52506 56.6712 4.89104 57.3505 4.80046C58.0298 4.70989 58.6639 5.16276 58.7544 5.84207L59.796 12.6125V12.6352ZM25.4456 19.2698C25.4683 17.6168 26.8269 16.3034 28.4799 16.3487C30.0876 16.3714 31.3783 17.6621 31.4009 19.2698L29.6573 39.8755C29.6573 40.5548 29.0686 41.0982 28.3893 41.0756C27.7326 41.0756 27.2118 40.5321 27.1892 39.8755L25.4456 19.2698ZM28.4346 43.1814C29.8611 43.1814 31.016 44.3363 31.016 45.7628C31.016 47.1894 29.8611 48.3442 28.4346 48.3442C27.008 48.3442 25.8532 47.1894 25.8532 45.7628C25.8532 44.3363 27.008 43.1814 28.4346 43.1814ZM42.4284 53.5069C42.4284 53.5069 42.5189 53.5975 42.5642 53.6428C48.0893 59.4849 56.6486 61.3416 64.121 58.33C64.6871 58.1036 65.3437 58.33 65.6607 58.8508L67.6307 62.2474L70.4159 60.6397L68.4912 57.3111C68.1515 56.8129 68.2195 56.1562 68.6497 55.7487C68.6497 55.7487 68.7176 55.6807 68.7629 55.6581C77.2769 49.0461 78.7941 36.7733 72.1821 28.2593C65.5702 19.7453 53.2973 18.2281 44.7833 24.8401C36.2693 31.452 34.7522 43.7249 41.3641 52.2389C41.7038 52.6691 42.0661 53.0994 42.4284 53.5069ZM41.0697 55.6581C47.0477 61.7266 55.9919 63.8324 64.0304 61.002L65.4569 63.4928L64.5738 64.0136C63.9851 64.3532 63.7813 65.1005 64.121 65.6892L70.5291 76.8072C72.2727 79.8415 76.1674 80.8831 79.2016 79.1395C82.168 77.4186 83.2549 73.6598 81.6245 70.6482C81.6019 70.5803 81.5566 70.5123 81.5113 70.4444L75.1484 59.4396C74.8541 58.8282 74.1068 58.5791 73.4954 58.8735C73.4728 58.8735 73.4502 58.8961 73.4275 58.9188L72.5444 59.4396L71.0952 56.9488C80.3112 49.0235 81.3754 35.1429 73.4501 25.927C65.6607 16.8695 52.0519 15.6694 42.8133 23.255L32.4652 2.49081C31.3556 0.271733 28.661 -0.656657 26.4193 0.452882C25.5362 0.883111 24.8342 1.60771 24.3814 2.49081L1.08107 49.1367C-0.0284717 51.3558 0.854631 54.073 3.09635 55.1826C3.73037 55.4996 4.40968 55.6581 5.13428 55.6581H41.0924H41.0697ZM40.9339 24.9533L30.2687 3.60035C29.7706 2.58138 28.5478 2.1738 27.5288 2.6946C27.1213 2.8984 26.8042 3.21541 26.6231 3.60035L3.30014 50.2463C2.80198 51.2426 3.18693 52.4653 4.18325 52.9635C4.47761 53.122 4.79462 53.1899 5.11164 53.1899H38.9639C32.6916 44.5627 33.5068 32.6521 40.9339 24.976V24.9533ZM73.6087 61.6587L79.4507 71.7577C80.515 73.6145 79.8809 75.9921 78.0242 77.0563C76.1674 78.1206 73.7898 77.4866 72.7256 75.6298L66.8835 65.5307L73.6087 61.6587ZM67.6534 38.7886C66.9967 33.8296 63.0794 29.9349 58.0978 29.3235C57.4185 29.233 56.8071 29.7311 56.7165 30.4104C56.6259 31.0897 57.1241 31.7011 57.8034 31.7917C61.6528 32.2672 64.6871 35.2788 65.2079 39.1282C65.2984 39.8075 65.9098 40.2831 66.5891 40.1925C67.2684 40.1019 67.744 39.4905 67.6534 38.8112V38.7886ZM67.2005 32.0861C62.6944 26.3119 54.3842 25.293 48.6327 29.799C42.8812 34.3051 41.8396 42.6154 46.3457 48.3668C50.8518 54.141 59.162 55.1599 64.9135 50.6538C70.665 46.1478 71.7066 37.8375 67.2005 32.0861Z" fill="white"/>
</svg>
