<svg width="241" height="164" viewBox="0 0 241 164" fill="none" xmlns="http://www.w3.org/2000/svg">
<g clip-path="url(#clip0_494_1277)">
<path d="M143.534 50.8988C143.534 54.9135 140.267 58.1797 136.253 58.1797C132.238 58.1797 128.972 54.9135 128.972 50.8988C128.972 46.884 132.238 43.6178 136.253 43.6178C140.267 43.6178 143.534 46.884 143.534 50.8988Z" fill="white"/>
<path d="M136.253 60.6068C130.9 60.6068 126.567 64.9617 126.567 70.292V78.7752C126.567 79.4329 127.112 80 127.792 80H144.758C145.416 80 145.983 79.4556 145.983 78.7752V70.292C145.983 64.939 141.628 60.6068 136.298 60.6068H136.253Z" fill="white"/>
<path d="M96.2641 60.6068C90.9112 60.6068 86.5789 64.9617 86.5789 70.292V78.7752C86.5789 79.4329 87.1232 80 87.8037 80H104.77C105.428 80 105.995 79.4556 105.995 78.7752V70.292C105.995 64.939 101.64 60.6068 96.3095 60.6068H96.2641Z" fill="white"/>
<path d="M90.3441 33.9325C91.9091 33.9325 93.2927 34.9305 93.7917 36.4276L95.1073 40.3969C95.2888 40.8733 95.7424 41.2135 96.2641 41.2135C96.7858 41.2135 97.2394 40.8733 97.4209 40.3969L98.7365 36.4276C99.2355 34.9305 100.619 33.9325 102.184 33.9325H139.905C143.239 33.9325 145.961 31.2107 145.961 27.8764V6.05614C145.961 2.72186 143.239 0 139.882 0H86.5561C83.2219 0 80.5 2.72186 80.5 6.05614V27.8764C80.5 31.2107 83.2219 33.9325 86.5561 33.9325H90.3441Z" fill="white"/>
<path d="M103.522 50.8988C103.522 54.9135 100.256 58.1797 96.2414 58.1797C92.2267 58.1797 88.9604 54.9135 88.9604 50.8988C88.9604 46.884 92.2267 43.6178 96.2414 43.6178C100.256 43.6178 103.522 46.884 103.522 50.8988Z" fill="white"/>
<path d="M154.444 20.5954H149.59C148.932 20.5954 148.365 21.1398 148.365 21.8202C148.365 22.5007 148.909 23.0451 149.59 23.0451H154.444C156.44 23.0451 158.073 24.6782 158.073 26.6742V48.4945C158.073 50.4905 156.44 52.1236 154.444 52.1236H145.961C145.303 52.1236 144.736 52.668 144.736 53.3484C144.736 54.0289 145.28 54.5733 145.961 54.5733H154.444C157.778 54.5733 160.5 51.8514 160.5 48.5171V26.6969C160.5 23.3626 157.778 20.6408 154.444 20.6408V20.5954Z" fill="white"/>
<path d="M127.77 53.3258C127.77 52.6453 127.225 52.1009 126.545 52.1009H118.062C116.066 52.1009 114.433 50.4678 114.433 48.4718V36.3595C114.433 35.679 113.888 35.1347 113.208 35.1347C112.527 35.1347 111.983 35.679 111.983 36.3595V48.4718C111.983 51.8061 114.705 54.5279 118.039 54.5279H126.522C127.18 54.5279 127.747 53.9836 127.747 53.3031L127.77 53.3258Z" fill="white"/>
<path d="M87.1233 7.46243H140.993M87.1233 13.9495H137.41M87.1233 20.913H132.76M87.1233 27.4227H125.048" stroke="url(#paint0_linear_494_1277)" stroke-width="1.09" stroke-linecap="round" stroke-linejoin="round"/>
</g>
<path d="M52.6541 131V116.37C53.7321 116.194 55.3381 116.062 57.1201 116.062C59.3201 116.062 60.8601 116.392 61.9161 117.228C62.7961 117.932 63.2801 118.966 63.2801 120.33C63.2801 122.222 61.9381 123.52 60.6621 123.982V124.048C61.6961 124.466 62.2681 125.456 62.6421 126.82C63.1041 128.492 63.5661 130.428 63.8521 131H60.4201C60.1781 130.56 59.8261 129.372 59.3861 127.546C58.9901 125.698 58.3521 125.192 56.9881 125.17H55.9761V131H52.6541ZM55.9761 118.658V122.75H57.2961C58.9681 122.75 59.9581 121.914 59.9581 120.616C59.9581 119.252 59.0341 118.57 57.4941 118.548C56.6801 118.548 56.2181 118.614 55.9761 118.658ZM75.0892 126.688H68.1592C68.2692 128.074 69.6332 128.734 71.1952 128.734C72.3392 128.734 73.2632 128.58 74.1652 128.294L74.6052 130.56C73.5052 131 72.1632 131.242 70.7112 131.242C67.0592 131.242 64.9692 129.108 64.9692 125.742C64.9692 123.014 66.6632 120 70.4032 120C73.8792 120 75.1992 122.706 75.1992 125.368C75.1992 125.94 75.1332 126.446 75.0892 126.688ZM68.1372 124.4H72.0972C72.0972 123.586 71.7452 122.222 70.2052 122.222C68.7972 122.222 68.2252 123.498 68.1372 124.4ZM84.8862 128.25L85.2822 130.736C84.6882 131 83.5662 131.242 82.2902 131.242C78.8142 131.242 76.5922 129.108 76.5922 125.72C76.5922 122.574 78.7482 120 82.7522 120C83.6322 120 84.6002 120.154 85.3042 120.418L84.7762 122.904C84.3802 122.728 83.7862 122.574 82.9062 122.574C81.1462 122.574 80.0022 123.828 80.0242 125.588C80.0242 127.568 81.3442 128.602 82.9722 128.602C83.7642 128.602 84.3802 128.47 84.8862 128.25ZM92.0237 120C95.3237 120 97.5237 122.266 97.5237 125.5C97.5237 129.438 94.7297 131.242 91.8477 131.242C88.7017 131.242 86.2817 129.174 86.2817 125.698C86.2817 122.222 88.5697 120 92.0237 120ZM91.9357 122.376C90.3297 122.376 89.7357 124.026 89.7357 125.61C89.7357 127.458 90.5057 128.844 91.9357 128.844C93.2337 128.844 94.0697 127.546 94.0697 125.61C94.0697 124.004 93.4537 122.376 91.9357 122.376ZM99.5949 131V123.674C99.5949 122.332 99.5509 121.188 99.5069 120.242H102.323L102.477 121.694H102.543C103.005 121.012 103.951 120 105.799 120C107.185 120 108.285 120.704 108.747 121.826H108.791C109.187 121.254 109.671 120.836 110.177 120.528C110.771 120.176 111.431 120 112.223 120C114.291 120 115.853 121.452 115.853 124.664V131H112.597V125.148C112.597 123.586 112.091 122.684 111.013 122.684C110.243 122.684 109.693 123.212 109.473 123.85C109.385 124.092 109.341 124.444 109.341 124.708V131H106.085V124.972C106.085 123.608 105.601 122.684 104.545 122.684C103.687 122.684 103.181 123.344 102.983 123.894C102.873 124.158 102.851 124.466 102.851 124.73V131H99.5949ZM118.523 131V123.674C118.523 122.332 118.479 121.188 118.435 120.242H121.251L121.405 121.694H121.471C121.933 121.012 122.879 120 124.727 120C126.113 120 127.213 120.704 127.675 121.826H127.719C128.115 121.254 128.599 120.836 129.105 120.528C129.699 120.176 130.359 120 131.151 120C133.219 120 134.781 121.452 134.781 124.664V131H131.525V125.148C131.525 123.586 131.019 122.684 129.941 122.684C129.171 122.684 128.621 123.212 128.401 123.85C128.313 124.092 128.269 124.444 128.269 124.708V131H125.013V124.972C125.013 123.608 124.529 122.684 123.473 122.684C122.615 122.684 122.109 123.344 121.911 123.894C121.801 124.158 121.779 124.466 121.779 124.73V131H118.523ZM146.954 126.688H140.024C140.134 128.074 141.498 128.734 143.06 128.734C144.204 128.734 145.128 128.58 146.03 128.294L146.47 130.56C145.37 131 144.028 131.242 142.576 131.242C138.924 131.242 136.834 129.108 136.834 125.742C136.834 123.014 138.528 120 142.268 120C145.744 120 147.064 122.706 147.064 125.368C147.064 125.94 146.998 126.446 146.954 126.688ZM140.002 124.4H143.962C143.962 123.586 143.61 122.222 142.07 122.222C140.662 122.222 140.09 123.498 140.002 124.4ZM149.073 131V123.674C149.073 122.332 149.029 121.188 148.985 120.242H151.889L152.043 121.716H152.109C152.549 121.034 153.649 120 155.431 120C157.631 120 159.281 121.452 159.281 124.62V131H155.937V125.038C155.937 123.652 155.453 122.706 154.243 122.706C153.319 122.706 152.769 123.344 152.549 123.96C152.461 124.18 152.417 124.488 152.417 124.796V131H149.073ZM169.048 115.38H172.392V127.788C172.392 128.998 172.436 130.274 172.48 131H169.51L169.356 129.416H169.312C168.63 130.626 167.332 131.242 165.946 131.242C163.394 131.242 161.348 129.064 161.348 125.72C161.326 122.09 163.592 120 166.166 120C167.486 120 168.52 120.462 169.004 121.21H169.048V115.38ZM169.048 126.204V124.796C169.048 124.62 169.026 124.378 169.004 124.202C168.806 123.3 168.08 122.552 167.046 122.552C165.528 122.552 164.736 123.916 164.736 125.61C164.736 127.436 165.638 128.58 167.024 128.58C167.992 128.58 168.762 127.92 168.96 126.974C169.026 126.732 169.048 126.49 169.048 126.204ZM188.493 124.642V128.382C188.493 129.416 188.537 130.406 188.647 131H185.633L185.435 129.922H185.369C184.665 130.78 183.565 131.242 182.289 131.242C180.111 131.242 178.813 129.658 178.813 127.942C178.813 125.148 181.321 123.806 185.127 123.828V123.674C185.127 123.102 184.819 122.288 183.169 122.288C182.069 122.288 180.903 122.662 180.199 123.102L179.583 120.946C180.331 120.528 181.805 120 183.763 120C187.349 120 188.493 122.112 188.493 124.642ZM185.237 127.084V125.918C183.477 125.896 182.113 126.314 182.113 127.612C182.113 128.47 182.685 128.888 183.433 128.888C184.269 128.888 184.951 128.338 185.171 127.656C185.215 127.48 185.237 127.282 185.237 127.084ZM94.878 153.964L95.384 156.582C94.768 156.89 93.382 157.242 91.578 157.242C86.452 157.242 83.812 154.03 83.812 149.806C83.812 144.746 87.42 141.93 91.908 141.93C93.646 141.93 94.966 142.282 95.56 142.59L94.878 145.252C94.196 144.966 93.25 144.702 92.062 144.702C89.4 144.702 87.332 146.308 87.332 149.608C87.332 152.578 89.092 154.448 92.084 154.448C93.096 154.448 94.218 154.228 94.878 153.964ZM97.4035 157V141.38H100.748V147.518H100.792C101.144 147.056 101.584 146.682 102.112 146.418C102.618 146.154 103.234 146 103.85 146C105.984 146 107.612 147.474 107.612 150.708V157H104.268V151.082C104.268 149.674 103.784 148.706 102.53 148.706C101.65 148.706 101.1 149.278 100.858 149.872C100.77 150.092 100.748 150.378 100.748 150.62V157H97.4035ZM119.27 150.642V154.382C119.27 155.416 119.314 156.406 119.424 157H116.41L116.212 155.922H116.146C115.442 156.78 114.342 157.242 113.066 157.242C110.888 157.242 109.59 155.658 109.59 153.942C109.59 151.148 112.098 149.806 115.904 149.828V149.674C115.904 149.102 115.596 148.288 113.946 148.288C112.846 148.288 111.68 148.662 110.976 149.102L110.36 146.946C111.108 146.528 112.582 146 114.54 146C118.126 146 119.27 148.112 119.27 150.642ZM116.014 153.084V151.918C114.254 151.896 112.89 152.314 112.89 153.612C112.89 154.47 113.462 154.888 114.21 154.888C115.046 154.888 115.728 154.338 115.948 153.656C115.992 153.48 116.014 153.282 116.014 153.084ZM121.917 157V149.674C121.917 148.332 121.873 147.188 121.829 146.242H124.733L124.887 147.716H124.953C125.393 147.034 126.493 146 128.275 146C130.475 146 132.125 147.452 132.125 150.62V157H128.781V151.038C128.781 149.652 128.297 148.706 127.087 148.706C126.163 148.706 125.613 149.344 125.393 149.96C125.305 150.18 125.261 150.488 125.261 150.796V157H121.917ZM144.994 149.432V155.438C144.994 157.506 144.576 159.2 143.366 160.278C142.178 161.29 140.572 161.598 138.988 161.598C137.58 161.598 136.084 161.312 135.116 160.762L135.776 158.232C136.458 158.628 137.646 159.046 138.9 159.046C140.484 159.046 141.694 158.188 141.694 156.208V155.504H141.65C141.012 156.406 139.978 156.912 138.746 156.912C136.084 156.912 134.192 154.756 134.192 151.654C134.192 148.2 136.436 146 139.076 146C140.55 146 141.474 146.638 142.024 147.518H142.068L142.178 146.242H145.082C145.038 146.924 144.994 147.826 144.994 149.432ZM141.65 152.204V150.62C141.65 150.4 141.628 150.18 141.584 150.004C141.342 149.124 140.704 148.53 139.78 148.53C138.57 148.53 137.58 149.63 137.58 151.588C137.58 153.194 138.372 154.448 139.78 154.448C140.638 154.448 141.32 153.876 141.54 153.084C141.628 152.842 141.65 152.49 141.65 152.204ZM157.181 152.688H150.251C150.361 154.074 151.725 154.734 153.287 154.734C154.431 154.734 155.355 154.58 156.257 154.294L156.697 156.56C155.597 157 154.255 157.242 152.803 157.242C149.151 157.242 147.061 155.108 147.061 151.742C147.061 149.014 148.755 146 152.495 146C155.971 146 157.291 148.706 157.291 151.368C157.291 151.94 157.225 152.446 157.181 152.688ZM150.229 150.4H154.189C154.189 149.586 153.837 148.222 152.297 148.222C150.889 148.222 150.317 149.498 150.229 150.4Z" fill="white"/>
<defs>
<linearGradient id="paint0_linear_494_1277" x1="102.388" y1="-2.78991" x2="121.736" y2="30.757" gradientUnits="userSpaceOnUse">
<stop stop-color="#2D496A"/>
<stop offset="0.3" stop-color="#315172"/>
<stop offset="0.77" stop-color="#3D6889"/>
<stop offset="0.93" stop-color="#427293"/>
</linearGradient>
<clipPath id="clip0_494_1277">
<rect width="80" height="80" fill="white" transform="translate(80.5)"/>
</clipPath>
</defs>
</svg>
