<svg width="81" height="80" viewBox="0 0 81 80" fill="none" xmlns="http://www.w3.org/2000/svg">
<path d="M78.3799 53.6233H63.5498V50.3398H65.2024C66.1157 50.3398 66.855 49.6004 66.855 48.6871V42.0984C66.855 41.1851 66.1157 40.4458 65.2024 40.4458H60.2663V37.1623C60.2663 26.8116 52.2858 18.3093 42.1526 17.483V14.9171C42.5223 14.9823 42.892 15.0258 43.2616 15.0258C44.849 15.0258 46.3277 14.4822 47.6541 14.0255C49.9374 13.1992 51.2856 12.7861 52.7207 13.8081C53.2209 14.1778 53.895 14.2213 54.4386 13.9386C54.9822 13.6341 55.3301 13.0688 55.3301 12.4599V2.56591C55.3301 2.04403 55.0909 1.5439 54.6343 1.23946C51.7422 -0.848059 48.8501 0.195703 46.5234 1.02201C44.2402 1.84833 42.892 2.26148 41.4568 1.23946C40.9567 0.869799 40.2826 0.826309 39.7389 1.10899C39.1953 1.39168 38.8474 1.95705 38.8474 2.56591V17.4613C28.7142 18.3093 20.7338 26.8116 20.7338 37.1405V40.424H15.7976C14.8844 40.424 14.145 41.1634 14.145 42.0767V48.6654C14.145 49.5787 14.8844 50.318 15.7976 50.318H17.4503V53.6015H2.62015C1.70686 53.6015 0.967529 54.3409 0.967529 55.2541C0.967529 56.1674 1.70686 56.9068 2.62015 56.9068H4.27278V78.3256C4.27278 79.2389 5.01211 79.9783 5.9254 79.9783H17.4503C17.7547 79.9783 18.0156 79.8695 18.2766 79.7391C18.5158 79.8913 18.7767 79.9783 19.1029 79.9783H61.9189C62.2233 79.9783 62.4842 79.8695 62.7452 79.7391C62.9844 79.8913 63.2453 79.9783 63.5715 79.9783H75.0964C76.0097 79.9783 76.749 79.2389 76.749 78.3256V56.9068H78.4016C79.3149 56.9068 80.0542 56.1674 80.0542 55.2541C80.0542 54.3409 79.3149 53.6015 78.4016 53.6015L78.3799 53.6233ZM42.1526 5.0231C44.1314 5.37102 46.0233 4.69693 47.6541 4.10981C49.5677 3.43571 50.8289 3.02256 52.0466 3.52269V10.0027C50.0678 9.6548 48.1543 10.3289 46.5451 10.916C44.6316 11.5901 43.3704 12.0033 42.1526 11.5031V5.0231ZM17.4503 76.6948H7.55628V56.9285H17.4503V76.6948ZM24.039 37.1623C24.039 28.0946 31.4323 20.6795 40.5218 20.6795C49.6112 20.6795 57.0045 28.0728 57.0045 37.1623V40.4458H24.0608V37.1623H24.039ZM25.6916 76.6948H20.7555V50.3398H25.6916V76.6948ZM34.4766 76.6948H28.9969V50.3398H34.4766V76.6948ZM43.2834 76.6948H37.8036V50.3398H43.2834V76.6948ZM52.0684 76.6948H46.5886V50.3398H52.0684V76.6948ZM60.3097 76.6948H55.3736V50.3398H60.3097V76.6948ZM61.9624 47.0345H17.4285V43.751H63.5498V47.0345H61.8971H61.9624ZM73.4872 76.6948H63.5932V56.9285H73.4872V76.6948Z" fill="white"/>
</svg>
