<svg width="241" height="164" viewBox="0 0 241 164" fill="none" xmlns="http://www.w3.org/2000/svg">
<g clip-path="url(#clip0_494_1292)">
<path d="M129.435 26.6521C129.435 27.2623 128.934 27.7636 128.323 27.7636H100.669C100.059 27.7636 99.5575 27.2623 99.5575 26.6521C99.5575 26.042 100.059 25.5407 100.669 25.5407H128.302C128.607 25.5407 128.868 25.6497 129.086 25.8676C129.304 26.0855 129.413 26.347 129.413 26.6521H129.435ZM100.691 33.277H128.323C128.934 33.277 129.435 32.7758 129.435 32.1656C129.435 31.5554 128.934 31.0542 128.323 31.0542H100.691C100.08 31.0542 99.5793 31.5554 99.5793 32.1656C99.5793 32.7758 100.08 33.277 100.691 33.277ZM100.691 42.0812H128.323C128.934 42.0812 129.435 41.58 129.435 40.9698C129.435 40.3596 128.934 39.8584 128.323 39.8584H100.691C100.08 39.8584 99.5793 40.3596 99.5793 40.9698C99.5793 41.58 100.08 42.0812 100.691 42.0812ZM100.691 47.5947H128.323C128.934 47.5947 129.435 47.0934 129.435 46.4832C129.435 45.8731 128.934 45.3718 128.323 45.3718H100.691C100.08 45.3718 99.5793 45.8731 99.5793 46.4832C99.5793 47.0934 100.08 47.5947 100.691 47.5947ZM128.323 56.3988C128.934 56.3988 129.391 55.8976 129.391 55.2874C129.391 54.6772 128.912 54.1978 128.323 54.176H100.691C100.102 54.176 99.6228 54.6772 99.6228 55.2874C99.6228 55.8976 100.102 56.377 100.691 56.3988H128.323ZM101.323 59.6895C100.712 59.6895 100.211 60.1907 100.211 60.8009C100.211 61.4111 100.712 61.9123 101.323 61.9123H128.955C129.566 61.9123 130.067 61.4111 130.067 60.8009C130.067 60.1907 129.566 59.6895 128.955 59.6895H101.323ZM150.966 10.9834V75.9248C150.966 78.1694 149.135 80 146.891 80H94.1094C91.8647 80 90.0342 78.1694 90.0342 75.9248V10.9834C90.0342 8.73876 91.8647 6.9082 94.1094 6.9082H112.306C112.524 5.77499 113.505 4.96867 114.66 4.96867H117.231V3.29066C117.231 1.48189 118.691 0 120.522 0C122.352 0 123.812 1.48189 123.812 3.29066V4.96867H126.362C127.517 4.96867 128.498 5.79679 128.716 6.9082H146.912C149.157 6.9082 150.988 8.73876 150.988 10.9834H150.966ZM144.777 13.119H128.672C128.367 14.1651 127.43 14.8624 126.362 14.8624H114.66C113.592 14.8624 112.633 14.1433 112.35 13.119H96.2232V73.811H135.602V65.7478C135.602 65.4645 135.711 65.1812 135.929 64.9632C136.147 64.7453 136.43 64.6363 136.714 64.6363H144.777V13.119ZM137.825 66.8592V72.2419L143.208 66.8592H137.825ZM114.463 12.4653C114.463 12.4653 114.551 12.6614 114.66 12.6614H126.362C126.362 12.6614 126.558 12.5742 126.558 12.4653V7.38763C126.558 7.38763 126.471 7.1915 126.362 7.1915H122.701C122.091 7.1915 121.59 6.69028 121.59 6.08009V3.29066C121.59 2.70226 121.11 2.22283 120.522 2.22283C119.933 2.22283 119.454 2.70226 119.454 3.29066V6.08009C119.454 6.69028 118.953 7.1915 118.343 7.1915H114.681C114.681 7.1915 114.485 7.27867 114.485 7.38763V12.4653H114.463ZM148.765 10.9834C148.765 9.95914 147.937 9.13103 146.912 9.13103H128.781V10.8962H145.91C146.193 10.8962 146.477 11.0052 146.694 11.2231C146.912 11.441 147.021 11.7243 147.021 12.0076V65.7478C147.021 66.0311 146.912 66.3144 146.694 66.5323L137.52 75.7069C137.302 75.9248 137.04 76.0338 136.735 76.0338H95.1118C94.5016 76.0338 94.0004 75.5326 94.0004 74.9224V12.0076C94.0004 11.7243 94.1094 11.441 94.3273 11.2231C94.5452 11.0052 94.8067 10.8962 95.1118 10.8962H112.241V9.13103H94.1094C93.0851 9.13103 92.257 9.95914 92.257 10.9834V75.9248C92.257 76.9491 93.0851 77.7772 94.1094 77.7772H146.912C147.937 77.7772 148.765 76.9491 148.765 75.9248V10.9834ZM134.687 31.3811C135.123 31.8169 135.82 31.8169 136.256 31.3811L141.857 25.7804C142.271 25.3446 142.271 24.6472 141.857 24.2332C141.421 23.7973 140.745 23.7973 140.309 24.2332L135.493 29.0493L133.75 27.3059C133.314 26.8701 132.617 26.8701 132.181 27.3059C131.745 27.7418 131.745 28.4391 132.181 28.875L134.709 31.4029L134.687 31.3811ZM134.687 45.8731C135.123 46.3089 135.82 46.3089 136.256 45.8731L141.857 40.2724C142.271 39.8366 142.271 39.1392 141.857 38.7251C141.421 38.2893 140.745 38.2893 140.309 38.7251L135.493 43.5413L133.75 41.7979C133.314 41.362 132.617 41.362 132.181 41.7979C131.745 42.2337 131.745 42.9311 132.181 43.3669L134.709 45.8949L134.687 45.8731ZM134.687 60.365C135.123 60.8009 135.82 60.8009 136.256 60.365L141.857 54.7644C142.271 54.3285 142.271 53.6312 141.857 53.2171C141.421 52.7813 140.745 52.7813 140.309 53.2171L135.493 58.0332L133.75 56.2898C133.314 55.854 132.617 55.854 132.181 56.2898C131.745 56.7257 131.745 57.423 132.181 57.8589L134.709 60.3868L134.687 60.365Z" fill="white"/>
</g>
<path d="M68.2088 116.172H71.5748V131H68.2088V116.172ZM74.4367 131V123.674C74.4367 122.332 74.3927 121.188 74.3487 120.242H77.1647L77.3187 121.694H77.3847C77.8467 121.012 78.7927 120 80.6407 120C82.0267 120 83.1267 120.704 83.5887 121.826H83.6327C84.0287 121.254 84.5127 120.836 85.0187 120.528C85.6127 120.176 86.2727 120 87.0647 120C89.1327 120 90.6947 121.452 90.6947 124.664V131H87.4387V125.148C87.4387 123.586 86.9327 122.684 85.8547 122.684C85.0847 122.684 84.5347 123.212 84.3147 123.85C84.2267 124.092 84.1827 124.444 84.1827 124.708V131H80.9267V124.972C80.9267 123.608 80.4427 122.684 79.3867 122.684C78.5287 122.684 78.0227 123.344 77.8247 123.894C77.7147 124.158 77.6927 124.466 77.6927 124.73V131H74.4367ZM93.3645 135.356V123.85C93.3645 122.442 93.3205 121.232 93.2765 120.242H96.1805L96.3345 121.738H96.3785C97.1705 120.594 98.4025 120 99.9645 120C102.318 120 104.43 122.046 104.43 125.478C104.43 129.394 101.944 131.242 99.5465 131.242C98.2485 131.242 97.2365 130.714 96.7525 130.01H96.7085V135.356H93.3645ZM96.7085 124.906V126.38C96.7085 126.644 96.7305 126.886 96.7745 127.084C96.9945 127.986 97.7645 128.668 98.7325 128.668C100.184 128.668 101.042 127.458 101.042 125.632C101.042 123.916 100.272 122.618 98.7765 122.618C97.8305 122.618 96.9945 123.322 96.7745 124.312C96.7305 124.488 96.7085 124.708 96.7085 124.906ZM106.513 131V115.38H109.857V131H106.513ZM122.075 126.688H115.145C115.255 128.074 116.619 128.734 118.181 128.734C119.325 128.734 120.249 128.58 121.151 128.294L121.591 130.56C120.491 131 119.149 131.242 117.697 131.242C114.045 131.242 111.955 129.108 111.955 125.742C111.955 123.014 113.649 120 117.389 120C120.865 120 122.185 122.706 122.185 125.368C122.185 125.94 122.119 126.446 122.075 126.688ZM115.123 124.4H119.083C119.083 123.586 118.731 122.222 117.191 122.222C115.783 122.222 115.211 123.498 115.123 124.4ZM124.195 131V123.674C124.195 122.332 124.151 121.188 124.107 120.242H126.923L127.077 121.694H127.143C127.605 121.012 128.551 120 130.399 120C131.785 120 132.885 120.704 133.347 121.826H133.391C133.787 121.254 134.271 120.836 134.777 120.528C135.371 120.176 136.031 120 136.823 120C138.891 120 140.453 121.452 140.453 124.664V131H137.197V125.148C137.197 123.586 136.691 122.684 135.613 122.684C134.843 122.684 134.293 123.212 134.073 123.85C133.985 124.092 133.941 124.444 133.941 124.708V131H130.685V124.972C130.685 123.608 130.201 122.684 129.145 122.684C128.287 122.684 127.781 123.344 127.583 123.894C127.473 124.158 127.451 124.466 127.451 124.73V131H124.195ZM152.626 126.688H145.696C145.806 128.074 147.17 128.734 148.732 128.734C149.876 128.734 150.8 128.58 151.702 128.294L152.142 130.56C151.042 131 149.7 131.242 148.248 131.242C144.596 131.242 142.506 129.108 142.506 125.742C142.506 123.014 144.2 120 147.94 120C151.416 120 152.736 122.706 152.736 125.368C152.736 125.94 152.67 126.446 152.626 126.688ZM145.674 124.4H149.634C149.634 123.586 149.282 122.222 147.742 122.222C146.334 122.222 145.762 123.498 145.674 124.4ZM154.745 131V123.674C154.745 122.332 154.701 121.188 154.657 120.242H157.561L157.715 121.716H157.781C158.221 121.034 159.321 120 161.103 120C163.303 120 164.953 121.452 164.953 124.62V131H161.609V125.038C161.609 123.652 161.125 122.706 159.915 122.706C158.991 122.706 158.441 123.344 158.221 123.96C158.133 124.18 158.089 124.488 158.089 124.796V131H154.745ZM167.969 118.218L171.247 117.316V120.242H173.645V122.706H171.247V126.6C171.247 127.898 171.555 128.492 172.567 128.492C173.029 128.492 173.227 128.47 173.557 128.404L173.579 130.934C173.139 131.11 172.347 131.242 171.401 131.242C170.323 131.242 169.421 130.846 168.893 130.296C168.277 129.658 167.969 128.624 167.969 127.106V122.706H166.539V120.242H167.969V118.218ZM90.4596 150.642V154.382C90.4596 155.416 90.5036 156.406 90.6136 157H87.5996L87.4016 155.922H87.3356C86.6316 156.78 85.5316 157.242 84.2556 157.242C82.0776 157.242 80.7796 155.658 80.7796 153.942C80.7796 151.148 83.2876 149.806 87.0936 149.828V149.674C87.0936 149.102 86.7856 148.288 85.1356 148.288C84.0356 148.288 82.8696 148.662 82.1656 149.102L81.5496 146.946C82.2976 146.528 83.7716 146 85.7296 146C89.3156 146 90.4596 148.112 90.4596 150.642ZM87.2036 153.084V151.918C85.4436 151.896 84.0796 152.314 84.0796 153.612C84.0796 154.47 84.6516 154.888 85.3996 154.888C86.2356 154.888 86.9176 154.338 87.1376 153.656C87.1816 153.48 87.2036 153.282 87.2036 153.084ZM93.1066 157V149.674C93.1066 148.332 93.0626 147.188 93.0186 146.242H95.9226L96.0766 147.716H96.1426C96.5826 147.034 97.6826 146 99.4646 146C101.665 146 103.315 147.452 103.315 150.62V157H99.9706V151.038C99.9706 149.652 99.4866 148.706 98.2766 148.706C97.3526 148.706 96.8026 149.344 96.5826 149.96C96.4946 150.18 96.4506 150.488 96.4506 150.796V157H93.1066ZM113.081 141.38H116.425V153.788C116.425 154.998 116.469 156.274 116.513 157H113.543L113.389 155.416H113.345C112.663 156.626 111.365 157.242 109.979 157.242C107.427 157.242 105.381 155.064 105.381 151.72C105.359 148.09 107.625 146 110.199 146C111.519 146 112.553 146.462 113.037 147.21H113.081V141.38ZM113.081 152.204V150.796C113.081 150.62 113.059 150.378 113.037 150.202C112.839 149.3 112.113 148.552 111.079 148.552C109.561 148.552 108.769 149.916 108.769 151.61C108.769 153.436 109.671 154.58 111.057 154.58C112.025 154.58 112.795 153.92 112.993 152.974C113.059 152.732 113.081 152.49 113.081 152.204ZM125.661 157V144.988H121.679V142.172H133.075V144.988H129.027V157H125.661ZM142.464 152.688H135.534C135.644 154.074 137.008 154.734 138.57 154.734C139.714 154.734 140.638 154.58 141.54 154.294L141.98 156.56C140.88 157 139.538 157.242 138.086 157.242C134.434 157.242 132.344 155.108 132.344 151.742C132.344 149.014 134.038 146 137.778 146C141.254 146 142.574 148.706 142.574 151.368C142.574 151.94 142.508 152.446 142.464 152.688ZM135.512 150.4H139.472C139.472 149.586 139.12 148.222 137.58 148.222C136.172 148.222 135.6 149.498 135.512 150.4ZM143.967 156.472L144.561 154.074C145.177 154.448 146.453 154.888 147.443 154.888C148.455 154.888 148.873 154.536 148.873 153.986C148.873 153.436 148.543 153.172 147.289 152.754C145.067 152.006 144.209 150.796 144.231 149.542C144.231 147.518 145.947 146 148.609 146C149.863 146 150.985 146.286 151.645 146.616L151.051 148.926C150.567 148.662 149.643 148.31 148.719 148.31C147.905 148.31 147.443 148.64 147.443 149.19C147.443 149.696 147.861 149.96 149.181 150.422C151.227 151.126 152.085 152.16 152.107 153.744C152.107 155.746 150.523 157.242 147.443 157.242C146.035 157.242 144.781 156.912 143.967 156.472ZM154.584 144.218L157.862 143.316V146.242H160.26V148.706H157.862V152.6C157.862 153.898 158.17 154.492 159.182 154.492C159.644 154.492 159.842 154.47 160.172 154.404L160.194 156.934C159.754 157.11 158.962 157.242 158.016 157.242C156.938 157.242 156.036 156.846 155.508 156.296C154.892 155.658 154.584 154.624 154.584 153.106V148.706H153.154V146.242H154.584V144.218Z" fill="white"/>
<defs>
<clipPath id="clip0_494_1292">
<rect width="60.9316" height="80" fill="white" transform="translate(90.0342)"/>
</clipPath>
</defs>
</svg>
