<svg width="164" height="32" viewBox="0 0 164 32" fill="none" xmlns="http://www.w3.org/2000/svg">
<g clip-path="url(#clip0_494_1266)">
<path d="M0.932617 30.8774C0.932617 30.8774 80.1179 -34.4346 161.708 29.5945" stroke="#009DC0" stroke-width="4" stroke-miterlimit="10"/>
<path d="M157.278 15.949C156.826 16.1093 156.607 16.605 156.768 17.0569L161.358 29.3904L148.243 28.3262C147.777 28.2824 147.354 28.6469 147.31 29.1134C147.267 29.5799 147.631 30.0027 148.097 30.0465L162.553 31.2127C162.844 31.2419 163.136 31.1107 163.311 30.8774C163.485 30.6442 163.529 30.338 163.427 30.061L158.371 16.4592C158.312 16.2989 158.21 16.1676 158.079 16.0802C157.846 15.9052 157.54 15.8469 157.263 15.9635L157.278 15.949Z" fill="#009DC0"/>
</g>
<defs>
<clipPath id="clip0_494_1266">
<rect width="163.5" height="32" fill="white" transform="matrix(1 0 0 -1 0 32)"/>
</clipPath>
</defs>
</svg>
