<svg width="1335" height="765" viewBox="0 0 1335 765" fill="none" xmlns="http://www.w3.org/2000/svg">
<path d="M591.596 225.756L615.63 236.826C616.346 237.152 617.124 237.322 617.911 237.322L623.918 237.184M360.279 138.823L462.695 178.444C463.169 178.628 463.665 178.744 464.171 178.792L516.095 183.618C516.582 183.663 517.061 183.774 517.52 183.946L578.365 206.809C578.753 206.954 579.122 207.144 579.467 207.372L598.924 220.256C599.354 220.541 599.821 220.763 600.313 220.917M600.313 220.917L615.037 225.542C616.282 225.934 617.346 226.754 618.041 227.857L624.541 238.174C625.11 239.076 625.928 239.793 626.898 240.238L647.776 249.585M600.313 220.917L575.883 213.371C575.608 213.281 575.34 213.17 575.083 213.038L546.497 198.4C545.777 198.032 544.985 197.826 544.177 197.798L509.999 196.636C509.261 196.612 508.535 196.438 507.865 196.126L472.6 179.713M1437.43 665.771L1447.29 691.155C1447.61 692.074 1448.17 692.89 1448.91 693.52L1449.12 693.704C1451.09 695.377 1453.96 695.454 1456.02 693.889L1458.31 692.147C1460.61 690.388 1463.89 690.728 1465.79 692.924L1473.9 702.288C1475.9 704.598 1479.4 704.836 1481.7 702.818L1493.11 692.316M1437.43 665.771L1431.95 682.993C1430.65 686.381 1426.47 687.598 1423.55 685.443L1420.32 683.059C1419.74 682.631 1419.24 682.093 1418.87 681.475L1417.28 678.823C1414.75 674.641 1408.43 675.58 1407.23 680.315L1394.75 729.674C1394.52 730.559 1394.08 731.373 1393.46 732.038C1390.62 735.052 1385.59 733.874 1384.38 729.917L1383.07 725.596L1373.64 703.28M1437.43 665.771L1445.19 649.687M1493.11 692.316L1491.99 689.093C1491.22 686.886 1489.13 685.407 1486.8 685.407H1485.38C1483.36 685.407 1481.5 684.3 1480.54 682.524L1468.85 660.902C1467.3 658.021 1463.58 657.132 1460.89 658.995L1457.8 661.135C1455.02 663.053 1451.19 662.048 1449.72 659.015L1443.25 645.695C1442.05 643.237 1439.24 642.028 1436.63 642.858L1429.76 645.052C1427.06 645.911 1424.15 644.586 1423.04 641.988L1416.2 626.114C1414.31 621.715 1408.08 621.671 1406.14 626.044L1402.59 633.949C1402.41 634.384 1402.15 634.793 1401.86 635.164L1391.96 647.385C1391.3 648.198 1390.89 649.181 1390.77 650.22L1388.04 674.164C1387.92 675.221 1387.49 676.22 1386.82 677.041L1377.38 688.484C1376.81 689.172 1376.41 689.988 1376.23 690.862L1373.2 705.405C1373.11 705.821 1372.98 706.225 1372.8 706.609L1369.27 714.159C1367.17 718.661 1360.65 718.286 1359.08 713.572L1356.94 707.191C1356.69 706.427 1356.27 705.728 1355.71 705.144L1339.56 688.149C1337.99 686.498 1335.57 685.986 1333.46 686.862L1325.97 689.981C1323 691.219 1319.6 689.649 1318.62 686.582L1313.22 669.734C1312.59 667.753 1310.89 666.3 1308.83 665.979L1303.74 665.183C1302.12 664.93 1300.69 663.967 1299.86 662.555L1298.87 660.883C1297.18 658.031 1293.36 657.314 1290.75 659.357L1289.62 660.241C1288.43 661.167 1287.69 662.536 1287.54 664.03L1285.2 687.635C1285.08 688.864 1284.55 690.016 1283.69 690.905L1282.15 692.509C1279.43 695.341 1274.7 694.484 1273.14 690.876L1268.85 680.939L1258.08 645.282C1257.93 644.767 1257.84 644.232 1257.84 643.693V615.963C1257.84 615.068 1257.63 614.187 1257.21 613.396L1241.95 584.51C1241.77 584.177 1241.63 583.827 1241.52 583.465L1230.8 546.298C1230.72 546.004 1230.61 545.717 1230.48 545.441L1209.91 502.672C1209.77 502.36 1209.65 502.034 1209.56 501.7L1202.34 474.486C1202.19 473.947 1201.97 473.434 1201.68 472.962L1182.7 442.884L1168.71 412.938C1167.44 410.23 1164.25 409.029 1161.52 410.231L1161.26 410.34C1158 411.78 1154.24 409.762 1153.63 406.238L1152.3 398.469C1152.12 397.46 1151.67 396.52 1151 395.755L1142.46 386.104C1141.74 385.291 1141.27 384.282 1141.13 383.204L1139.71 372.806C1139.17 368.867 1134.76 366.783 1131.37 368.872L1125.85 372.28C1123.98 373.433 1121.61 373.364 1119.8 372.107L1112.45 366.955C1110.33 365.479 1107.49 365.664 1105.58 367.399L1099.94 372.545C1098.8 373.586 1098.15 375.06 1098.15 376.605V390.872C1098.15 392.089 1097.75 393.271 1097 394.234L1083.33 411.918C1082.69 412.738 1082.31 413.721 1082.21 414.753L1078.73 450.814C1078.67 451.404 1078.52 451.98 1078.28 452.521L1058.45 497.115C1058.28 497.478 1058.16 497.856 1058.08 498.245L1050.97 532.878C1050.84 533.534 1050.59 534.159 1050.23 534.725L1035.2 558.315C1034.75 559.03 1034.47 559.841 1034.38 560.683L1030.88 593.458C1030.82 593.963 1030.7 594.456 1030.51 594.927L1022.73 614.249C1020.6 619.555 1012.78 618.476 1012.17 612.79L1007.64 571.189C1007.59 570.759 1007.5 570.337 1007.35 569.93L981.332 497.306C980.879 496.039 979.976 494.983 978.796 494.337L965.03 486.803C962.75 485.555 959.907 486.074 958.216 488.046L952.001 495.292C950.741 496.76 948.801 497.46 946.893 497.131L940.295 495.993C938.015 495.6 935.735 496.676 934.588 498.682L927.862 510.445C926.442 512.927 923.356 513.907 920.764 512.698L912.52 508.853C911.792 508.514 910.999 508.338 910.195 508.338H892.795C891.065 508.338 889.436 507.524 888.397 506.14L872.335 484.739C870.556 482.367 867.215 481.835 864.786 483.534L856.627 489.24C855.703 489.887 854.602 490.233 853.475 490.233H848.176C846.459 490.233 844.842 489.433 843.802 488.068L838.546 481.175C838.198 480.719 837.923 480.21 837.733 479.668L815.622 416.847C814.848 414.645 812.768 413.173 810.436 413.173H809.494C807.345 413.173 805.393 411.922 804.497 409.971L793.991 387.096C793.336 385.671 792.105 384.594 790.604 384.134L760.227 374.824C758.877 374.411 757.736 373.493 757.045 372.261L744.624 350.153C743.766 348.624 742.228 347.596 740.486 347.387L722.741 345.259C721.035 345.054 719.521 344.063 718.653 342.58L701.754 313.75C701.252 312.893 700.526 312.187 699.654 311.709L688.363 305.521C687.216 304.893 686.331 303.876 685.866 302.654L678.155 282.375C677.894 281.689 677.499 281.063 676.993 280.533L648.959 251.162L627.306 222.309C626.882 221.743 626.352 221.265 625.746 220.9L592.753 201.027L562.643 184.41C561.974 184.041 561.238 183.816 560.478 183.748L515.866 179.736C515.409 179.694 514.959 179.596 514.526 179.444L469.859 163.663C469.416 163.505 468.954 163.406 468.486 163.368L411.285 158.585M1493.11 692.316C1494.41 696.042 1499.1 697.224 1502.01 694.561L1510.71 686.616C1511.56 685.83 1512.15 684.793 1512.38 683.653L1516.49 663.426C1516.71 662.297 1517.29 661.269 1518.14 660.487L1528.25 651.129C1529.87 649.617 1532.26 649.238 1534.28 650.171L1538.79 652.249C1539.51 652.582 1540.3 652.754 1541.09 652.754H1546.1C1547.81 652.754 1549.44 653.561 1550.47 654.936L1569.51 680.084C1569.94 680.649 1570.25 681.29 1570.43 681.974M1570.43 681.974L1574.54 697.292C1575.47 700.707 1579.33 702.38 1582.44 700.716L1584.83 699.445C1586.01 698.816 1586.92 697.778 1587.39 696.526L1589.45 691.037C1590.26 688.891 1592.31 687.47 1594.6 687.47H1595.26C1596.99 687.47 1598.63 688.285 1599.66 689.668L1605.81 697.866C1606.12 698.266 1606.47 698.623 1606.87 698.928L1615.96 705.903C1618.63 707.957 1622.51 707.137 1624.13 704.175L1626.84 699.233C1627.11 698.727 1627.3 698.18 1627.41 697.614L1648.23 586.759L1669.71 511.959C1670.05 510.762 1670.79 509.716 1671.81 508.994L1696.22 491.674L1723.03 468.565C1723.62 468.054 1724.31 467.677 1725.06 467.456L1733.06 465.095C1734.38 464.704 1735.51 463.833 1736.21 462.652L1744.69 448.539C1745.77 446.739 1747.98 445.967 1749.95 446.704C1751.59 447.318 1753.44 446.889 1754.64 445.614M1570.43 681.974L1555.55 700.634C1555.18 701.068 1554.87 701.559 1554.64 702.089L1532.09 754.597C1531.23 756.617 1529.24 757.926 1527.04 757.926C1527.04 757.926 1522.55 754.538 1519.8 758.386C1517.05 762.234 1515.18 764.103 1514.85 763.883C1514.3 763.333 1512.33 756.144 1512.21 754.361L1510.64 731.577C1510.61 731.053 1510.5 730.537 1510.31 730.044L1498.15 696.001M692.321 234.527L726.649 250.184C727.891 250.75 728.879 251.758 729.419 253.013L774.598 357.928C774.906 358.644 775.364 359.286 775.939 359.812L789.275 371.997C790.112 372.761 790.691 373.766 790.936 374.872L793.442 386.248M1754.64 445.614L1759.42 440.502M1754.64 445.614L1745.88 486.331C1745.7 487.338 1745.26 488.278 1744.59 489.046L1729.07 506.717C1728.49 507.374 1728.08 508.16 1727.87 509.01L1719.96 540.614C1719.19 543.704 1715.81 545.353 1712.9 544.067C1711.67 543.523 1710.27 543.487 1709.01 543.964L1700.97 547.006C1698.37 547.991 1695.45 546.879 1694.15 544.416L1682.77 522.67M1682.77 522.67L1663.96 531.98M1682.77 522.67C1682.04 521.293 1680.77 520.286 1679.26 519.898L1677.25 519.377C1675.69 518.975 1674.39 517.91 1673.67 516.464L1670.56 510.232M288.188 111.921L349.231 138.372C349.919 138.669 350.662 138.823 351.412 138.823H438.414C438.801 138.823 439.187 138.864 439.567 138.944L465.011 144.393L484.429 149.245C485.104 149.413 485.739 149.708 486.302 150.112L502.479 161.718C503.193 162.23 504.02 162.563 504.888 162.691L521.853 165.172C522.356 165.246 522.846 165.389 523.31 165.596L552.999 178.926C554.08 179.412 555.287 179.535 556.444 179.278L578.555 174.369C579.34 174.194 580.154 174.194 580.939 174.369L604.242 179.543C604.633 179.629 605.034 179.673 605.434 179.673H618.302M206.574 80.0447L279.442 111.472C280.129 111.769 280.87 111.921 281.618 111.921H397.918C398.455 111.921 398.988 111.999 399.502 112.154L465.599 132.024C466.113 132.178 466.646 132.256 467.182 132.256H529.353C530.25 132.256 531.134 132.476 531.927 132.896L630.435 185.076C631.048 185.401 631.595 185.84 632.046 186.369L675.916 237.856C677.533 239.756 680.23 240.326 682.48 239.248L717.695 222.355C719.103 221.679 720.734 221.635 722.178 222.233L739.668 229.481C741.406 230.201 743.391 229.982 744.93 228.902L769.209 211.877C771.731 210.107 775.217 210.756 776.933 213.316L844.968 314.777C845.19 315.109 845.376 315.463 845.521 315.835L887.018 421.815C888.401 425.345 892.859 426.45 895.73 423.974L915.596 406.846C917.028 405.612 918.996 405.199 920.804 405.756L934.745 410.042C937.38 410.852 940.206 409.587 941.357 407.084L947.224 394.323C948.122 392.372 950.073 391.121 952.22 391.121H963.912C965.102 391.121 966.259 390.736 967.212 390.023L990.677 372.434C991.63 371.721 992.786 371.336 993.976 371.336H1015.88C1017.86 371.336 1019.7 370.265 1020.67 368.535L1036.19 340.954C1037.68 338.307 1041.04 337.37 1043.68 338.861L1065.16 350.958C1067.47 352.258 1070.37 351.73 1072.07 349.703L1080.61 339.525C1082.27 337.558 1085.06 336.995 1087.34 338.172L1097.18 343.238C1099.69 344.525 1102.76 343.716 1104.3 341.362L1142.33 283.308M104.473 42.6654L199.224 79.6676C199.861 79.9161 200.54 80.0447 201.224 80.0447H384.978L449.874 86.639H488.979C490.02 86.639 491.039 86.9348 491.918 87.4911L542.588 119.526C543.794 120.289 545.25 120.552 546.648 120.262L569.358 115.533C570.346 115.327 571.37 115.398 572.321 115.735L593.93 123.414C595.025 123.803 596.217 123.835 597.332 123.505L624.07 115.588C624.888 115.345 625.752 115.297 626.594 115.446L673.623 123.802C674.407 123.94 675.211 123.908 675.979 123.706L708.36 115.219L740.518 107.962C741.772 107.68 743.085 107.845 744.229 108.429L768.307 120.715L826.442 142.77C827.27 143.085 828.011 143.595 828.6 144.257L893.136 216.812C893.509 217.232 893.817 217.707 894.046 218.22L930.257 299.137C931.768 302.513 936.115 303.464 938.898 301.028L984.376 261.203C985.789 259.965 987.737 259.534 989.54 260.061L1033.45 272.881C1034.83 273.282 1036.3 273.133 1037.56 272.467L1072.8 253.882C1074.31 253.086 1076.1 253.036 1077.65 253.745L1144.92 284.491C1145.72 284.856 1146.42 285.408 1146.97 286.101L1213.63 371.178C1215.73 373.85 1219.72 374.005 1222.01 371.502L1287.51 300.051C1288.85 298.591 1290.87 297.964 1292.8 298.409L1321.64 305.06C1323.91 305.584 1326.26 304.624 1327.52 302.666L1356.31 257.642C1358.04 254.937 1361.72 254.284 1364.27 256.226L1384.46 271.561C1386.04 272.763 1388.15 273.017 1389.97 272.227L1415.69 261.091C1418.18 260.013 1421.09 260.912 1422.53 263.21L1444.66 298.407C1446.01 300.563 1448.67 301.506 1451.08 300.686L1468.46 294.774C1470.99 293.917 1473.76 294.99 1475.04 297.322L1524.71 387.249C1526.51 390.518 1530.99 391.074 1533.54 388.348L1591.3 326.667C1592.22 325.701 1593.44 325.093 1594.76 324.957L1633.69 320.914C1634.59 320.821 1635.45 320.507 1636.19 320.002L1673.4 294.882C1674.88 293.885 1676.75 293.665 1678.41 294.294L1706.31 304.805C1708.16 305.502 1710.24 305.153 1711.77 303.89L1745.84 275.596C1747.39 274.307 1749.52 273.972 1751.39 274.72L1784.56 287.979C1786.02 288.561 1787.66 288.493 1789.05 287.792L1805.72 279.469C1808.15 278.252 1811.1 278.999 1812.67 281.225L1819.65 291.149C1821.87 294.304 1826.55 294.255 1828.71 291.057L1864.41 238.011C1865.43 236.493 1867.15 235.582 1868.97 235.582H1913.87C1915.62 235.582 1917.26 234.759 1918.29 233.36L1951.3 188.89C1952.33 187.492 1953.97 186.668 1955.7 186.668H2005.4C2006.35 186.668 2007.27 186.426 2008.1 185.964L2045.73 164.838C2046.55 164.376 2047.48 164.134 2048.42 164.134L2114.44 163.682C2115.51 163.682 2119.65 163.623 2120.55 163.036L2170.21 130.204C2170.92 129.746 2171.71 129.454 2172.54 129.347L2234.73 121.379C2235.33 121.303 2235.9 121.133 2236.43 120.875L2302.83 88.7686C2303.48 88.4509 2304.19 88.2673 2304.92 88.2277L2453.7 80.0887C2454.24 80.059 2454.76 79.9502 2455.28 79.7666M2455.28 79.7666L2552.03 43.5021M2455.28 79.7666L2366.06 109.511C2365.63 109.652 2365.19 109.74 2364.74 109.772L2261.52 117.373C2261.13 117.403 2260.73 117.476 2260.35 117.59L2216.93 130.608L2107.92 167.286C2107.63 167.383 2107.34 167.504 2107.08 167.648L2053.79 196.121C2052.59 196.758 2051.68 197.813 2051.21 199.084L2026.5 266.754C2025.39 269.79 2021.92 271.219 2018.99 269.842M2552.03 43.5021L2667.9 0.900502M2552.03 43.5021C2551.55 43.6791 2551.04 43.788 2550.53 43.8253L2422.06 53.1133L2288.42 55.8607L2204.82 63.0059L2090.98 77.8448H1997.12C1996.64 77.8448 1996.15 77.9096 1995.68 78.0372L1932.39 95.1893C1931.8 95.3509 1931.18 95.4103 1930.57 95.3674L1869.52 91.0863C1869.04 91.0533 1868.55 91.0818 1868.08 91.1742L1793.56 105.639C1792.76 105.794 1791.94 105.77 1791.14 105.567L1736.1 91.4204C1735.12 91.1687 1734.09 91.1929 1733.12 91.4886L1654.29 115.606C1653.93 115.713 1653.57 115.786 1653.21 115.821L1620.19 118.962C1619.48 119.03 1618.78 119.24 1618.14 119.578L1593.59 132.596C1592.66 133.092 1591.6 133.307 1590.55 133.217L1555.27 130.195C1554.22 130.106 1553.17 130.316 1552.24 130.803L1499.15 158.616C1497.8 159.331 1496.19 159.441 1494.74 158.922L1434.76 137.403C1433.42 136.922 1431.95 136.979 1430.65 137.563L1401.52 150.661C1400.33 151.197 1398.98 151.291 1397.72 150.923L1365.14 141.407C1364.34 141.172 1363.5 141.123 1362.67 141.265L1257.31 159.345C1255.85 159.596 1254.35 159.247 1253.15 158.381L1224.17 137.403C1223.48 136.909 1222.7 136.579 1221.87 136.437L1144.32 123.166C1143.35 123 1142.35 123.097 1141.43 123.446L1078.54 147.338C1077.11 147.885 1075.51 147.804 1074.13 147.117L1010.29 115.219L936.789 90.1891C936.296 90.022 935.784 89.9253 935.264 89.9011L863.769 86.6786C863.194 86.6522 862.627 86.5357 862.087 86.3334L837.704 77.1961C836.913 76.9004 836.067 76.7893 835.226 76.874L788.19 81.574C787.409 81.6521 786.621 81.5619 785.879 81.3112L754.159 70.5743C753.336 70.2961 752.46 70.2159 751.6 70.3423L708.68 76.6189C708.104 76.7035 707.517 76.6947 706.943 76.5958L670.329 70.2324C670.019 70.1774 669.703 70.151 669.388 70.151H629.816C629.384 70.151 628.951 70.0993 628.531 69.9982L586.618 59.9253C586.022 59.7812 585.405 59.7384 584.795 59.7988L552.958 62.9278C552.435 62.9795 551.907 62.9553 551.39 62.8574L504.011 53.8136C503.487 53.7135 502.952 53.6904 502.422 53.7443L444.4 59.6493C444.017 59.6889 443.632 59.6878 443.251 59.646L332.181 47.6172L108.251 43.7868C107.585 43.7758 106.927 43.6428 106.308 43.3965L1.09961 1.45021M2018.99 269.842L1988.14 255.305C1986.74 254.645 1985.12 254.606 1983.69 255.196L1962.72 263.854C1961.39 264.404 1959.89 264.409 1958.55 263.868L1920.9 248.626C1918.69 247.731 1916.16 248.363 1914.62 250.19L1880.74 290.621C1880.47 290.935 1880.18 291.218 1879.86 291.466L1819.12 337.657C1818.52 338.12 1818.01 338.705 1817.64 339.375L1763.5 437.409C1762.95 438.403 1762.1 439.203 1761.08 439.699L1727.03 456.198C1726.58 456.415 1726.16 456.691 1725.79 457.019L1691.97 486.778C1690.45 488.117 1688.32 488.51 1686.42 487.802L1662.52 478.895C1659.55 477.791 1656.28 479.407 1655.34 482.429L1621.59 592.065C1620.58 595.33 1616.87 596.897 1613.83 595.341L1597.36 586.924C1596.47 586.471 1595.74 585.786 1595.21 584.944L1583.24 565.816C1582.61 564.798 1581.65 564.018 1580.53 563.591L1541.97 548.957C1540.04 548.222 1537.85 548.636 1536.32 550.027L1516.18 568.315C1515.17 569.234 1513.85 569.743 1512.49 569.743H1503.35C1501.17 569.743 1499.19 571.026 1498.31 573.016L1491.81 587.716C1489.93 591.956 1483.97 592.111 1481.87 587.973L1467.3 559.17C1465.5 555.617 1460.64 555.095 1458.12 558.186L1422.38 602.187C1420.27 604.788 1416.34 604.911 1414.06 602.448L1393.33 579.971C1392.8 579.389 1392.4 578.697 1392.15 577.944L1357.56 471.53C1357.41 471.055 1357.19 470.604 1356.91 470.187L1313.5 404.847C1313.02 404.134 1312.38 403.541 1311.65 403.116L1291.2 391.441C1290.21 390.876 1289.42 390.016 1288.94 388.983L1261.08 329.016M2018.99 269.842L1963.45 295.903C1962.7 296.277 1961.86 296.472 1961.02 296.472H1947.75C1945.95 296.472 1944.26 297.358 1943.22 298.842L1934.99 310.762C1934.66 311.228 1934.27 311.642 1933.82 311.988L1923.25 320.138C1922.38 320.81 1921.73 321.725 1921.39 322.769L1902.28 380.705L1888.14 409.353C1886.9 411.872 1883.95 413.048 1881.32 412.082L1880.77 411.879C1879.82 411.536 1879 410.944 1878.37 410.168L1865.65 394.377L1846.79 370.653C1845.74 369.342 1844.16 368.576 1842.48 368.576H1835.42C1834.55 368.576 1833.7 368.373 1832.93 367.983L1820.83 361.848C1819.57 361.214 1818.13 361.082 1816.78 361.478L1803.97 364.129M1087.26 406.834L1109.49 444.811C1110.48 446.477 1112.27 447.497 1114.21 447.497H1121.85C1123.44 447.497 1124.97 448.194 1126.01 449.405L1146.14 472.738C1146.38 473.017 1146.65 473.272 1146.94 473.498L1154.6 479.411C1155.65 480.228 1156.38 481.404 1156.63 482.715L1175.47 579.799C1175.64 580.66 1176.01 581.469 1176.55 582.157L1193.3 603.385C1193.68 603.868 1193.98 604.412 1194.18 604.993L1202.88 630.147C1204.78 635.665 1212.84 634.799 1213.53 629.002L1217.17 598.41C1217.28 597.508 1217.61 596.647 1218.13 595.904L1237.2 568.482M1163.6 518.671L1144.6 510.315C1142.77 509.5 1140.64 509.746 1139.05 510.953L1127.35 519.797C1126.03 520.799 1124.31 521.148 1122.7 520.745L1103.15 515.861C1102.55 515.709 1101.91 515.662 1101.3 515.722L1082.34 517.543C1080.4 517.73 1078.51 516.878 1077.36 515.303L1060.59 492.293M1783.47 401.235L1787.97 401.875C1789.4 401.875 1790.77 401.319 1791.79 400.328L1795.43 396.805C1796.46 395.813 1797.83 395.258 1799.26 395.258H1808.54C1809.39 395.258 1810.22 395.064 1810.98 394.69L1826.2 387.17C1827.95 386.307 1830.03 386.432 1831.66 387.501L1868.23 411.471C1869 411.974 1869.88 412.277 1870.8 412.352L1883.16 412.418M516.991 196.875L549.118 213.207C550.098 213.712 551.207 213.909 552.3 213.775L571.927 211.421M556.655 213.253L585.169 225.627C585.98 225.969 586.863 226.111 587.741 226.04L611.128 224.314" stroke="url(#paint0_linear_296_261)" stroke-opacity="0.25"/>
<defs>
<linearGradient id="paint0_linear_296_261" x1="1334.5" y1="763.901" x2="1334.5" y2="0.900513" gradientUnits="userSpaceOnUse">
<stop stop-color="white"/>
<stop offset="1" stop-color="#07648D"/>
</linearGradient>
</defs>
</svg>
