<svg width="61" height="60" viewBox="0 0 61 60" fill="none" xmlns="http://www.w3.org/2000/svg">
<path d="M45.3258 42.1988C45.1308 42.1988 44.9321 42.1369 44.7633 42.0094C44.3489 41.6981 44.2664 41.1113 44.5777 40.6969C46.9121 37.5938 48.1458 33.8944 48.1458 30C48.1458 28.7775 48.0202 27.5531 47.7727 26.3625C47.6677 25.8544 47.9939 25.3594 48.5002 25.2544C49.0046 25.1494 49.5033 25.4756 49.6083 25.9819C49.8821 27.2981 50.0208 28.65 50.0208 30C50.0208 34.3031 48.6558 38.3944 46.0758 41.8256C45.8902 42.0713 45.6089 42.1988 45.3258 42.1988Z" fill="white"/>
<path d="M11.9885 34.845C11.5554 34.845 11.1654 34.5413 11.0716 34.1007C10.7904 32.7563 10.646 31.3763 10.646 30C10.646 25.7157 11.9979 21.6413 14.5572 18.2213C14.8666 17.805 15.4554 17.7188 15.8697 18.0319C16.2841 18.3432 16.3704 18.93 16.0591 19.3444C13.7435 22.4382 12.521 26.1225 12.521 30C12.521 31.2469 12.6504 32.4975 12.9072 33.7144C13.0141 34.2207 12.6897 34.7175 12.1835 34.8244C12.1179 34.8394 12.0522 34.845 11.9885 34.845Z" fill="white"/>
<path d="M33.146 39.375H27.521C27.0035 39.375 26.5835 38.955 26.5835 38.4375V33.75H21.896C21.3785 33.75 20.9585 33.33 20.9585 32.8125V27.1875C20.9585 26.67 21.3785 26.25 21.896 26.25H26.5835V21.5625C26.5835 21.045 27.0035 20.625 27.521 20.625H33.146C33.6635 20.625 34.0835 21.045 34.0835 21.5625V26.25H38.771C39.2885 26.25 39.7085 26.67 39.7085 27.1875V32.8125C39.7085 33.33 39.2885 33.75 38.771 33.75H34.0835V38.4375C34.0835 38.955 33.6635 39.375 33.146 39.375ZM28.4585 37.5H32.2085V32.8125C32.2085 32.295 32.6285 31.875 33.146 31.875H37.8335V28.125H33.146C32.6285 28.125 32.2085 27.705 32.2085 27.1875V22.5H28.4585V27.1875C28.4585 27.705 28.0385 28.125 27.521 28.125H22.8335V31.875H27.521C28.0385 31.875 28.4585 32.295 28.4585 32.8125V37.5Z" fill="white"/>
<path d="M34.3479 56.2499H24.521C22.6891 56.2499 20.9004 55.8412 19.2035 55.0349L12.6354 51.8437C10.9516 51.0356 9.15725 50.6249 7.31037 50.6249H3.146C2.6285 50.6249 2.2085 50.2049 2.2085 49.6874C2.2085 49.1699 2.6285 48.7499 3.146 48.7499H7.31037C9.44037 48.7499 11.5066 49.2224 13.451 50.1562L20.0172 53.3456C21.4535 54.0262 22.9704 54.3749 24.521 54.3749H34.1604L42.3485 50.9962C42.3485 50.9174 42.4591 50.1918 42.0991 49.575C41.5497 48.63 40.2804 48.6 39.3185 48.7406C37.9216 48.9562 36.7666 49.3443 35.7485 49.6874L35.3622 49.8168C34.8691 49.9762 34.3404 49.7156 34.1772 49.2225C34.0141 48.7312 34.2804 48.2006 34.7716 48.0375L35.1504 47.9118C36.2416 47.5443 37.4772 47.1281 39.041 46.8881C42.9072 46.3256 43.8729 48.7406 44.081 49.4924C44.4241 50.7318 44.1391 52.2824 43.0685 52.7306L34.7041 56.1825C34.5916 56.2256 34.4697 56.2499 34.3479 56.2499Z" fill="white"/>
<path d="M22.1491 42.8944C21.7966 42.8944 21.4572 42.6938 21.2979 42.3525C19.4604 38.3981 14.6866 37.8319 11.1372 39.3038C11.0229 39.3506 10.901 39.375 10.7772 39.375H3.146C2.6285 39.375 2.2085 38.955 2.2085 38.4375C2.2085 37.92 2.6285 37.5 3.146 37.5H10.5954C15.671 35.4844 20.9754 37.215 23.0004 41.5631C23.2179 42.0319 23.0154 42.5906 22.5447 42.81C22.4154 42.8663 22.2822 42.8944 22.1491 42.8944Z" fill="white"/>
<path d="M31.0349 51.7932C30.9131 51.7932 30.7912 51.7688 30.6768 51.7219L19.9406 47.265C19.4624 47.0663 19.2356 46.5188 19.4343 46.0388C19.6331 45.5607 20.1824 45.3357 20.6606 45.5325L30.4537 49.5975C30.8643 47.6644 29.8068 46.1607 27.2943 45.12L21.7762 42.8288C21.2981 42.63 21.0712 42.0807 21.2699 41.6025C21.4687 41.1244 22.0181 40.8975 22.4962 41.0963L28.0124 43.3875C31.8768 44.9888 33.2943 47.8407 31.9012 51.21C31.8056 51.4407 31.6237 51.6244 31.3931 51.7182C31.2787 51.7688 31.1568 51.7932 31.0349 51.7932Z" fill="white"/>
<path d="M20.5289 13.1981C17.5795 13.1981 16.7733 11.1844 16.5858 10.5094C16.2426 9.27 16.5276 7.71938 17.5983 7.27125L25.9626 3.81937C26.0751 3.77437 26.197 3.75 26.3189 3.75H36.1439C37.9758 3.75 39.7645 4.15875 41.4614 4.965L48.0295 8.15625C49.7151 8.96438 51.5095 9.375 53.3564 9.375H57.5208C58.0383 9.375 58.4583 9.795 58.4583 10.3125C58.4583 10.83 58.0383 11.25 57.5208 11.25H53.3564C51.2264 11.25 49.1601 10.7775 47.2158 9.84375L40.6495 6.65625C39.2133 5.97375 37.6964 5.625 36.1458 5.625H26.5064L18.3164 9.00375C18.3164 9.0825 18.2058 9.80813 18.5658 10.425C19.117 11.37 20.3826 11.4 21.3464 11.2594C22.7433 11.0438 23.8983 10.6556 24.9164 10.3125L25.3026 10.1831C25.7958 10.0219 26.3245 10.2844 26.4876 10.7775C26.6508 11.2688 26.3845 11.7994 25.8933 11.9625L25.5145 12.0881C24.4233 12.4556 23.1876 12.8719 21.6239 13.1119C21.2301 13.1719 20.8645 13.1981 20.5289 13.1981Z" fill="white"/>
<path d="M45.8189 23.3344C42.2752 23.3344 39.1214 21.5644 37.6664 18.4369C37.4489 17.9682 37.6514 17.4094 38.122 17.19C38.5927 16.9725 39.1495 17.1769 39.3689 17.6457C41.2045 21.5982 45.9764 22.1625 49.5295 20.6944C49.6439 20.6494 49.7658 20.625 49.8895 20.625H57.5208C58.0383 20.625 58.4583 21.045 58.4583 21.5625C58.4583 22.08 58.0383 22.5 57.5208 22.5H50.0714C48.6464 23.0644 47.2027 23.3344 45.8189 23.3344Z" fill="white"/>
<path d="M38.5308 18.975C38.4108 18.975 38.2889 18.9525 38.1708 18.9037L32.6545 16.6125C28.7901 15.0112 27.3726 12.1593 28.7658 8.78996C28.8614 8.55933 29.0433 8.37558 29.2739 8.28183C29.5045 8.18808 29.7614 8.18621 29.992 8.28183L40.7283 12.7387C41.2064 12.9375 41.4333 13.485 41.2345 13.965C41.0358 14.445 40.4901 14.6681 40.0083 14.4712L30.2151 10.4062C29.8045 12.3393 30.862 13.8431 33.3745 14.8837L38.8926 17.175C39.3708 17.3737 39.5976 17.9231 39.3989 18.4012C39.247 18.7575 38.8983 18.975 38.5308 18.975Z" fill="white"/>
<path d="M42.5493 45.0656C42.3093 45.0656 42.0693 44.9737 41.8855 44.7918C41.5199 44.4262 41.5199 43.8318 41.8855 43.4662C42.253 43.1006 42.9112 43.035 43.2768 43.4006C43.6424 43.7662 43.708 44.295 43.3424 44.6606L43.2112 44.7918C43.0293 44.9737 42.7893 45.0656 42.5493 45.0656Z" fill="white"/>
<path d="M18.1741 16.9406C17.9322 16.9406 17.6903 16.8468 17.5066 16.6612C17.1428 16.2918 17.1466 15.6993 17.516 15.3356L17.6491 15.2043C18.0166 14.8406 18.611 14.8443 18.9747 15.2137C19.3385 15.5831 19.3347 16.1756 18.9653 16.5393L18.8322 16.6706C18.6503 16.8506 18.4122 16.9406 18.1741 16.9406Z" fill="white"/>
</svg>
