<svg width="61" height="46" viewBox="0 0 61 46" fill="none" xmlns="http://www.w3.org/2000/svg">
<path d="M59.2529 36.2507C59.0301 34.9577 58.5349 33.7268 57.8001 32.6397C57.0653 31.5527 56.1078 30.6342 54.991 29.9454C53.6918 29.0586 52.1845 28.5246 50.6167 28.3957V26.8521C51.6674 26.3225 52.5683 25.5374 53.2365 24.5689C53.9047 23.6004 54.319 22.4795 54.4411 21.3092H54.6099C54.8809 21.3126 55.1498 21.261 55.4003 21.1576C55.6509 21.0542 55.8779 20.901 56.0676 20.7074C56.2573 20.5138 56.4058 20.2838 56.5041 20.0312C56.6025 19.7786 56.6486 19.5087 56.6397 19.2378C56.6308 18.9669 56.5672 18.7006 56.4525 18.4549C56.3378 18.2093 56.1746 17.9895 55.9726 17.8087C55.7706 17.628 55.5341 17.49 55.2774 17.4032C55.0206 17.3164 54.7489 17.2825 54.4786 17.3036C54.4786 15.3664 54.4786 14.2853 54.4786 12.9918C54.4688 11.6689 53.939 10.403 53.0035 9.46762C52.0681 8.5322 50.8022 8.00235 49.4794 7.99253H45.4363C44.1134 8.00235 42.8475 8.5322 41.9121 9.46762C40.9767 10.403 40.4468 11.6689 40.437 12.9918V17.3036C40.167 17.2824 39.8955 17.3161 39.6388 17.4027C39.3822 17.4893 39.1457 17.6269 38.9437 17.8074C38.7417 17.9878 38.5783 18.2073 38.4634 18.4526C38.3486 18.6979 38.2845 18.9639 38.2753 19.2346C38.266 19.5053 38.3116 19.7751 38.4094 20.0277C38.5072 20.2802 38.6551 20.5104 38.8443 20.7043C39.0334 20.8981 39.2599 21.0517 39.51 21.1557C39.7601 21.2596 40.0287 21.3119 40.2995 21.3092H40.4683C40.5829 22.4834 40.9925 23.6095 41.6589 24.5829C42.3254 25.5563 43.227 26.3455 44.2802 26.8771V28.4207C43.7377 28.4678 43.2004 28.5619 42.6742 28.7019C42.5055 28.7519 42.5367 28.7644 42.5305 28.7019C42.1367 26.6339 41.0837 24.7491 39.5291 23.3297C37.9745 21.9103 36.0019 21.0326 33.9068 20.8281V19.2721C34.9578 18.7377 35.8576 17.9477 36.5237 16.9749C37.1898 16.002 37.6007 14.8773 37.7187 13.7042H37.8874C38.2915 13.703 38.6858 13.5795 39.0183 13.3498C39.3508 13.1201 39.6059 12.7951 39.75 12.4176C39.8941 12.0401 39.9204 11.6278 39.8256 11.235C39.7307 10.8422 39.519 10.4873 39.2185 10.2172V3.03079C39.2168 2.22749 38.897 1.45755 38.3289 0.889527C37.7609 0.321502 36.991 0.00165702 36.1877 5.81934e-06H35.8065C35.2647 0.00142953 34.7353 0.162144 34.2842 0.462145C33.8331 0.762147 33.4802 1.18819 33.2694 1.68725C32.8409 1.15925 32.2998 0.73372 31.6857 0.441792C31.0715 0.149863 30.3999 -0.00108023 29.7199 5.81934e-06H22.9397C22.774 5.81934e-06 22.615 0.0658439 22.4978 0.183036C22.3806 0.300229 22.3148 0.459175 22.3148 0.62491V8.51745C22.3159 9.00882 22.4663 9.48826 22.746 9.89224C22.3287 10.0796 21.9886 10.4048 21.7826 10.8132C21.5766 11.2217 21.5174 11.6885 21.6149 12.1354C21.7123 12.5823 21.9605 12.9822 22.3178 13.2678C22.6751 13.5534 23.1197 13.7075 23.5771 13.7042H23.7396C23.8558 14.8762 24.2646 16.0003 24.9285 16.9732C25.5923 17.946 26.49 18.7365 27.539 19.2721V20.8093C26.112 20.9369 24.7342 21.3948 23.5146 22.1466C22.4256 22.7614 21.4718 23.5897 20.7105 24.5819C19.9492 25.574 19.396 26.7097 19.084 27.9207C18.7859 27.8393 18.4833 27.7747 18.1779 27.727C18.0717 27.727 18.1029 27.727 18.1029 26.2897C18.9112 25.7088 19.5866 24.9627 20.0843 24.1007C20.5821 23.2388 20.8908 22.2809 20.99 21.2905H21.165C21.6476 21.2941 22.1151 21.1224 22.4808 20.8074C22.8464 20.4925 23.0854 20.0555 23.1533 19.5777C23.2213 19.0999 23.1135 18.6136 22.8502 18.2092C22.5868 17.8048 22.1856 17.5097 21.7211 17.3786C21.9321 17.2185 22.103 17.0115 22.2201 16.774C22.3373 16.5365 22.3975 16.2749 22.396 16.0101C22.396 15.2039 21.5899 14.2103 21.0337 13.6854V11.8107C21.0239 10.4879 20.4941 9.22197 19.5587 8.28655C18.6232 7.35113 17.3574 6.82127 16.0345 6.81146H12.0351C10.7069 6.82135 9.43633 7.35551 8.50003 8.29766C7.56374 9.23981 7.0375 10.5137 7.03589 11.8419V13.7167C6.55453 14.1634 6.1567 14.6925 5.86107 15.2789C5.67663 15.6343 5.62565 16.0441 5.71737 16.4339C5.80908 16.8237 6.03742 17.1677 6.361 17.4036C5.90485 17.5374 5.51155 17.8299 5.25204 18.2282C4.99253 18.6265 4.8839 19.1044 4.94574 19.5757C5.00758 20.0471 5.23582 20.4808 5.58929 20.7986C5.94276 21.1165 6.39819 21.2976 6.87342 21.3092H7.04839C7.14757 22.2996 7.45629 23.2576 7.95405 24.1195C8.45181 24.9814 9.12722 25.7276 9.93545 26.3085C9.93545 27.7458 9.96669 27.727 9.86046 27.7458C7.541 28.1178 5.41617 29.2652 3.83289 31.0005C2.2496 32.7359 1.30138 34.9568 1.14305 37.3005L0.668118 44.4307C0.662999 44.5159 0.675373 44.6012 0.704477 44.6814C0.733581 44.7616 0.778799 44.835 0.837345 44.897C0.895891 44.9591 0.966524 45.0085 1.04489 45.0422C1.12326 45.0759 1.20771 45.0933 1.29302 45.0931H60.034C60.1252 45.0943 60.2156 45.0755 60.2987 45.038C60.3819 45.0006 60.4558 44.9454 60.5154 44.8763C60.5749 44.8072 60.6187 44.7259 60.6434 44.6381C60.6682 44.5504 60.6735 44.4582 60.6589 44.3682L59.2529 36.2507ZM48.892 30.8515L47.4547 36.0382C45.9112 30.4828 45.9924 30.839 46.0549 30.864C46.9669 31.2257 47.9833 31.2212 48.892 30.8515ZM46.3424 27.5208C47.0781 27.652 47.8313 27.652 48.567 27.5208C48.8295 27.4771 49.3169 27.3708 49.3794 27.3521V29.0018C49.1447 29.2762 48.8534 29.4965 48.5255 29.6476C48.1975 29.7987 47.8408 29.8769 47.4797 29.8769C47.1186 29.8769 46.7619 29.7987 46.4339 29.6476C46.106 29.4965 45.8147 29.2762 45.58 29.0018C45.5237 28.9393 45.58 29.0768 45.58 27.3521C45.5925 27.3708 46.0799 27.4771 46.3424 27.5208ZM41.6618 14.879V14.1916H53.2101V14.879H41.6618ZM55.3597 19.2533C55.3597 19.3518 55.3403 19.4493 55.3027 19.5403C55.265 19.6313 55.2097 19.7139 55.1401 19.7836C55.0705 19.8532 54.9878 19.9084 54.8968 19.9461C54.8058 19.9838 54.7083 20.0032 54.6099 20.0032H54.4786V18.5284H54.6099C54.8093 18.5301 55 18.6105 55.1405 18.7521C55.2809 18.8937 55.3597 19.0851 55.3597 19.2846V19.2533ZM45.4363 9.1861H49.4107C50.402 9.19587 51.3501 9.59403 52.0511 10.2951C52.7521 10.9961 53.1503 11.9441 53.1601 12.9355H41.6618C41.6701 11.9393 42.0712 10.9867 42.7779 10.2846C43.4847 9.58247 44.44 9.18771 45.4363 9.1861ZM40.437 18.5284V20.0344H40.3058C40.2028 20.0331 40.1012 20.0108 40.0072 19.9688C39.9132 19.9268 39.8288 19.8661 39.759 19.7903C39.6893 19.7146 39.6358 19.6253 39.6018 19.5282C39.5678 19.431 39.554 19.3279 39.5612 19.2252C39.5685 19.1225 39.5966 19.0223 39.644 18.9309C39.6913 18.8394 39.7568 18.7586 39.8364 18.6934C39.9161 18.6281 40.0082 18.5799 40.1072 18.5515C40.2062 18.5231 40.3099 18.5153 40.412 18.5284H40.437ZM41.6868 20.6593V16.1288H53.2101V20.6531C53.1987 21.6053 52.9523 22.5399 52.4926 23.3739C52.033 24.2079 51.3745 24.9154 50.5756 25.4336C49.7767 25.9518 48.8621 26.2646 47.9132 26.3442C46.9643 26.4238 46.0104 26.2677 45.1363 25.8898C44.1221 25.4444 43.2572 24.7171 42.6445 23.7942C42.0319 22.8714 41.6973 21.7919 41.6806 20.6843L41.6868 20.6593ZM44.4114 29.633L46.861 38.4629V43.862H45.2425L42.7429 29.9579C43.2857 29.7898 43.8452 29.6808 44.4114 29.633ZM29.6199 19.9407C30.356 20.0688 31.1086 20.0688 31.8446 19.9407C32.1071 19.897 32.5945 19.7907 32.657 19.772V21.3842C32.4224 21.6673 32.1283 21.8951 31.7956 22.0515C31.463 22.2079 31.0999 22.289 30.7323 22.289C30.3647 22.289 30.0016 22.2079 29.6689 22.0515C29.3362 21.8951 29.0421 21.6673 28.8076 21.3842V19.772C28.87 19.7907 29.3575 19.897 29.6199 19.9407ZM29.295 23.2714C30.2158 23.6499 31.2487 23.6499 32.1695 23.2714L30.7323 28.4644L29.295 23.2714ZM38.4061 12.2419C38.323 12.3197 38.2243 12.3789 38.1166 12.4156C38.0088 12.4522 37.8945 12.4654 37.7812 12.4544V10.9483H37.9124C38.0604 10.9528 38.2038 11.0009 38.3245 11.0867C38.4452 11.1725 38.5378 11.2922 38.5906 11.4305C38.6434 11.5688 38.654 11.7197 38.6212 11.8641C38.5884 12.0085 38.5135 12.14 38.4061 12.2419ZM34.3067 2.74958C34.3084 2.35233 34.4669 1.97181 34.7478 1.6909C35.0287 1.41 35.4092 1.25146 35.8065 1.24981H36.1877C36.6595 1.25146 37.1116 1.43963 37.4452 1.77327C37.7788 2.10691 37.967 2.55895 37.9687 3.03079V9.69852H37.7437C37.6815 8.54305 37.3354 7.42073 36.7359 6.431C36.1363 5.44126 35.302 4.61465 34.3067 4.02439V2.74958ZM23.5646 1.24981H29.7199C30.3939 1.24532 31.0534 1.44541 31.6113 1.82364C32.1691 2.20188 32.5991 2.74046 32.8444 3.36824C31.9696 3.09838 31.0506 3.00075 30.1386 3.08078C29.4325 3.13703 29.9699 3.25576 29.2387 2.52462C29.1806 2.46605 29.1115 2.41956 29.0354 2.38783C28.9592 2.35611 28.8776 2.33977 28.7951 2.33977C28.7126 2.33977 28.6309 2.35611 28.5547 2.38783C28.4786 2.41956 28.4095 2.46605 28.3514 2.52462C28.235 2.6417 28.1697 2.80009 28.1697 2.96518C28.1697 3.13027 28.235 3.28865 28.3514 3.40574C28.8202 3.87846 29.1145 4.49646 29.1861 5.15841C29.2576 5.82035 29.1021 6.48695 28.7451 7.04893L26.7141 5.06173L25.8518 4.18062C25.7937 4.12205 25.7246 4.07556 25.6484 4.04383C25.5723 4.0121 25.4906 3.99577 25.4081 3.99577C25.3256 3.99577 25.2439 4.0121 25.1678 4.04383C25.0916 4.07556 25.0225 4.12205 24.9644 4.18062C24.848 4.2977 24.7827 4.45608 24.7827 4.62117C24.7827 4.78626 24.848 4.94465 24.9644 5.06173L25.4018 5.49917C24.5076 6.53172 23.9323 7.80167 23.7458 9.15485C23.4959 8.74867 23.5646 9.20485 23.5646 1.24981ZM22.821 11.6982C22.8258 11.4998 22.9072 11.3109 23.0481 11.1711C23.1891 11.0313 23.3786 10.9515 23.5771 10.9483H23.7021V12.4544H23.5771C23.3766 12.4544 23.1842 12.3747 23.0424 12.2329C22.9006 12.0911 22.821 11.8988 22.821 11.6982ZM24.9519 13.0793V10.2734C24.9013 8.85505 25.3777 7.46817 26.2892 6.38028L28.3326 8.42372C28.3907 8.48229 28.4598 8.52878 28.536 8.5605C28.6121 8.59223 28.6938 8.60856 28.7763 8.60856C28.8588 8.60856 28.9405 8.59223 29.0166 8.5605C29.0928 8.52878 29.1619 8.48229 29.22 8.42372C29.7427 7.89224 30.1153 7.23172 30.2997 6.50942C30.4841 5.78713 30.4738 5.02886 30.2698 4.31185C31.0868 4.24662 31.9083 4.35549 32.6801 4.63126C33.4518 4.90703 34.1563 5.34342 34.747 5.91161C35.3376 6.4798 35.8009 7.16684 36.1064 7.92736C36.4118 8.68788 36.5524 9.50455 36.5189 10.3234V13.073C36.4696 14.5723 35.8393 15.9938 34.7612 17.037C33.6832 18.0801 32.2418 18.6633 30.7416 18.6633C29.2415 18.6633 27.8001 18.0801 26.722 17.037C25.644 15.9938 25.0137 14.5723 24.9644 13.073L24.9519 13.0793ZM17.0219 38.8816C16.7808 38.7675 16.5842 38.5768 16.4631 38.3392C16.3419 38.1016 16.3029 37.8305 16.3522 37.5684C16.4015 37.3063 16.5362 37.0679 16.7354 36.8905C16.9346 36.7132 17.187 36.6068 17.453 36.5882C17.3281 37.2506 17.4156 36.8006 17.0219 38.8816ZM18.8466 29.1393L17.6843 35.3508C17.0909 35.3188 16.5062 35.5036 16.039 35.8707C15.5717 36.2378 15.2538 36.7622 15.1445 37.3462C15.0352 37.9303 15.1419 38.5342 15.4447 39.0454C15.7476 39.5566 16.2259 39.9404 16.7906 40.1251L16.0908 43.8745H14.6535V31.4514L15.3659 31.0203C15.458 30.9642 15.534 30.8852 15.5866 30.791C15.6392 30.6969 15.6664 30.5907 15.6658 30.4828V27.4146C16.0776 27.3127 16.4809 27.179 16.8719 27.0146V27.6395C16.8693 27.9592 16.9814 28.2692 17.1877 28.5134C17.3941 28.7576 17.6811 28.9198 17.9967 28.9706C18.2904 29.0081 18.5779 29.0706 18.8466 29.1393ZM14.291 27.6083H14.416V30.1079L14.0286 30.3454L13.6411 30.1079V27.6083H13.7911C13.9576 27.6197 14.1246 27.6197 14.291 27.6083ZM21.0525 20.0594V18.5284H21.1837C21.3868 18.5458 21.5745 18.6432 21.7058 18.799C21.8371 18.9549 21.901 19.1565 21.8836 19.3595C21.8662 19.5626 21.7689 19.7504 21.613 19.8816C21.4571 20.0129 21.2555 20.0768 21.0525 20.0594ZM8.25446 11.8045C8.25605 10.8076 8.65061 9.85166 9.35253 9.14389C10.0544 8.43612 11.0071 8.03365 12.0039 8.02378H16.0033C17 8.03365 17.9527 8.43612 18.6546 9.14389C19.3565 9.85166 19.7511 10.8076 19.7527 11.8045V12.7731C17.9717 11.7982 15.9033 11.6607 13.9786 11.6607C12.0539 11.6607 9.97294 11.8045 8.20446 12.7731L8.25446 11.8045ZM6.91716 15.8101C8.16697 13.3105 11.204 12.9105 14.0036 12.9105C16.8031 12.9105 19.8089 13.273 21.09 15.8163C21.1244 15.8754 21.1439 15.942 21.1466 16.0104C21.1493 16.0787 21.1353 16.1467 21.1057 16.2083C21.0761 16.27 21.0319 16.3234 20.9768 16.364C20.9218 16.4046 20.8577 16.4311 20.79 16.4412C20.7248 16.4432 20.6602 16.4281 20.6026 16.3975C20.1964 16.1163 19.9777 13.8041 14.0036 13.8041C8.02949 13.8041 7.82327 16.1038 7.40459 16.3975C7.34697 16.4281 7.28235 16.4432 7.21711 16.4412C7.14931 16.4302 7.0852 16.4028 7.03028 16.3616C6.97536 16.3203 6.93126 16.2663 6.90177 16.2043C6.87228 16.1422 6.85828 16.0739 6.86096 16.0053C6.86364 15.9366 6.88292 15.8697 6.91716 15.8101ZM6.12353 19.2846C6.12353 19.0851 6.20233 18.8937 6.34279 18.7521C6.48324 18.6105 6.67396 18.5301 6.87342 18.5284H7.00465V20.0594H6.87342C6.7728 20.0595 6.6732 20.0393 6.58056 20.0001C6.48791 19.9608 6.4041 19.9033 6.33413 19.831C6.26416 19.7587 6.20946 19.6731 6.17328 19.5792C6.1371 19.4853 6.12018 19.3851 6.12353 19.2846ZM8.25446 20.6843V17.3286C8.9731 16.7037 8.74813 15.0415 14.0286 15.0415C19.309 15.0415 19.084 16.7349 19.8027 17.3286V20.6843C19.8027 22.2157 19.1943 23.6844 18.1115 24.7673C17.0286 25.8501 15.56 26.4585 14.0286 26.4585C12.4972 26.4585 11.0285 25.8501 9.94566 24.7673C8.8628 23.6844 8.25446 22.2157 8.25446 20.6843ZM3.16774 34.2698C3.78133 32.8819 4.73116 31.6689 5.93135 30.7404C7.13153 29.8119 8.54422 29.1972 10.0417 28.9518C10.3573 28.901 10.6443 28.7389 10.8507 28.4947C11.057 28.2505 11.1691 27.9405 11.1665 27.6208V26.9959C11.5568 27.1623 11.9602 27.2961 12.3726 27.3958V30.4641C12.3719 30.5719 12.3992 30.6781 12.4518 30.7723C12.5044 30.8665 12.5804 30.9454 12.6725 31.0015L13.3849 31.4327V43.862H6.6422L6.91716 38.9066C6.91716 38.7408 6.85132 38.5819 6.73413 38.4647C6.61694 38.3475 6.45799 38.2817 6.29226 38.2817C6.12652 38.2817 5.96757 38.3475 5.85038 38.4647C5.73319 38.5819 5.66735 38.7408 5.66735 38.9066L5.39864 43.9058H1.96167C2.40535 37.1506 2.28662 36.2507 3.16774 34.2698ZM39.7184 43.862L37.9562 32.82C37.9305 32.6542 37.84 32.5055 37.7046 32.4065C37.5693 32.3075 37.4001 32.2663 37.2344 32.2919C37.0687 32.3176 36.9199 32.4081 36.8209 32.5435C36.7219 32.6788 36.6807 32.848 36.7063 33.0137L38.4373 43.862H23.0897C24.7269 33.0199 24.552 34.201 24.7332 33.0137C24.7455 32.9316 24.7415 32.848 24.7215 32.7674C24.7015 32.6869 24.6658 32.6111 24.6164 32.5444C24.5671 32.4776 24.5051 32.4213 24.434 32.3785C24.3629 32.3357 24.2841 32.3074 24.202 32.2951C24.1199 32.2828 24.0363 32.2867 23.9557 32.3068C23.8752 32.3268 23.7994 32.3625 23.7327 32.4118C23.666 32.4611 23.6096 32.5231 23.5668 32.5942C23.524 32.6653 23.4957 32.7442 23.4834 32.8262L21.8274 43.862H17.3593C21.1087 23.7589 19.9714 30.1141 20.1776 28.8643C20.3305 28.0016 20.6239 27.1699 21.0462 26.4022C21.7726 25.0759 22.8547 23.9787 24.1708 23.234C24.68 22.92 25.2229 22.6643 25.7893 22.4716C25.0737 23.4052 24.64 24.524 24.5395 25.6961C24.0687 25.8453 23.6669 26.1579 23.4066 26.5775C23.1463 26.9971 23.0448 27.496 23.1202 27.984C23.1957 28.472 23.4433 28.9169 23.8182 29.2383C24.1931 29.5596 24.6706 29.7363 25.1644 29.7363C25.6582 29.7363 26.1357 29.5596 26.5106 29.2383C26.8855 28.9169 27.133 28.472 27.2085 27.984C27.284 27.496 27.1824 26.9971 26.9221 26.5775C26.6618 26.1579 26.26 25.8453 25.7893 25.6961C25.8564 25.0314 26.057 24.3872 26.3792 23.802C26.7013 23.2167 27.1383 22.7026 27.664 22.2903L30.0699 30.964C30.1077 31.0938 30.1867 31.2078 30.2948 31.289C30.403 31.3701 30.5346 31.4139 30.6698 31.4139C30.805 31.4139 30.9365 31.3701 31.0447 31.289C31.1529 31.2078 31.2318 31.0938 31.2697 30.964L33.6756 22.2903C34.1904 22.6866 34.6212 23.1812 34.9431 23.7455C35.2649 24.3098 35.4713 24.9325 35.5503 25.5773C35.3521 25.574 35.1551 25.6102 34.9711 25.6838C34.787 25.7573 34.6193 25.8668 34.478 26.0058C34.3367 26.1449 34.2244 26.3106 34.1478 26.4935C34.0712 26.6763 34.0317 26.8726 34.0318 27.0709V28.3957C34.0318 28.5614 34.0976 28.7203 34.2148 28.8375C34.332 28.9547 34.4909 29.0206 34.6567 29.0206C34.8224 29.0206 34.9813 28.9547 35.0985 28.8375C35.2157 28.7203 35.2816 28.5614 35.2816 28.3957V27.0646C35.2816 27 35.3072 26.938 35.3529 26.8923C35.3987 26.8466 35.4606 26.8209 35.5253 26.8209H36.9001C36.9647 26.8209 37.0267 26.8466 37.0724 26.8923C37.1181 26.938 37.1438 27 37.1438 27.0646V28.3894C37.1438 28.5551 37.2096 28.7141 37.3268 28.8313C37.444 28.9485 37.6029 29.0143 37.7687 29.0143C37.9344 29.0143 38.0934 28.9485 38.2106 28.8313C38.3278 28.7141 38.3936 28.5551 38.3936 28.3894V27.0646C38.3932 26.8595 38.3507 26.6566 38.2688 26.4686C38.1869 26.2805 38.0672 26.1112 37.9173 25.9713C37.7674 25.8313 37.5903 25.7235 37.397 25.6547C37.2038 25.5859 36.9985 25.5574 36.7938 25.5711C36.6759 24.4336 36.2431 23.3516 35.544 22.4466C36.1136 22.6388 36.6589 22.8967 37.1688 23.2152C38.484 23.9582 39.566 25.0532 40.2933 26.3772C40.7262 27.1552 41.0262 28 41.1807 28.8768L43.8553 43.8745L39.7184 43.862ZM25.1644 26.8209C25.3275 26.8209 25.487 26.8693 25.6226 26.9599C25.7583 27.0506 25.864 27.1794 25.9264 27.3301C25.9889 27.4808 26.0052 27.6467 25.9734 27.8067C25.9416 27.9667 25.863 28.1137 25.7476 28.229C25.6323 28.3444 25.4853 28.423 25.3253 28.4548C25.1653 28.4866 24.9994 28.4703 24.8487 28.4079C24.698 28.3454 24.5691 28.2397 24.4785 28.1041C24.3879 27.9684 24.3395 27.8089 24.3395 27.6458C24.3411 27.4275 24.4286 27.2186 24.5829 27.0643C24.7372 26.91 24.9461 26.8225 25.1644 26.8209ZM55.5222 43.862L54.7723 39.5877C54.7442 39.422 54.6513 39.2742 54.5142 39.1769C54.3771 39.0797 54.2069 39.0409 54.0412 39.069C53.8755 39.0972 53.7277 39.1901 53.6304 39.3272C53.5332 39.4643 53.4944 39.6344 53.5225 39.8002L54.2349 43.862H48.0796V38.4629L50.5292 29.633C52.3415 29.8303 54.0443 30.5982 55.392 31.8257C56.7398 33.0533 57.6628 34.6772 58.0281 36.4632L59.2779 43.862H55.5222Z" fill="white"/>
<path d="M49.5478 23.859C49.6098 23.8048 49.6605 23.739 49.697 23.6652C49.7335 23.5915 49.7551 23.5113 49.7606 23.4292C49.7662 23.3471 49.7554 23.2647 49.7291 23.1867C49.7028 23.1087 49.6614 23.0367 49.6072 22.9747C49.553 22.9128 49.4872 22.8621 49.4135 22.8256C49.3397 22.7891 49.2595 22.7674 49.1774 22.7619C49.0953 22.7564 49.0129 22.7671 48.9349 22.7935C48.8569 22.8198 48.7849 22.8612 48.723 22.9154C48.3659 23.2127 47.9159 23.3756 47.4513 23.3756C46.9866 23.3756 46.5367 23.2127 46.1796 22.9154C46.1197 22.8524 46.0473 22.8027 45.967 22.7693C45.8868 22.7359 45.8005 22.7196 45.7136 22.7215C45.6267 22.7233 45.5411 22.7433 45.4624 22.7801C45.3836 22.8169 45.3135 22.8697 45.2563 22.9352C45.1991 23.0006 45.1562 23.0773 45.1304 23.1603C45.1045 23.2432 45.0962 23.3307 45.1061 23.4171C45.1159 23.5034 45.1437 23.5868 45.1876 23.6618C45.2315 23.7368 45.2905 23.8018 45.361 23.8527C45.9411 24.3579 46.684 24.6367 47.4532 24.6378C48.2225 24.639 48.9662 24.3624 49.5478 23.859Z" fill="white"/>
<path d="M49.9921 18.3785C49.8264 18.3785 49.6674 18.4444 49.5502 18.5616C49.433 18.6788 49.3672 18.8377 49.3672 19.0034V19.2846C49.3672 19.4504 49.433 19.6093 49.5502 19.7265C49.6674 19.8437 49.8264 19.9096 49.9921 19.9096C50.1578 19.9096 50.3168 19.8437 50.434 19.7265C50.5512 19.6093 50.617 19.4504 50.617 19.2846V19.0034C50.617 18.8377 50.5512 18.6788 50.434 18.5616C50.3168 18.4444 50.1578 18.3785 49.9921 18.3785Z" fill="white"/>
<path d="M49.3417 18.0972H50.6602C50.826 18.0972 50.9849 18.0314 51.1021 17.9142C51.2193 17.797 51.2852 17.6381 51.2852 17.4723C51.2852 17.3066 51.2193 17.1476 51.1021 17.0304C50.9849 16.9132 50.826 16.8474 50.6602 16.8474H49.3417C49.176 16.8474 49.017 16.9132 48.8998 17.0304C48.7826 17.1476 48.7168 17.3066 48.7168 17.4723C48.7168 17.6381 48.7826 17.797 48.8998 17.9142C49.017 18.0314 49.176 18.0972 49.3417 18.0972Z" fill="white"/>
<path d="M45.5423 19.2846V19.0034C45.5423 18.8377 45.4765 18.6788 45.3593 18.5616C45.2421 18.4444 45.0831 18.3785 44.9174 18.3785C44.7516 18.3785 44.5927 18.4444 44.4755 18.5616C44.3583 18.6788 44.2925 18.8377 44.2925 19.0034V19.2846C44.2925 19.4504 44.3583 19.6093 44.4755 19.7265C44.5927 19.8437 44.7516 19.9096 44.9174 19.9096C45.0831 19.9096 45.2421 19.8437 45.3593 19.7265C45.4765 19.6093 45.5423 19.4504 45.5423 19.2846Z" fill="white"/>
<path d="M46.1923 17.4723C46.1923 17.3066 46.1264 17.1476 46.0093 17.0304C45.8921 16.9132 45.7331 16.8474 45.5674 16.8474H44.2738C44.1081 16.8474 43.9491 16.9132 43.832 17.0304C43.7148 17.1476 43.6489 17.3066 43.6489 17.4723C43.6489 17.6381 43.7148 17.797 43.832 17.9142C43.9491 18.0314 44.1081 18.0972 44.2738 18.0972H45.5674C45.7331 18.0972 45.8921 18.0314 46.0093 17.9142C46.1264 17.797 46.1923 17.6381 46.1923 17.4723Z" fill="white"/>
<path d="M48.2108 10.4671H48.0608V10.3172C48.0608 10.1514 47.995 9.99248 47.8778 9.87529C47.7606 9.7581 47.6017 9.69226 47.4359 9.69226C47.2702 9.69226 47.1112 9.7581 46.994 9.87529C46.8769 9.99248 46.811 10.1514 46.811 10.3172V10.4671H46.661C46.4953 10.4671 46.3364 10.533 46.2192 10.6502C46.102 10.7674 46.0361 10.9263 46.0361 11.092C46.0361 11.2578 46.102 11.4167 46.2192 11.5339C46.3364 11.6511 46.4953 11.717 46.661 11.717H46.811V11.8607C46.811 12.0264 46.8769 12.1854 46.994 12.3026C47.1112 12.4197 47.2702 12.4856 47.4359 12.4856C47.6017 12.4856 47.7606 12.4197 47.8778 12.3026C47.995 12.1854 48.0608 12.0264 48.0608 11.8607V11.717H48.2108C48.3765 11.717 48.5355 11.6511 48.6527 11.5339C48.7699 11.4167 48.8357 11.2578 48.8357 11.092C48.8357 10.9263 48.7699 10.7674 48.6527 10.6502C48.5355 10.533 48.3765 10.4671 48.2108 10.4671Z" fill="white"/>
<path d="M13.2538 10.4983H13.4038V10.6483C13.4038 10.814 13.4696 10.973 13.5868 11.0902C13.704 11.2074 13.863 11.2732 14.0287 11.2732C14.1944 11.2732 14.3534 11.2074 14.4706 11.0902C14.5878 10.973 14.6536 10.814 14.6536 10.6483V10.4983H14.8036C14.9693 10.4983 15.1283 10.4325 15.2454 10.3153C15.3626 10.1981 15.4285 10.0392 15.4285 9.87342C15.4285 9.70768 15.3626 9.54874 15.2454 9.43155C15.1283 9.31435 14.9693 9.24852 14.8036 9.24852H14.6536V9.09854C14.6536 8.9328 14.5878 8.77386 14.4706 8.65666C14.3534 8.53947 14.1944 8.47363 14.0287 8.47363C13.863 8.47363 13.704 8.53947 13.5868 8.65666C13.4696 8.77386 13.4038 8.9328 13.4038 9.09854V9.24852H13.2538C13.0881 9.24852 12.9291 9.31435 12.8119 9.43155C12.6947 9.54874 12.6289 9.70768 12.6289 9.87342C12.6289 10.0392 12.6947 10.1981 12.8119 10.3153C12.9291 10.4325 13.0881 10.4983 13.2538 10.4983Z" fill="white"/>
<path d="M11.8729 22.9715C11.7644 23.0967 11.7101 23.2598 11.7218 23.425C11.7335 23.5902 11.8103 23.744 11.9354 23.8526C12.5162 24.3569 13.2596 24.6346 14.0288 24.6346C14.798 24.6346 15.5414 24.3569 16.1222 23.8526C16.2473 23.744 16.3241 23.5902 16.3359 23.425C16.3476 23.2598 16.2932 23.0967 16.1847 22.9715C16.0761 22.8465 15.9223 22.7696 15.7571 22.7579C15.5919 22.7462 15.4288 22.8006 15.3036 22.909C14.9451 23.2057 14.4942 23.3681 14.0288 23.3681C13.5634 23.3681 13.1126 23.2057 12.754 22.909C12.6289 22.8006 12.4657 22.7462 12.3005 22.7579C12.1353 22.7696 11.9815 22.8465 11.8729 22.9715Z" fill="white"/>
<path d="M16.5658 18.3785C16.4001 18.3785 16.2411 18.4444 16.1239 18.5616C16.0068 18.6788 15.9409 18.8377 15.9409 19.0034V19.2846C15.9409 19.4504 16.0068 19.6093 16.1239 19.7265C16.2411 19.8437 16.4001 19.9096 16.5658 19.9096C16.7316 19.9096 16.8905 19.8437 17.0077 19.7265C17.1249 19.6093 17.1907 19.4504 17.1907 19.2846V19.0034C17.1907 18.8377 17.1249 18.6788 17.0077 18.5616C16.8905 18.4444 16.7316 18.3785 16.5658 18.3785Z" fill="white"/>
<path d="M15.9154 18.0972H17.209C17.3747 18.0972 17.5337 18.0314 17.6509 17.9142C17.7681 17.797 17.8339 17.6381 17.8339 17.4723C17.8339 17.3066 17.7681 17.1476 17.6509 17.0304C17.5337 16.9132 17.3747 16.8474 17.209 16.8474H15.9154C15.7497 16.8474 15.5908 16.9132 15.4736 17.0304C15.3564 17.1476 15.2905 17.3066 15.2905 17.4723C15.2905 17.6381 15.3564 17.797 15.4736 17.9142C15.5908 18.0314 15.7497 18.0972 15.9154 18.0972Z" fill="white"/>
<path d="M12.1165 19.2846V19.0034C12.1165 18.8377 12.0507 18.6788 11.9335 18.5616C11.8163 18.4444 11.6573 18.3785 11.4916 18.3785C11.3259 18.3785 11.1669 18.4444 11.0497 18.5616C10.9325 18.6788 10.8667 18.8377 10.8667 19.0034V19.2846C10.8667 19.4504 10.9325 19.6093 11.0497 19.7265C11.1669 19.8437 11.3259 19.9096 11.4916 19.9096C11.6573 19.9096 11.8163 19.8437 11.9335 19.7265C12.0507 19.6093 12.1165 19.4504 12.1165 19.2846Z" fill="white"/>
<path d="M12.766 17.4723C12.766 17.3066 12.7002 17.1476 12.583 17.0304C12.4658 16.9132 12.3068 16.8474 12.1411 16.8474H10.8476C10.6818 16.8474 10.5229 16.9132 10.4057 17.0304C10.2885 17.1476 10.2227 17.3066 10.2227 17.4723C10.2227 17.6381 10.2885 17.797 10.4057 17.9142C10.5229 18.0314 10.6818 18.0972 10.8476 18.0972H12.1411C12.3068 18.0972 12.4658 18.0314 12.583 17.9142C12.7002 17.797 12.766 17.6381 12.766 17.4723Z" fill="white"/>
<path d="M32.8192 16.3101C32.884 16.2573 32.9376 16.1919 32.9768 16.1179C33.0159 16.044 33.0398 15.9629 33.047 15.8795C33.0542 15.7961 33.0446 15.7122 33.0187 15.6326C32.9928 15.553 32.9513 15.4794 32.8964 15.4162C32.8416 15.353 32.7746 15.3014 32.6995 15.2646C32.6243 15.2278 32.5425 15.2064 32.459 15.2018C32.3754 15.1971 32.2918 15.2093 32.213 15.2376C32.1343 15.2659 32.062 15.3098 32.0005 15.3665C31.644 15.665 31.1938 15.8286 30.7288 15.8286C30.2639 15.8286 29.8137 15.665 29.4572 15.3665C29.3313 15.2639 29.1704 15.2144 29.0086 15.2284C28.8468 15.2424 28.6968 15.3188 28.5904 15.4414C28.484 15.5641 28.4295 15.7234 28.4385 15.8855C28.4474 16.0477 28.5192 16.2 28.6385 16.3101C29.2184 16.814 29.9607 17.0914 30.7288 17.0914C31.497 17.0914 32.2393 16.814 32.8192 16.3101Z" fill="white"/>
<path d="M33.2631 10.7922C33.0974 10.7922 32.9384 10.8581 32.8212 10.9753C32.704 11.0925 32.6382 11.2514 32.6382 11.4171V11.7046C32.6382 11.8703 32.704 12.0293 32.8212 12.1465C32.9384 12.2637 33.0974 12.3295 33.2631 12.3295C33.4288 12.3295 33.5878 12.2637 33.705 12.1465C33.8222 12.0293 33.888 11.8703 33.888 11.7046V11.4171C33.888 11.2514 33.8222 11.0925 33.705 10.9753C33.5878 10.8581 33.4288 10.7922 33.2631 10.7922Z" fill="white"/>
<path d="M32.6195 10.5173H33.9131C34.0788 10.5173 34.2378 10.4514 34.355 10.3342C34.4722 10.217 34.538 10.0581 34.538 9.89236C34.538 9.72663 34.4722 9.56768 34.355 9.45049C34.2378 9.33329 34.0788 9.26746 33.9131 9.26746H32.6195C32.4538 9.26746 32.2949 9.33329 32.1777 9.45049C32.0605 9.56768 31.9946 9.72663 31.9946 9.89236C31.9946 10.0581 32.0605 10.217 32.1777 10.3342C32.2949 10.4514 32.4538 10.5173 32.6195 10.5173Z" fill="white"/>
<path d="M28.8201 11.7046V11.4171C28.8201 11.2514 28.7543 11.0925 28.6371 10.9753C28.5199 10.8581 28.361 10.7922 28.1952 10.7922C28.0295 10.7922 27.8705 10.8581 27.7533 10.9753C27.6361 11.0925 27.5703 11.2514 27.5703 11.4171V11.7046C27.5703 11.8703 27.6361 12.0293 27.7533 12.1465C27.8705 12.2637 28.0295 12.3295 28.1952 12.3295C28.361 12.3295 28.5199 12.2637 28.6371 12.1465C28.7543 12.0293 28.8201 11.8703 28.8201 11.7046Z" fill="white"/>
<path d="M29.4637 9.89236C29.4637 9.72663 29.3978 9.56768 29.2806 9.45049C29.1634 9.33329 29.0045 9.26746 28.8388 9.26746H27.539C27.3732 9.26746 27.2143 9.33329 27.0971 9.45049C26.9799 9.56768 26.9141 9.72663 26.9141 9.89236C26.9141 10.0581 26.9799 10.217 27.0971 10.3342C27.2143 10.4514 27.3732 10.5173 27.539 10.5173H28.8263C28.9094 10.5189 28.992 10.504 29.0693 10.4733C29.1465 10.4427 29.2169 10.3969 29.2762 10.3387C29.3356 10.2805 29.3828 10.2111 29.4149 10.1344C29.4471 10.0578 29.4637 9.97549 29.4637 9.89236Z" fill="white"/>
</svg>
